SplineFontDB: 3.2
FontName: LotaGrotesqueAlt3-Regular
FullName: Lota Grotesque Alt 3 Regular
FamilyName: Lota Grotesque Alt 3
Weight: Regular
Copyright: Copyright \\(c\\) 2017 by Daniel Hernandez. All rights reserved.
Version: 002.000
ItalicAngle: 0
UnderlinePosition: -150
UnderlineWidth: 50
Ascent: 800
Descent: 200
InvalidEm: 0
sfntRevision: 0x00020000
woffMajor: 2
woffMinor: 0
LayerCount: 2
Layer: 0 0 "Back" 1
Layer: 1 0 "Fore" 0
XUID: [1021 159 -906805839 8846253]
StyleMap: 0x0040
FSType: 8
OS2Version: 3
OS2_WeightWidthSlopeOnly: 0
OS2_UseTypoMetrics: 0
CreationTime: 1496143436
ModificationTime: 1616685850
PfmFamily: 81
TTFWeight: 400
TTFWidth: 5
LineGap: 0
VLineGap: 0
Panose: 0 0 5 0 0 0 0 0 0 0
OS2TypoAscent: 950
OS2TypoAOffset: 0
OS2TypoDescent: -350
OS2TypoDOffset: 0
OS2TypoLinegap: 0
OS2WinAscent: 950
OS2WinAOffset: 0
OS2WinDescent: 350
OS2WinDOffset: 0
HheadAscent: 950
HheadAOffset: 0
HheadDescent: -350
HheadDOffset: 0
OS2SubXSize: 650
OS2SubYSize: 600
OS2SubXOff: 0
OS2SubYOff: 75
OS2SupXSize: 650
OS2SupYSize: 600
OS2SupXOff: 0
OS2SupYOff: 350
OS2StrikeYSize: 50
OS2StrikeYPos: 294
OS2CapHeight: 686
OS2XHeight: 490
OS2Vendor: 'UKWN'
OS2CodePages: 20000093.00000000
OS2UnicodeRanges: 00000007.00000000.00000000.00000000
Lookup: 1 0 0 "'aalt' Access All Alternates in Latin lookup 0" { "'aalt' Access All Alternates in Latin lookup 0 subtable"  } ['aalt' ('DFLT' <'dflt' > 'latn' <'AZE ' 'CAT ' 'CRT ' 'KAZ ' 'MOL ' 'ROM ' 'TAT ' 'TRK ' 'dflt' > ) ]
Lookup: 3 0 0 "'aalt' Access All Alternates in Latin lookup 1" { "'aalt' Access All Alternates in Latin lookup 1 subtable"  } ['aalt' ('DFLT' <'dflt' > 'latn' <'AZE ' 'CAT ' 'CRT ' 'KAZ ' 'MOL ' 'ROM ' 'TAT ' 'TRK ' 'dflt' > ) ]
Lookup: 6 0 0 "'locl' Localized Forms in Latin lookup 2" { "'locl' Localized Forms in Latin lookup 2 contextual 0"  "'locl' Localized Forms in Latin lookup 2 contextual 1"  } ['locl' ('latn' <'CAT ' > ) ]

StartChar: exclam
Encoding: 33 33 2
Width: 259
GlyphClass: 2
Flags: HMW
LayerCount: 2
Fore
SplineSet
76.900191621 715 m 1
 87.0978200795 199 l 1
 171.902179921 199 l 1
 182.099808379 715 l 1
 76.900191621 715 l 1
127 111 m 0
 87.4710005739 111 60 83.6255051594 60 45 c 0
 60 6.30242380014 87.5865452309 -20 127 -20 c 0
 166.413454769 -20 194 6.30242380014 194 45 c 0
 194 83.6255051594 166.528999426 111 127 111 c 0
EndSplineSet
Substitution2: "'case' Case-Sensitive Forms in Latin lookup 22 subtable" exclam.case
Substitution2: "'aalt' Access All Alternates in Latin lookup 0 subtable" exclam.case
EndChar

StartChar: quotedbl
Encoding: 34 34 3
Width: 329
GlyphClass: 2
Flags: HMW
LayerCount: 2
Fore
SplineSet
140.32067045 539 m 1
 144.94705962 751 l 1
 59.9100832372 751 l 1
 64.5364724068 539 l 1
 140.32067045 539 l 1
287.38189494 539 m 1
 292.00828411 751 l 1
 206.971307727 751 l 1
 211.597696897 539 l 1
 287.38189494 539 l 1
EndSplineSet
EndChar

StartChar: numbersign
Encoding: 35 35 4
Width: 632
GlyphClass: 2
Flags: HMW
LayerCount: 2
Fore
SplineSet
606 512 m 1
 606 596 l 1
 477.823355886 596 l 1
 507.823355886 691 l 1
 421.334538851 691 l 1
 391.334538851 596 l 1
 288.823355886 596 l 1
 318.823355886 691 l 1
 232.334538851 691 l 1
 202.334538851 596 l 1
 61 596 l 1
 61 512 l 1
 189.396998331 512 l 1
 171.537390652 355.390670554 l 1
 27 355.390670554 l 1
 27 271.390670554 l 1
 158.387302196 271.390670554 l 1
 126.387302196 -5 l 1
 212.454916323 -5 l 1
 244.454916323 271.390670554 l 1
 347.367080474 271.390670554 l 1
 314.367080474 -5 l 1
 400.438957374 -5 l 1
 433.438957374 271.390670554 l 1
 571 271.390670554 l 1
 571 355.390670554 l 1
 445.636531684 355.390670554 l 1
 464.436118714 512 l 1
 606 512 l 1
378.363468316 512 m 1
 359.563881286 355.390670554 l 1
 257.603001669 355.390670554 l 1
 275.462609348 512 l 1
 378.363468316 512 l 1
EndSplineSet
EndChar

StartChar: dollar
Encoding: 36 36 5
Width: 643
GlyphClass: 2
Flags: HW
AnchorPoint: "Anchor-2" 6.53061 0 basechar 0
AnchorPoint: "Anchor-1" 320.776 696 basechar 0
AnchorPoint: "Anchor-0" 324.776 0 basechar 0
LayerCount: 2
Fore
SplineSet
390.031633092 691.03515625 m 2
 385.736949651 691.55078125 l 1
 385.736949651 789 l 1
 280.20190787 789 l 1
 280.20190787 689.602539062 l 1
 275.876880011 689.11328125 l 2
 141.392578125 673.9453125 56.5302734375 605.194335938 56.5302734375 505.21875 c 0
 56.5302734375 353.266601562 194.93693746 326.1875 318.408375199 302.353515625 c 0
 424.140655698 281.943359375 514.612304688 263.857421875 514.612304688 180.770507812 c 0
 514.622070312 180.08984375 514.625976562 179.639648438 514.625976562 179.120117188 c 0
 514.625976562 117.04296875 449.757982518 79.763671875 337.268379386 79.763671875 c 0
 203.190619216 79.763671875 135.530273438 125.2734375 135.530273438 198.576171875 c 2
 135.530273438 203.41015625 l 1
 38.5302734375 203.41015625 l 1
 38.5302734375 198.576171875 l 2
 38.5302734375 81.1484375 126.224609375 9.876953125 275.793432861 -4.2646484375 c 2
 280.20190787 -4.68359375 l 1
 280.20190787 -104 l 1
 385.736949651 -104 l 1
 385.736949651 -4.19921875 l 1
 390.038270934 -3.689453125 l 2
 525.806640625 12.30078125 613.612304688 81.44921875 613.612304688 179.0078125 c 0
 613.612304688 336.859375 471.018040533 364.974609375 345.807488326 389.221679688 c 0
 242.573881014 409.211914062 155.948242188 426.609375 155.948242188 503.44921875 c 0
 155.948242188 538.587890625 172.025953441 564.5 206.771260566 581.118164062 c 0
 234.82752 594.536132812 275.650245137 601.905273438 330.554676855 601.905273438 c 0
 439.892253544 601.905273438 507.612304688 568.801757812 507.612304688 494.873046875 c 2
 507.612304688 490.659179688 l 1
 604.572265625 490.659179688 l 1
 604.599609375 492.977539062 604.623046875 495.282226562 604.623046875 497.584960938 c 0
 604.623046875 606.422851562 523.356445312 675.138671875 390.031633092 691.03515625 c 2
EndSplineSet
Substitution2: "'smcp' Lowercase to Small Capitals in Latin lookup 21 subtable" dollar.sc
Substitution2: "'c2sc' Capitals to Small Capitals in Latin lookup 20 subtable" dollar.sc
Substitution2: "'aalt' Access All Alternates in Latin lookup 0 subtable" dollar.sc
EndChar

StartChar: percent
Encoding: 37 37 6
Width: 944
GlyphClass: 2
Flags: HW
LayerCount: 2
Fore
SplineSet
701.000430508 692 m 1
 598.185481381 692 l 1
 257.170465995 -10 l 1
 360.804742034 -10 l 1
 701.000430508 692 l 1
215.243430808 691 m 0
 99.8359375 691 36.1220703125 617.571289062 36.1220703125 498 c 0
 36.1220703125 378.419921875 99.82421875 305 215.243430808 305 c 0
 277.360335115 305 326.717088274 326.407226562 357.995758576 367.010742188 c 0
 382.956379813 399.412109375 396.197356612 443.561523438 396.197356612 498 c 0
 396.197356612 552.438476562 382.956379813 596.587890625 357.995758576 628.989257812 c 0
 326.717088274 669.592773438 277.360335115 691 215.243430808 691 c 0
294.365215117 493 m 0
 294.365215117 429.521484375 272.788644818 387 215.243430808 387 c 0
 157.620323044 387 136.122070312 429.381835938 136.122070312 493 c 0
 136.122070312 557.138671875 156.738488798 599 215.243430808 599 c 0
 272.771335094 599 294.365215117 556.446289062 294.365215117 493 c 0
600.007810601 62.009765625 m 0
 631.314368791 21.4052734375 680.710549653 0 742.877459828 0 c 0
 858.354492188 0 921.041015625 73.4501953125 921.041015625 193 c 0
 921.041015625 312.55859375 858.366210938 386 742.877459828 386 c 0
 680.710549653 386 631.314368791 364.594726562 600.007810601 323.990234375 c 0
 575.026994687 291.58984375 561.774478071 247.438476562 561.774478071 193 c 0
 561.774478071 138.561523438 575.026994687 94.41015625 600.007810601 62.009765625 c 0
822.041015625 193 m 0
 822.041015625 129.330078125 800.58711621 87 742.935158906 87 c 0
 684.484069369 87 662.592077441 128.95703125 662.592077441 193 c 0
 662.592077441 257.072265625 684.467721296 299 742.935158906 299 c 0
 800.561151624 299 822.041015625 256.639648438 822.041015625 193 c 0
EndSplineSet
EndChar

StartChar: ampersand
Encoding: 38 38 7
Width: 663
GlyphClass: 2
Flags: HMW
LayerCount: 2
Fore
SplineSet
519.183673469 304 m 1
 519.183673469 299 l 2
 519.183673469 257.348544449 511.384145002 220.479075327 496.70096693 189.646393935 c 2
 493.634778213 183.207813723 l 1
 324.338093505 354.650186031 l 1
 340.605304182 362.947789751 356.872514858 371.245393471 373.139725534 379.542997192 c 0
 464.778450174 425.80349983 508.714285714 476.250108773 508.714285714 541 c 0
 508.714285714 637.440772787 430.386116872 699 312.962604036 699 c 0
 191.001988054 699 103.979591837 629.441202589 103.979591837 527 c 0
 103.979591837 472.038378721 120.585808595 424.969950483 158.301449597 376.349058132 c 2
 161.567109249 372.139152582 l 1
 157.147673595 369.14566134 l 2
 77.3715979473 315.109580155 47.9795918367 266.088101641 47.9795918367 192 c 0
 47.9795918367 69.5492425611 148.343249789 -10 298.287469287 -10 c 0
 372.422800507 -10 438.569134741 10.5111961644 492.705568338 46.2396799608 c 2
 496.121658194 48.4942006773 l 1
 549.099773819 -5 l 1
 676.005461245 -5 l 1
 560.689521089 113.482902327 l 1
 562.968966367 116.849557072 l 2
 596.716563642 166.693486035 616.183673469 229.209611843 616.183673469 299 c 2
 616.183673469 304 l 1
 519.183673469 304 l 1
409.714285714 541 m 0
 409.714285714 507.179693744 383.437069821 478.411490021 319.915681383 449.545518492 c 2
 255.676579043 420.011863391 l 1
 253.211582092 422.610733745 l 2
 215.39537217 462.480733103 202.979591837 492.081327178 202.979591837 527 c 0
 202.979591837 577.326979549 245.239067476 611 313.571428571 611 c 0
 365.653785419 611 409.714285714 592.418746815 409.714285714 541 c 0
146.964048028 190.012767256 m 0
 146.964048028 190.653127882 146.969740061 191.209615203 146.979591837 191.920570192 c 0
 146.979591837 238.124848146 166.05226111 268.906799655 221.830740647 304.673187077 c 2
 225.074451539 306.753125817 l 1
 435.725899364 112.56498377 l 1
 429.877482406 109.153010814 l 2
 395.990993788 89.3835956726 353.164594912 79 303.663842896 79 c 0
 204.443523615 79 146.964048028 122.05246223 146.964048028 190.012767256 c 0
EndSplineSet
Substitution2: "'smcp' Lowercase to Small Capitals in Latin lookup 21 subtable" ampersand.sc
Substitution2: "'c2sc' Capitals to Small Capitals in Latin lookup 20 subtable" ampersand.sc
Substitution2: "'aalt' Access All Alternates in Latin lookup 0 subtable" ampersand.sc
EndChar

StartChar: quotesingle
Encoding: 39 39 8
Width: 182
GlyphClass: 2
Flags: HMW
LayerCount: 2
Fore
SplineSet
140.32067045 539 m 1
 144.94705962 751 l 1
 59.9100832372 751 l 1
 64.5364724068 539 l 1
 140.32067045 539 l 1
EndSplineSet
EndChar

StartChar: parenleft
Encoding: 40 40 9
Width: 314
GlyphClass: 2
Flags: HMW
LayerCount: 2
Fore
SplineSet
54 311 m 0
 54 86.0392518828 127.906088163 -68.8978607153 190.95845377 -147 c 1
 309.353153117 -147 l 1
 301.813453452 -138.650954044 l 2
 259.204267208 -91.4679003493 155 61.4533996553 155 311 c 0
 155 559.559461258 258.015851278 712.479567969 301.802046808 760.63836571 c 2
 309.404482316 769 l 1
 190.964501988 769 l 1
 126.842836682 689.892173507 54 534.946872033 54 311 c 0
EndSplineSet
Substitution2: "'case' Case-Sensitive Forms in Latin lookup 22 subtable" parenleft.case
Substitution2: "'aalt' Access All Alternates in Latin lookup 0 subtable" parenleft.case
EndChar

StartChar: parenright
Encoding: 41 41 10
Width: 314
GlyphClass: 2
Flags: HMW
LayerCount: 2
Fore
SplineSet
274.204081633 311 m 0
 274.204081633 534.937217286 201.356827135 689.89762383 137.239579645 769 c 1
 18.7995993164 769 l 1
 26.4020348247 760.63836571 l 2
 70.1882303551 712.479567969 173.204081633 559.559461258 173.204081633 311 c 0
 173.204081633 61.4533996553 68.999814425 -91.4679003493 26.3906281803 -138.650954044 c 2
 18.8509285159 -147 l 1
 137.245627863 -147 l 1
 200.302481592 -68.8923013359 274.204081633 86.029508527 274.204081633 311 c 0
EndSplineSet
Substitution2: "'case' Case-Sensitive Forms in Latin lookup 22 subtable" parenright.case
Substitution2: "'aalt' Access All Alternates in Latin lookup 0 subtable" parenright.case
EndChar

StartChar: asterisk
Encoding: 42 42 11
Width: 409
GlyphClass: 2
Flags: HMW
LayerCount: 2
Fore
SplineSet
256.009634099 751 m 1
 170.560971463 751 l 1
 174.881719661 656.903705899 l 1
 71.6903203417 689.165982136 l 1
 40.1842681764 608.39254405 l 1
 144.419362206 585.048329505 l 1
 73.9847908242 510.952752153 l 1
 155.496373893 461.308974442 l 1
 213.165586834 542.324756491 l 1
 269.77422002 461.287336158 l 1
 351.357300936 510.974658886 l 1
 280.890053582 584.12921652 l 1
 385.102979153 608.440935016 l 1
 353.615333546 689.167183408 l 1
 250.610323897 656.932017819 l 1
 256.009634099 751 l 1
EndSplineSet
EndChar

StartChar: plus
Encoding: 43 43 12
Width: 527
GlyphClass: 2
Flags: HMW
LayerCount: 2
Fore
SplineSet
505.612244898 355 m 1
 505.612244898 438 l 1
 317.775510204 438 l 1
 317.775510204 653 l 1
 223.775510204 653 l 1
 223.775510204 438 l 1
 35.9387755102 438 l 1
 35.9387755102 355 l 1
 223.775510204 355 l 1
 223.775510204 140 l 1
 317.775510204 140 l 1
 317.775510204 355 l 1
 505.612244898 355 l 1
EndSplineSet
EndChar

StartChar: comma
Encoding: 44 44 13
Width: 246
GlyphClass: 2
Flags: HMW
LayerCount: 2
Fore
SplineSet
131.670976788 111 m 0
 89.5589181165 111 56.4081632653 85.2100581097 56.4081632653 44 c 0
 56.4081632653 5.82046729752 87.1604022308 -22 134.857142857 -22 c 0
 138.625076154 -22 141.963598587 -21.8066487083 145.58659846 -21.6685923901 c 1
 143.946542396 -28.1484129785 l 2
 135.845706376 -60.154613959 98.1818949055 -90 61.4081632653 -90 c 2
 56.4081632653 -90 l 1
 56.4081632653 -149.799217844 l 1
 59.4907712616 -149.95669852 62.5124690842 -150.094151707 65.5655357528 -150.094151707 c 0
 133.705736303 -150.094151707 212.510204082 -79.5591531957 212.510204082 18 c 0
 212.510204082 76.050450134 183.181455574 111 131.670976788 111 c 0
EndSplineSet
EndChar

StartChar: hyphen
Encoding: 45 45 14
Width: 439
GlyphClass: 2
Flags: HMW
LayerCount: 2
Fore
SplineSet
59 322 m 1
 59 246 l 1
 380 246 l 1
 380 322 l 1
 59 322 l 1
EndSplineSet
Substitution2: "'case' Case-Sensitive Forms in Latin lookup 22 subtable" hyphen.case
Substitution2: "'aalt' Access All Alternates in Latin lookup 0 subtable" hyphen.case
EndChar

StartChar: period
Encoding: 46 46 15
Width: 221
GlyphClass: 2
Flags: HMW
LayerCount: 2
Fore
SplineSet
110 121 m 0
 70.4710005739 121 43 93.6255051594 43 55 c 0
 43 16.3024238001 70.5865452309 -10 110 -10 c 0
 149.413454769 -10 177 16.3024238001 177 55 c 0
 177 93.6255051594 149.528999426 121 110 121 c 0
EndSplineSet
EndChar

StartChar: slash
Encoding: 47 47 16
Width: 421
GlyphClass: 2
Flags: HMW
LayerCount: 2
Fore
SplineSet
407.363416352 711 m 1
 308.612213482 711 l 1
 14.6177231235 -25 l 1
 115.396474203 -25 l 1
 407.363416352 711 l 1
EndSplineSet
Substitution2: "'frac' Diagonal Fractions in Latin lookup 14 subtable" fraction
Substitution2: "'aalt' Access All Alternates in Latin lookup 0 subtable" fraction
EndChar

StartChar: zero
Encoding: 48 48 17
Width: 705
GlyphClass: 2
Flags: HW
LayerCount: 2
Fore
SplineSet
602.935546875 113.514648438 m 0
 643.581054688 170.64453125 665.18359375 249.323242188 665.18359375 348.041992188 c 0
 665.18359375 446.76171875 643.581054688 526.002929688 602.950195312 583.763671875 c 0
 552.153320312 655.977539062 469.53177827 694 363.877564971 694 c 0
 258.226202978 694 175.231445312 655.983398438 124.122070312 583.775390625 c 0
 83.240234375 526.015625 61.408203125 446.768554688 61.408203125 348.041992188 c 0
 61.408203125 249.31640625 83.2392578125 170.631835938 124.13671875 113.50390625 c 0
 175.266601562 42.08203125 258.271823883 5 363.877564971 5 c 0
 469.48520693 5 552.118164062 42.0869140625 602.935546875 113.514648438 c 0
160.408203125 343.057617188 m 0
 160.408203125 489.7265625 217.190199295 601 363.914631956 601 c 0
 510.653321149 601 566.18359375 489.6640625 566.18359375 343.057617188 c 0
 566.18359375 195.916992188 511.175110246 88 363.914631956 88 c 0
 216.583821439 88 160.408203125 195.704101562 160.408203125 343.057617188 c 0
EndSplineSet
Substitution2: "'smcp' Lowercase to Small Capitals in Latin lookup 21 subtable" zero.sc
Substitution2: "'c2sc' Capitals to Small Capitals in Latin lookup 20 subtable" zero.sc
Substitution2: "'tnum' Tabular Numbers in Latin lookup 19 subtable" zero.tf
Substitution2: "'frac' Diagonal Fractions in Latin lookup 15 subtable" zero.numr
Substitution2: "'dnom' Denominators in Latin lookup 13 subtable" zero.dnom
Substitution2: "'numr' Numerators in Latin lookup 12 subtable" zero.numr
Substitution2: "'sups' Superscript in Latin lookup 11 subtable" zero.sups
Substitution2: "'sinf' Scientific Inferiors in Latin lookup 10 subtable" zero.sinf
AlternateSubs2: "'aalt' Access All Alternates in Latin lookup 1 subtable" zero.sinf zero.sups zero.numr zero.dnom zero.tf zero.sc
EndChar

StartChar: one
Encoding: 49 49 18
Width: 462
GlyphClass: 2
Flags: HW
LayerCount: 2
Fore
SplineSet
209.053422766 530.888671875 m 2
 215.436978547 533.490234375 l 1
 215.436978547 68 l 1
 54.18359375 68 l 1
 54.18359375 -20 l 1
 452.3671875 -20 l 1
 452.3671875 68 l 1
 320.453359869 68 l 1
 320.453359869 676 l 1
 242.302104163 676 l 1
 240.581758842 673.456054688 l 2
 203.377109856 618.448242188 146.327148438 595 59.18359375 595 c 2
 54.18359375 595 l 1
 54.18359375 509 l 1
 59.18359375 509 l 2
 127.721679688 509 168.689453125 514.567382812 209.053422766 530.888671875 c 2
EndSplineSet
Substitution2: "'smcp' Lowercase to Small Capitals in Latin lookup 21 subtable" one.sc
Substitution2: "'c2sc' Capitals to Small Capitals in Latin lookup 20 subtable" one.sc
Substitution2: "'tnum' Tabular Numbers in Latin lookup 19 subtable" one.tf
Substitution2: "'frac' Diagonal Fractions in Latin lookup 15 subtable" one.numr
Substitution2: "'dnom' Denominators in Latin lookup 13 subtable" one.dnom
Substitution2: "'numr' Numerators in Latin lookup 12 subtable" one.numr
Substitution2: "'sups' Superscript in Latin lookup 11 subtable" one.sups
Substitution2: "'sinf' Scientific Inferiors in Latin lookup 10 subtable" one.sinf
AlternateSubs2: "'aalt' Access All Alternates in Latin lookup 1 subtable" one.sinf one.sups one.numr one.dnom one.tf one.sc
EndChar

StartChar: two
Encoding: 50 50 19
Width: 616
GlyphClass: 2
Flags: HW
LayerCount: 2
Fore
SplineSet
153.387695312 465.803710938 m 2
 153.387695312 554.895507812 222.101304507 604.75 319.41650125 604.75 c 0
 406.548702917 604.75 471.83455881 572.818359375 471.83455881 485.07421875 c 0
 471.847784705 484.17578125 471.853452947 483.514648438 471.853452947 482.775390625 c 0
 471.853452947 414.620117188 419.241784078 364.518554688 342.242508023 298.108398438 c 1
 62.3876953125 52.20703125 l 1
 62.3876953125 -20 l 1
 591.938476562 -20 l 1
 591.938476562 69.25 l 1
 223.753596777 69.25 l 1
 437.107135211 256.243164062 l 1
 515.58203125 326.741210938 571.487304688 401.962890625 571.487304688 482.646484375 c 0
 571.487304688 483.456054688 571.481445312 484.264648438 571.470703125 485.075195312 c 0
 571.4296875 618.33984375 462.144700707 694 317.731144239 694 c 0
 171.322265625 694 55.3798828125 606.951171875 55.3798828125 467.817382812 c 0
 55.3798828125 465.4609375 55.3994140625 463.102539062 55.4228515625 460.733398438 c 1
 153.387695312 460.733398438 l 1
 153.387695312 465.803710938 l 2
EndSplineSet
Substitution2: "'smcp' Lowercase to Small Capitals in Latin lookup 21 subtable" two.sc
Substitution2: "'c2sc' Capitals to Small Capitals in Latin lookup 20 subtable" two.sc
Substitution2: "'tnum' Tabular Numbers in Latin lookup 19 subtable" two.tf
Substitution2: "'frac' Diagonal Fractions in Latin lookup 15 subtable" two.numr
Substitution2: "'dnom' Denominators in Latin lookup 13 subtable" two.dnom
Substitution2: "'numr' Numerators in Latin lookup 12 subtable" two.numr
Substitution2: "'sups' Superscript in Latin lookup 11 subtable" two.sups
Substitution2: "'sinf' Scientific Inferiors in Latin lookup 10 subtable" two.sinf
AlternateSubs2: "'aalt' Access All Alternates in Latin lookup 1 subtable" two.sinf two.sups two.numr two.dnom two.tf two.sc
EndChar

StartChar: three
Encoding: 51 51 20
Width: 657
GlyphClass: 2
Flags: HW
LayerCount: 2
Fore
SplineSet
164.340820312 214 m 1
 49.3671875 214 l 1
 49.3671875 209 l 2
 49.3671875 77.15625 165.517578125 5 329.23646545 5 c 0
 489.219452478 5 616.265625 75.955078125 616.265625 201.2421875 c 0
 615.327148438 274.241210938 581.364257812 325.840820312 526.7734375 356.981445312 c 2
 519.72265625 361.00390625 l 1
 526.483398438 365.495117188 l 2
 572.010742188 395.748046875 599.3359375 441.084960938 600.265625 501.579101562 c 0
 600.265625 621.772460938 489.466769722 694 339.244759449 694 c 0
 187.456406629 694 66.2158203125 617.435546875 66.2158203125 481.955078125 c 0
 66.2158203125 479.625976562 66.236328125 477.294921875 66.2607421875 474.952148438 c 1
 181.855286971 476.047851562 l 1
 181.916879388 480.940429688 l 2
 183.094715919 573.1015625 253.915572307 606 343.848081949 606 c 0
 435.451167459 606 500.911132812 573.962890625 500.959960938 501.174804688 c 0
 499.689453125 429.948242188 421.422309984 400 316.573064485 400 c 2
 255.335988204 400 l 1
 255.335988204 312 l 1
 328.106007702 312 l 2
 379.874908103 312 423.042664343 305.959960938 454.742860086 292.149414062 c 0
 494.032189197 275.032226562 516.603515625 245.979492188 517.264648438 199.169921875 c 0
 517.223632812 128.30859375 449.15216376 93 343.384717457 93 c 0
 243.404115639 93 165.618164062 126.211914062 164.412109375 209.065429688 c 2
 164.340820312 214 l 1
EndSplineSet
Substitution2: "'smcp' Lowercase to Small Capitals in Latin lookup 21 subtable" three.sc
Substitution2: "'c2sc' Capitals to Small Capitals in Latin lookup 20 subtable" three.sc
Substitution2: "'tnum' Tabular Numbers in Latin lookup 19 subtable" three.tf
Substitution2: "'frac' Diagonal Fractions in Latin lookup 15 subtable" three.numr
Substitution2: "'dnom' Denominators in Latin lookup 13 subtable" three.dnom
Substitution2: "'numr' Numerators in Latin lookup 12 subtable" three.numr
Substitution2: "'sups' Superscript in Latin lookup 11 subtable" three.sups
Substitution2: "'sinf' Scientific Inferiors in Latin lookup 10 subtable" three.sinf
AlternateSubs2: "'aalt' Access All Alternates in Latin lookup 1 subtable" three.sinf three.sups three.numr three.dnom three.tf three.sc
EndChar

StartChar: four
Encoding: 52 52 21
Width: 681
GlyphClass: 2
Flags: HW
LayerCount: 2
Fore
SplineSet
649.836914062 255 m 1
 542.673828125 255 l 1
 542.673828125 681 l 1
 397.86165821 681 l 1
 26.490234375 250.014648438 l 1
 26.490234375 167 l 1
 442.000294671 167 l 1
 442.000294671 -5 l 1
 542.673828125 -5 l 1
 542.673828125 167 l 1
 649.836914062 167 l 1
 649.836914062 255 l 1
156.453953139 255 m 1
 442.000294671 586.198242188 l 1
 442.000294671 255 l 1
 156.453953139 255 l 1
EndSplineSet
Substitution2: "'smcp' Lowercase to Small Capitals in Latin lookup 21 subtable" four.sc
Substitution2: "'c2sc' Capitals to Small Capitals in Latin lookup 20 subtable" four.sc
Substitution2: "'tnum' Tabular Numbers in Latin lookup 19 subtable" four.tf
Substitution2: "'frac' Diagonal Fractions in Latin lookup 15 subtable" four.numr
Substitution2: "'dnom' Denominators in Latin lookup 13 subtable" four.dnom
Substitution2: "'numr' Numerators in Latin lookup 12 subtable" four.numr
Substitution2: "'sups' Superscript in Latin lookup 11 subtable" four.sups
Substitution2: "'sinf' Scientific Inferiors in Latin lookup 10 subtable" four.sinf
AlternateSubs2: "'aalt' Access All Alternates in Latin lookup 1 subtable" four.sinf four.sups four.numr four.dnom four.tf four.sc
EndChar

StartChar: five
Encoding: 53 53 22
Width: 650
GlyphClass: 2
Flags: HW
LayerCount: 2
Fore
SplineSet
188.372277747 316.435546875 m 1
 229.336625179 341.470703125 281.544414909 361 347.551060901 361 c 0
 444.238787972 361 519.326171875 322.171875 519.326171875 223.0546875 c 0
 519.326171875 135.543945312 443.534532566 88 338.874406813 88 c 0
 244.677639645 88 164.4296875 126.916992188 163.205078125 214.063476562 c 2
 163.13671875 219 l 1
 48.1630859375 219 l 1
 48.1630859375 214 l 2
 48.1630859375 79.2021484375 173.276757426 0 328.445170967 0 c 0
 491.086464214 0 618.326171875 84.5849609375 618.326171875 223.032226562 c 0
 618.326171875 368.86328125 506.97265625 449 351.753844846 449 c 0
 300.349835175 449 252.624446273 440.147460938 208.718908363 422.42578125 c 2
 201.304795595 419.43359375 l 1
 218.703600756 593 l 1
 584.326171875 593 l 1
 584.326171875 681 l 1
 111.184570312 681 l 1
 81.5693359375 354.614257812 l 1
 188.372277747 316.435546875 l 1
EndSplineSet
Substitution2: "'smcp' Lowercase to Small Capitals in Latin lookup 21 subtable" five.sc
Substitution2: "'c2sc' Capitals to Small Capitals in Latin lookup 20 subtable" five.sc
Substitution2: "'tnum' Tabular Numbers in Latin lookup 19 subtable" five.tf
Substitution2: "'frac' Diagonal Fractions in Latin lookup 15 subtable" five.numr
Substitution2: "'dnom' Denominators in Latin lookup 13 subtable" five.dnom
Substitution2: "'numr' Numerators in Latin lookup 12 subtable" five.numr
Substitution2: "'sups' Superscript in Latin lookup 11 subtable" five.sups
Substitution2: "'sinf' Scientific Inferiors in Latin lookup 10 subtable" five.sinf
AlternateSubs2: "'aalt' Access All Alternates in Latin lookup 1 subtable" five.sinf five.sups five.numr five.dnom five.tf five.sc
EndChar

StartChar: six
Encoding: 54 54 23
Width: 661
GlyphClass: 2
Flags: HW
LayerCount: 2
Fore
SplineSet
157.0703125 371.546875 m 2
 162.70703125 507.346679688 224.051503981 604 365.528704459 604 c 0
 447.047710878 604 514.13671875 574.333007812 515.364257812 507.046875 c 2
 515.438476562 503 l 1
 614.430664062 503 l 1
 614.45703125 505.09765625 614.478515625 507.18359375 614.478515625 509.263671875 c 0
 614.478515625 617.137695312 509.563476562 692 361.136967811 692 c 0
 257.064366458 692 175.020507812 655.186523438 124.573242188 583.541015625 c 0
 84.21875 526.23046875 62.6123046875 447.040039062 62.6123046875 347.041992188 c 0
 62.6123046875 246.196289062 83.921875 167.48046875 123.826171875 110.954101562 c 0
 173.71875 40.2763671875 254.869445446 5 357.933159929 5 c 0
 515.044921875 5 626.469726562 93.8056640625 626.469726562 224.966796875 c 0
 626.469726562 357.27734375 509.895507812 442 354.990810052 442 c 0
 278.630862689 442 210.493580145 412.590820312 165.563476562 367.763671875 c 2
 156.547851562 358.9375 l 1
 157.0703125 371.546875 l 2
191.955639148 166.940429688 m 0
 180.46484375 188.15234375 177.236328125 208.877929688 177.236328125 226.633789062 c 0
 177.236328125 308.198242188 272.431655479 349 363.047695339 349 c 0
 462.449103118 349 527.469726562 300.858398438 527.469726562 220.904296875 c 0
 527.469726562 137.189453125 455.02502199 88 359.328549938 88 c 0
 277.612502702 88 221.867003397 111.412109375 191.955639148 166.940429688 c 0
EndSplineSet
Substitution2: "'smcp' Lowercase to Small Capitals in Latin lookup 21 subtable" six.sc
Substitution2: "'c2sc' Capitals to Small Capitals in Latin lookup 20 subtable" six.sc
Substitution2: "'tnum' Tabular Numbers in Latin lookup 19 subtable" six.tf
Substitution2: "'frac' Diagonal Fractions in Latin lookup 15 subtable" six.numr
Substitution2: "'dnom' Denominators in Latin lookup 13 subtable" six.dnom
Substitution2: "'numr' Numerators in Latin lookup 12 subtable" six.numr
Substitution2: "'sups' Superscript in Latin lookup 11 subtable" six.sups
Substitution2: "'sinf' Scientific Inferiors in Latin lookup 10 subtable" six.sinf
AlternateSubs2: "'aalt' Access All Alternates in Latin lookup 1 subtable" six.sinf six.sups six.numr six.dnom six.tf six.sc
EndChar

StartChar: seven
Encoding: 55 55 24
Width: 504
GlyphClass: 2
Flags: HW
LayerCount: 2
Fore
SplineSet
17 588 m 1
 374.899414062 588 l 1
 102.625 -20 l 1
 213.118444258 -20 l 1
 484 602.0234375 l 1
 484 676 l 1
 17 676 l 1
 17 588 l 1
EndSplineSet
Substitution2: "'smcp' Lowercase to Small Capitals in Latin lookup 21 subtable" seven.sc
Substitution2: "'c2sc' Capitals to Small Capitals in Latin lookup 20 subtable" seven.sc
Substitution2: "'tnum' Tabular Numbers in Latin lookup 19 subtable" seven.tf
Substitution2: "'frac' Diagonal Fractions in Latin lookup 15 subtable" seven.numr
Substitution2: "'dnom' Denominators in Latin lookup 13 subtable" seven.dnom
Substitution2: "'numr' Numerators in Latin lookup 12 subtable" seven.numr
Substitution2: "'sups' Superscript in Latin lookup 11 subtable" seven.sups
Substitution2: "'sinf' Scientific Inferiors in Latin lookup 10 subtable" seven.sinf
AlternateSubs2: "'aalt' Access All Alternates in Latin lookup 1 subtable" seven.sinf seven.sups seven.numr seven.dnom seven.tf seven.sc
EndChar

StartChar: eight
Encoding: 56 56 25
Width: 649
GlyphClass: 2
Flags: HW
LayerCount: 2
Fore
SplineSet
334.713882265 694 m 0
 202.617301792 694 82.7958984375 627.694335938 82.7958984375 506.5078125 c 0
 82.7958984375 450.248046875 110.84375 404.647460938 153.479492188 373.6015625 c 2
 159.796875 369.001953125 l 1
 152.975585938 365.188476562 l 2
 95.662109375 333.15625 57.7958984375 279.760742188 57.7958984375 207.075195312 c 0
 57.7958984375 71.3125 181.435777848 5 334.713882265 5 c 0
 487.992933089 5 611.6328125 71.3125 611.6328125 207.075195312 c 0
 611.6328125 279.760742188 573.766601562 333.15625 516.453125 365.188476562 c 2
 509.631835938 369.001953125 l 1
 515.94921875 373.6015625 l 2
 558.584960938 404.647460938 586.6328125 450.248046875 586.6328125 506.5078125 c 0
 586.6328125 627.694335938 466.811409145 694 334.713882265 694 c 0
182.520359701 502.659179688 m 2
 182.520359701 559.34765625 245.451660119 601 334.713882265 601 c 0
 425.179933483 601 486.908351237 559.391601562 486.908351237 502.689453125 c 0
 486.908351237 502.170898438 486.903619204 501.651367188 486.894155139 501.129882812 c 2
 486.894155139 500.872070312 l 2
 486.903619204 500.340820312 486.908351237 499.8125 486.908351237 499.28515625 c 0
 486.908351237 441.68359375 425.219682557 401 334.713882265 401 c 0
 245.41096464 401 182.520359701 441.7265625 182.520359701 499.315429688 c 0
 182.520359701 499.833007812 182.525091733 500.352539062 182.534555798 500.873046875 c 2
 182.534555798 501.12890625 l 2
 182.525091733 501.640625 182.520359701 502.659179688 182.520359701 502.659179688 c 2
334.713882265 88 m 0
 229.547298836 88 156.782226562 130.209960938 156.782226562 201.2578125 c 0
 156.782226562 201.813476562 156.78515625 202.290039062 156.794921875 202.85546875 c 2
 156.794921875 203.060546875 l 2
 156.786132812 203.633789062 156.782226562 204.201171875 156.782226562 204.763671875 c 0
 156.782226562 276.7265625 229.511335389 318 334.713882265 318 c 0
 441.090919612 318 512.646484375 276.760742188 512.646484375 204.791015625 c 0
 512.646484375 204.219726562 512.642578125 203.723632812 512.633789062 203.142578125 c 2
 512.633789062 202.9375 l 2
 512.642578125 202.36328125 512.646484375 201.794921875 512.646484375 201.23046875 c 0
 512.646484375 130.174804688 441.054956165 88 334.713882265 88 c 0
EndSplineSet
Substitution2: "'smcp' Lowercase to Small Capitals in Latin lookup 21 subtable" eight.sc
Substitution2: "'c2sc' Capitals to Small Capitals in Latin lookup 20 subtable" eight.sc
Substitution2: "'tnum' Tabular Numbers in Latin lookup 19 subtable" eight.tf
Substitution2: "'frac' Diagonal Fractions in Latin lookup 15 subtable" eight.numr
Substitution2: "'dnom' Denominators in Latin lookup 13 subtable" eight.dnom
Substitution2: "'numr' Numerators in Latin lookup 12 subtable" eight.numr
Substitution2: "'sups' Superscript in Latin lookup 11 subtable" eight.sups
Substitution2: "'sinf' Scientific Inferiors in Latin lookup 10 subtable" eight.sinf
AlternateSubs2: "'aalt' Access All Alternates in Latin lookup 1 subtable" eight.sinf eight.sups eight.numr eight.dnom eight.tf eight.sc
EndChar

StartChar: nine
Encoding: 57 57 26
Width: 661
GlyphClass: 2
Flags: HW
LayerCount: 2
Fore
SplineSet
323.924261946 692 m 0
 166.811523438 692 55.3876953125 603.194335938 55.3876953125 472.033203125 c 0
 55.3876953125 339.72265625 171.961914062 255 326.866611823 255 c 0
 403.226559186 255 471.362894418 284.409179688 516.293945312 329.236328125 c 2
 525.309570312 338.0625 l 1
 524.787109375 325.453125 l 2
 519.150390625 189.653320312 457.804970582 93 316.327770104 93 c 0
 234.470573438 93 167.706054688 125.9140625 166.4921875 199.075195312 c 2
 166.411132812 204 l 1
 67.4296875 204 l 1
 67.4013671875 201.712890625 67.3779296875 199.439453125 67.3779296875 197.169921875 c 0
 67.3779296875 83.4794921875 172.494140625 5 320.720454064 5 c 0
 424.793055417 5 506.8359375 41.8134765625 557.283203125 113.458984375 c 0
 597.637695312 170.76953125 619.245117188 249.959960938 619.245117188 349.958007812 c 0
 619.245117188 455.090820312 597.956054688 534.305664062 558.012695312 590.073242188 c 0
 508.053710938 659.823242188 426.832617325 692 323.924261946 692 c 0
318.808779225 338 m 0
 219.407371446 338 154.387695312 386.141601562 154.387695312 466.095703125 c 0
 154.387695312 549.810546875 226.832399885 599 322.528871937 599 c 0
 404.244919173 599 459.942105586 575.561523438 489.904624662 520.053710938 c 0
 501.33984375 498.984375 504.62109375 478.40234375 504.62109375 460.712890625 c 0
 504.62109375 379.439453125 409.393557801 338 318.808779225 338 c 0
EndSplineSet
Substitution2: "'smcp' Lowercase to Small Capitals in Latin lookup 21 subtable" nine.sc
Substitution2: "'c2sc' Capitals to Small Capitals in Latin lookup 20 subtable" nine.sc
Substitution2: "'tnum' Tabular Numbers in Latin lookup 19 subtable" nine.tf
Substitution2: "'frac' Diagonal Fractions in Latin lookup 15 subtable" nine.numr
Substitution2: "'dnom' Denominators in Latin lookup 13 subtable" nine.dnom
Substitution2: "'numr' Numerators in Latin lookup 12 subtable" nine.numr
Substitution2: "'sups' Superscript in Latin lookup 11 subtable" nine.sups
Substitution2: "'sinf' Scientific Inferiors in Latin lookup 10 subtable" nine.sinf
AlternateSubs2: "'aalt' Access All Alternates in Latin lookup 1 subtable" nine.sinf nine.sups nine.numr nine.dnom nine.tf nine.sc
EndChar

StartChar: colon
Encoding: 58 58 27
Width: 254
GlyphClass: 2
Flags: HMW
LayerCount: 2
Fore
SplineSet
137.857142857 565 m 0
 98.328143431 565 70.8571428571 537.625505159 70.8571428571 499 c 0
 70.8571428571 460.3024238 98.443688088 434 137.857142857 434 c 0
 177.270597626 434 204.857142857 460.3024238 204.857142857 499 c 0
 204.857142857 537.625505159 177.386142283 565 137.857142857 565 c 0
140.06122449 121 m 0
 100.423783765 121 72.8571428571 93.6389832006 72.8571428571 55 c 0
 72.8571428571 16.2889862516 100.53923907 -10 140.06122449 -10 c 0
 179.583209909 -10 207.265306122 16.2889862516 207.265306122 55 c 0
 207.265306122 93.6389832006 179.698665215 121 140.06122449 121 c 0
EndSplineSet
EndChar

StartChar: semicolon
Encoding: 59 59 28
Width: 270
GlyphClass: 2
Flags: HMW
LayerCount: 2
Fore
SplineSet
154.714285714 465 m 0
 115.185286288 465 87.7142857143 437.625505159 87.7142857143 399 c 0
 87.7142857143 360.3024238 115.300830945 334 154.714285714 334 c 0
 194.127740483 334 221.714285714 360.3024238 221.714285714 399 c 0
 221.714285714 437.625505159 194.24328514 465 154.714285714 465 c 0
75.6734693878 44 m 0
 75.6734693878 6.47060777829 101.728648811 -22 143.355763927 -22 c 0
 146.20698088 -22 148.93393891 -21.8804470728 151.738820523 -21.8066361536 c 1
 150.452736838 -27.9924629683 l 2
 143.695478991 -60.4936347698 111.179856949 -90 80.6734693878 -90 c 2
 75.6734693878 -90 l 1
 75.6734693878 -149.781580055 l 1
 78.6375599861 -149.949063216 84.3551696231 -150.094145586 84.4591812534 -150.094151707 c 0
 147.199921127 -150.0978437 218.714285714 -79.153083902 218.714285714 18 c 0
 218.714285714 48.0951567184 211.718857217 69.8948071268 200.258486833 84.8895362761 c 0
 185.884016086 103.69706939 164.987054536 111 144.654930675 111 c 0
 105.753432213 111 75.6734693878 84.8247354749 75.6734693878 44 c 0
EndSplineSet
EndChar

StartChar: less
Encoding: 60 60 29
Width: 499
GlyphClass: 2
Flags: HMW
LayerCount: 2
Fore
SplineSet
434 485.739321853 m 1
 434 581.76571388 l 1
 28 397.220259335 l 1
 28 303.779740665 l 1
 434 119.23428612 l 1
 434 215.251155179 l 1
 128.358136574 350.983484304 l 1
 434 485.739321853 l 1
EndSplineSet
EndChar

StartChar: equal
Encoding: 61 61 30
Width: 532
GlyphClass: 2
Flags: HMW
LayerCount: 2
Fore
SplineSet
63 588 m 1
 63 505 l 1
 469 505 l 1
 469 588 l 1
 63 588 l 1
63 288 m 1
 63 205 l 1
 469 205 l 1
 469 288 l 1
 63 288 l 1
EndSplineSet
EndChar

StartChar: greater
Encoding: 62 62 31
Width: 499
GlyphClass: 2
Flags: HMW
LayerCount: 2
Fore
SplineSet
471 303.779740665 m 1
 471 397.220259335 l 1
 65 581.76571388 l 1
 65 485.739321853 l 1
 370.641863426 350.983484304 l 1
 65 215.251155179 l 1
 65 119.23428612 l 1
 471 303.779740665 l 1
EndSplineSet
EndChar

StartChar: question
Encoding: 63 63 32
Width: 476
GlyphClass: 2
Flags: HMW
LayerCount: 2
Fore
SplineSet
251.036086979 720 m 0
 118.744078952 720 28.7142857143 642.957136064 28.7142857143 516 c 2
 28.7142857143 510.942192226 l 1
 125.649047108 512.056384885 l 1
 125.713836545 516.93235698 l 2
 126.303569311 561.314908222 141.821512234 591.569795219 167.018480285 609.909605415 c 0
 187.276634717 624.654661505 214.323429819 632 246.015329209 632 c 0
 311.020955546 632 356.510204082 602.402447442 356.510204082 542 c 0
 356.510204082 491.517435176 315.316656008 453.192501457 271.58837209 412.469395503 c 0
 224.998076393 369.080966364 175.040816327 322.138410361 175.040816327 252 c 2
 175.040816327 199 l 1
 266.040816327 199 l 1
 266.040816327 249 l 2
 266.040816327 296.912844941 307.365487426 334.072767516 352.069112251 374.190820603 c 0
 401.513173329 418.563049363 455.510204082 467.440475809 455.510204082 542 c 0
 455.510204082 644.90501384 382.310162082 720 251.036086979 720 c 0
220.040816327 111 m 0
 182.611098085 111 153.040816327 84.7921875201 153.040816327 45 c 0
 153.040816327 6.41778146848 179.556003412 -20 219.040816327 -20 c 0
 259.474198209 -20 287.040816327 7.27701895901 287.040816327 45 c 0
 287.040816327 82.6974660546 258.640659326 111 220.040816327 111 c 0
EndSplineSet
Substitution2: "'case' Case-Sensitive Forms in Latin lookup 22 subtable" question.case
Substitution2: "'aalt' Access All Alternates in Latin lookup 0 subtable" question.case
EndChar

StartChar: at
Encoding: 64 64 33
Width: 1007
GlyphClass: 2
Flags: HMW
LayerCount: 2
Fore
SplineSet
513.422118848 674 m 0
 241.745535843 674 47.9747040051 482.992736559 47.9747040051 237.128369602 c 2
 47.9747040051 234.964911225 l 1
 50.2938783386 -6.78226886058 246.017026607 -183.077229247 528.332886726 -183.077229247 c 0
 656.543526779 -183.077229247 792.624503011 -146.436994552 876.50938226 -89.1314785516 c 2
 880.868632385 -86.1534796556 l 1
 826.672282203 -15.2618978716 l 1
 822.785908735 -17.8210316823 l 2
 744.869646826 -69.128025689 632.404998415 -99 519.956152758 -99 c 0
 293.187812961 -99 136.979591837 37.0829571573 136.979591837 245 c 0
 136.979591837 452.873679734 296.114327848 590 523.851436015 590 c 0
 738.763248224 590 883.165473813 468.821592394 883.165473813 273.920024564 c 0
 883.165473813 168.289562514 837.382049364 104 767.734693878 104 c 0
 752.897373078 104 741.897407283 107.223378361 734.311510451 113.043291996 c 0
 724.985655377 120.19810471 719.755102041 132.080418849 719.755102041 150 c 2
 719.755102041 453 l 1
 621.755102041 453 l 1
 621.755102041 436.861501733 621.755102041 420.723003466 621.755102041 404.584505198 c 1
 613.34970419 412.410009345 l 2
 581.864637485 441.72290142 536.441118423 458 481.136528029 458 c 0
 349.146534776 458 259.428571429 371.751238126 259.428571429 245 c 0
 259.428571429 119.287437587 347.786735308 33 478.4163011 33 c 0
 542.681713042 33.0000000058 593.911913806 54.921047537 625.30184083 94.0881220547 c 2
 630.268259304 100.285017075 l 1
 633.71323458 93.128938592 l 2
 655.550341079 47.7677863542 705.515125588 18.8257679887 766.130828686 18.8257679887 c 0
 768.884577435 18.8257679887 771.66044229 18.8850275492 774.456987454 19.0046292463 c 0
 891.32987804 25.0978927643 972.18681104 129.479644265 972.18681104 271.279070158 c 0
 972.18681104 506.797244795 791.988901449 674 513.422118848 674 c 0
488.285714286 117 m 0
 410.158541632 117 358.428571429 167.680024224 358.428571429 245 c 0
 358.428571429 322.356767062 410.208977317 374 488.285714286 374 c 0
 563.076762176 374 621.755102041 320.785192858 621.755102041 255 c 2
 621.755102041 235 l 2
 621.755102041 169.253156226 563.130204963 117 488.285714286 117 c 0
EndSplineSet
EndChar

StartChar: A
Encoding: 65 65 34
Width: 653
GlyphClass: 2
Flags: HW
AnchorPoint: "Anchor-7" 0 0 basechar 0
AnchorPoint: "Anchor-6" 0 0 basechar 0
AnchorPoint: "Anchor-5" 0 0 basechar 0
AnchorPoint: "Anchor-4" 317 696 basechar 0
AnchorPoint: "Anchor-3" 620 0 basechar 0
LayerCount: 2
Fore
SplineSet
112.668945312 5 m 1
 177.565469909 169 l 1
 479.494100403 169 l 1
 544.391601562 5 l 1
 644.059570312 5 l 1
 383.937627681 681 l 1
 273.121942632 681 l 1
 13 5 l 1
 112.668945312 5 l 1
446.219019296 257 m 1
 210.861499701 257 l 1
 329.019698713 572.80859375 l 1
 446.219019296 257 l 1
EndSplineSet
Substitution2: "Single Substitution lookup 30 subtable" ordfeminine
Substitution2: "'c2sc' Capitals to Small Capitals in Latin lookup 20 subtable" a.sc
AlternateSubs2: "'aalt' Access All Alternates in Latin lookup 1 subtable" ordfeminine a.sc
EndChar

StartChar: B
Encoding: 66 66 35
Width: 698
GlyphClass: 2
Flags: HW
LayerCount: 2
Fore
SplineSet
424.843526894 5 m 2
 573.825195312 5 667.509765625 77.6533203125 667.509765625 194.333984375 c 0
 667.509765625 282.49609375 620.197265625 336.015625 566.608398438 358.181640625 c 2
 557.290039062 362.036132812 l 1
 566 367.124023438 l 2
 600.415039062 387.229492188 642.509765625 432.30078125 642.509765625 510.127929688 c 0
 642.509765625 608.186523438 563.168945312 681 424.344571902 681 c 2
 109.571289062 681 l 1
 109.571289062 5 l 1
 424.843526894 5 l 2
405.544288618 396 m 2
 207.571289062 396 l 1
 207.571289062 594 l 1
 406.784575223 594 l 2
 491.667518139 594 542.777740855 559.6015625 542.777740855 496.899414062 c 0
 542.777740855 428.337890625 484.264616643 396 405.544288618 396 c 2
417.389499081 314 m 2
 502.423927384 314 568.509765625 284.478515625 568.509765625 202.022460938 c 0
 568.509765625 122.103515625 506.141000062 91 424.730859638 91 c 2
 207.571289062 91 l 1
 207.571289062 314 l 1
 417.389499081 314 l 2
EndSplineSet
Substitution2: "'c2sc' Capitals to Small Capitals in Latin lookup 20 subtable" b.sc
Substitution2: "'aalt' Access All Alternates in Latin lookup 0 subtable" b.sc
EndChar

StartChar: C
Encoding: 67 67 36
Width: 812
GlyphClass: 2
Flags: HW
AnchorPoint: "Anchor-7" 10 0 basechar 0
AnchorPoint: "Anchor-6" 10 0 basechar 0
AnchorPoint: "Anchor-5" 414.102 0 basechar 0
AnchorPoint: "Anchor-4" 411.694 686 basechar 0
AnchorPoint: "Anchor-3" 10 0 basechar 0
LayerCount: 2
Fore
SplineSet
422.924102805 83.279296875 m 0
 272.340262152 83.279296875 158 177.383789062 158 343 c 0
 158 504.697265625 274.862351321 602.720703125 422.924102805 602.720703125 c 0
 560.408579717 602.720703125 646.85997919 543.924804688 663.361328125 431.571289062 c 2
 664.014648438 427.206054688 l 1
 782.708007812 427.206054688 l 1
 782.046875 432.87890625 l 2
 764.116210938 586.831054688 645.804643699 692 430.697036194 692 c 0
 216.005630809 692 59 554.62109375 59 343 c 0
 59 124.5 212.504749068 -6 430.697036194 -6 c 0
 650.634501866 -6 761.73046875 99.2509765625 782.03515625 249.985351562 c 2
 782.811523438 255.75 l 1
 664.03515625 255.75 l 1
 663.364257812 251.407226562 l 2
 646.603560413 140.737304688 559.811544952 83.279296875 422.924102805 83.279296875 c 0
EndSplineSet
Substitution2: "'c2sc' Capitals to Small Capitals in Latin lookup 20 subtable" c.sc
Substitution2: "'aalt' Access All Alternates in Latin lookup 0 subtable" c.sc
EndChar

StartChar: D
Encoding: 68 68 37
Width: 812
GlyphClass: 2
Flags: HW
AnchorPoint: "Anchor-7" 18.5714 0 basechar 0
AnchorPoint: "Anchor-6" 135.571 343 basechar 0
AnchorPoint: "Anchor-5" 389.02 0 basechar 0
AnchorPoint: "Anchor-4" 384.204 695 basechar 0
AnchorPoint: "Anchor-3" 18.5714 0 basechar 0
LayerCount: 2
Fore
SplineSet
109.571289062 681 m 1
 109.571289062 5 l 1
 403.876149473 5 l 2
 628.079348388 5 782.18359375 130.556640625 782.18359375 343 c 0
 782.18359375 555.443359375 628.079348388 681 403.876149473 681 c 2
 109.571289062 681 l 1
401.655985054 92 m 2
 207.571289062 92 l 1
 207.571289062 593 l 1
 401.655985054 593 l 2
 568.890872181 593 683.18359375 502.056640625 683.18359375 342.98046875 c 0
 683.18359375 183.88671875 568.863191714 92 401.655985054 92 c 2
EndSplineSet
Substitution2: "'c2sc' Capitals to Small Capitals in Latin lookup 20 subtable" d.sc
Substitution2: "'aalt' Access All Alternates in Latin lookup 0 subtable" d.sc
EndChar

StartChar: E
Encoding: 69 69 38
Width: 698
GlyphClass: 2
Flags: HW
AnchorPoint: "Anchor-7" 18.5714 0 basechar 0
AnchorPoint: "Anchor-6" 18.5714 0 basechar 0
AnchorPoint: "Anchor-5" 375.776 0 basechar 0
AnchorPoint: "Anchor-4" 367.347 696 basechar 0
AnchorPoint: "Anchor-3" 646.694 0 basechar 0
LayerCount: 2
Fore
SplineSet
666.694335938 5 m 1
 666.694335938 93 l 1
 207.571289062 93 l 1
 207.571289062 312 l 1
 622.142578125 312 l 1
 622.142578125 401 l 1
 207.571289062 401 l 1
 207.571289062 592 l 1
 660.673828125 592 l 1
 660.673828125 681 l 1
 109.571289062 681 l 1
 109.571289062 5 l 1
 666.694335938 5 l 1
EndSplineSet
Substitution2: "'c2sc' Capitals to Small Capitals in Latin lookup 20 subtable" e.sc
Substitution2: "'aalt' Access All Alternates in Latin lookup 0 subtable" e.sc
EndChar

StartChar: F
Encoding: 70 70 39
Width: 652
GlyphClass: 2
Flags: HW
LayerCount: 2
Fore
SplineSet
109.571289062 5 m 1
 207.571289062 5 l 1
 207.571289062 294 l 1
 589.6328125 294 l 1
 589.6328125 380 l 1
 207.571289062 380 l 1
 207.571289062 596 l 1
 642.612304688 596 l 1
 642.612304688 681 l 1
 109.571289062 681 l 1
 109.571289062 5 l 1
EndSplineSet
Substitution2: "'c2sc' Capitals to Small Capitals in Latin lookup 20 subtable" f.sc
Substitution2: "'aalt' Access All Alternates in Latin lookup 0 subtable" f.sc
EndChar

StartChar: G
Encoding: 71 71 40
Width: 830
GlyphClass: 2
Flags: HW
AnchorPoint: "Anchor-7" 10 0 basechar 0
AnchorPoint: "Anchor-6" 10 0 basechar 0
AnchorPoint: "Anchor-5" 418.918 0 basechar 0
AnchorPoint: "Anchor-4" 424.939 696 basechar 0
AnchorPoint: "Anchor-3" 10 0 basechar 0
LayerCount: 2
Fore
SplineSet
780.245117188 362.276367188 m 1
 431.173072817 362.276367188 l 1
 431.173072817 276.041015625 l 1
 696.224609375 276.041015625 l 1
 696.224609375 261.609375 l 1
 685.311523438 175.446289062 593.619788033 83.279296875 425.421493614 83.279296875 c 0
 269.929865026 83.279296875 158 178.2890625 158 346.90234375 c 0
 158 500.704101562 269.79210265 602.720703125 438.936556722 602.720703125 c 0
 594.137353627 602.720703125 657.765394417 530.388671875 672.216796875 451.694335938 c 2
 672.963867188 447.497070312 l 1
 777.904296875 447.497070312 l 1
 777.206054688 453.200195312 l 2
 760.725585938 587.952148438 649.281528087 692 439.254175533 692 c 0
 210.843199232 692 59 551.68359375 59 346.9453125 c 0
 59 126.54296875 209.647345272 -6 432.106795589 -6 c 0
 556.444036825 -6 641.578315222 36.2822265625 693.436523438 98.5498046875 c 2
 702.245117188 109.047851562 l 1
 702.245117188 0.0869140625 l 1
 780.245117188 0.0869140625 l 1
 780.245117188 362.276367188 l 1
EndSplineSet
Substitution2: "'c2sc' Capitals to Small Capitals in Latin lookup 20 subtable" g.sc
Substitution2: "'aalt' Access All Alternates in Latin lookup 0 subtable" g.sc
EndChar

StartChar: H
Encoding: 72 72 41
Width: 815
GlyphClass: 2
Flags: HW
AnchorPoint: "Anchor-7" 18.5714 0 basechar 0
AnchorPoint: "Anchor-6" 281.857 565 basechar 0
AnchorPoint: "Anchor-5" 18.5714 0 basechar 0
AnchorPoint: "Anchor-4" 417.918 696 basechar 0
AnchorPoint: "Anchor-3" 18.5714 0 basechar 0
LayerCount: 2
Fore
SplineSet
644.653320312 681 m 1
 644.653320312 400 l 1
 207.571289062 400 l 1
 207.571289062 681 l 1
 109.571289062 681 l 1
 109.571289062 5 l 1
 207.571289062 5 l 1
 207.571289062 311 l 1
 644.653320312 311 l 1
 644.653320312 5 l 1
 742.653320312 5 l 1
 742.653320312 681 l 1
 644.653320312 681 l 1
EndSplineSet
Substitution2: "'c2sc' Capitals to Small Capitals in Latin lookup 20 subtable" h.sc
Substitution2: "'aalt' Access All Alternates in Latin lookup 0 subtable" h.sc
EndChar

StartChar: I
Encoding: 73 73 42
Width: 280
GlyphClass: 2
Flags: HW
AnchorPoint: "Anchor-7" 0 0 basechar 0
AnchorPoint: "Anchor-6" 0 0 basechar 0
AnchorPoint: "Anchor-5" 135 0 basechar 0
AnchorPoint: "Anchor-4" 136 696 basechar 0
AnchorPoint: "Anchor-3" 179 0 basechar 0
LayerCount: 2
Fore
SplineSet
91 681 m 1
 91 5 l 1
 189 5 l 1
 189 681 l 1
 91 681 l 1
EndSplineSet
Substitution2: "'c2sc' Capitals to Small Capitals in Latin lookup 20 subtable" i.sc
Substitution2: "'aalt' Access All Alternates in Latin lookup 0 subtable" i.sc
EndChar

StartChar: J
Encoding: 74 74 43
Width: 520
GlyphClass: 2
Flags: HW
AnchorPoint: "Anchor-7" 6.12245 0 basechar 0
AnchorPoint: "Anchor-6" 6.12245 0 basechar 0
AnchorPoint: "Anchor-5" 6.12245 0 basechar 0
AnchorPoint: "Anchor-4" 374.531 686 basechar 0
AnchorPoint: "Anchor-3" 6.12245 0 basechar 0
LayerCount: 2
Fore
SplineSet
343.530273438 681 m 1
 343.530273438 221.763671875 l 2
 343.530273438 130.58203125 270.801272527 92 181.280752123 92 c 0
 127.194335938 92 82.28515625 94.4443359375 36.1220703125 98.4755859375 c 1
 36.1220703125 11.453125 l 1
 80.5 7.376953125 122.118164062 5 176.018793563 5 c 0
 253.203087703 5 315.24428654 21.7626953125 359.952148438 51.9345703125 c 0
 413.69140625 89.7236328125 441.530273438 148.2578125 441.530273438 219.59765625 c 2
 441.530273438 681 l 1
 343.530273438 681 l 1
EndSplineSet
Substitution2: "'ss03' Style Set 3 in Latin lookup 27 subtable" J.ss01
Substitution2: "'c2sc' Capitals to Small Capitals in Latin lookup 20 subtable" j.sc
AlternateSubs2: "'aalt' Access All Alternates in Latin lookup 1 subtable" j.sc J.ss01
EndChar

StartChar: K
Encoding: 75 75 44
Width: 757
GlyphClass: 2
Flags: HW
LayerCount: 2
Fore
SplineSet
617.411526801 681 m 1
 207.571289062 302.043945312 l 1
 207.571289062 681 l 1
 109.571289062 681 l 1
 109.571289062 5 l 1
 207.571289062 5 l 1
 207.571289062 195.889648438 l 1
 349.126776067 323.736328125 l 1
 645.453944902 5 l 1
 786.930664062 5 l 1
 430.283855963 384.5 l 1
 763.020507812 681 l 1
 617.411526801 681 l 1
EndSplineSet
Substitution2: "'ss03' Style Set 3 in Latin lookup 27 subtable" K.ss01
Substitution2: "'ss02' Style Set 2 in Latin lookup 26 subtable" K.ss01
Substitution2: "'c2sc' Capitals to Small Capitals in Latin lookup 20 subtable" k.sc
AlternateSubs2: "'aalt' Access All Alternates in Latin lookup 1 subtable" k.sc K.ss01
EndChar

StartChar: L
Encoding: 76 76 45
Width: 647
GlyphClass: 2
Flags: HW
AnchorPoint: "Anchor-7" 474.51 705 basechar 0
AnchorPoint: "Anchor-6" 283.061 271 basechar 0
AnchorPoint: "Anchor-5" 374.571 0 basechar 0
AnchorPoint: "Anchor-4" 144.571 696 basechar 0
AnchorPoint: "Anchor-3" 18.5714 0 basechar 0
LayerCount: 2
Fore
SplineSet
654.653320312 5 m 1
 654.653320312 93 l 1
 207.571289062 93 l 1
 207.571289062 681 l 1
 109.571289062 681 l 1
 109.571289062 5 l 1
 654.653320312 5 l 1
EndSplineSet
Substitution2: "'c2sc' Capitals to Small Capitals in Latin lookup 20 subtable" l.sc
Substitution2: "'aalt' Access All Alternates in Latin lookup 0 subtable" l.sc
EndChar

StartChar: M
Encoding: 77 77 46
Width: 972
GlyphClass: 2
Flags: HW
LayerCount: 2
Fore
SplineSet
109.485351562 5 m 1
 204.477539062 5 l 1
 204.477539062 588.172851562 l 1
 455.107240972 5 l 1
 555.294951837 5 l 1
 785.208984375 590.89453125 l 1
 805.875 5 l 1
 900.893554688 5 l 1
 882.301757812 681 l 1
 722.460874906 681 l 1
 504.859140819 111.3203125 l 1
 267.325184961 681 l 1
 108.3671875 681 l 1
 109.485351562 5 l 1
EndSplineSet
Substitution2: "'c2sc' Capitals to Small Capitals in Latin lookup 20 subtable" m.sc
Substitution2: "'aalt' Access All Alternates in Latin lookup 0 subtable" m.sc
EndChar

StartChar: N
Encoding: 78 78 47
Width: 812
GlyphClass: 2
Flags: HW
AnchorPoint: "Anchor-7" 18.5714 0 basechar 0
AnchorPoint: "Anchor-6" 18.5714 0 basechar 0
AnchorPoint: "Anchor-5" 415.51 0 basechar 0
AnchorPoint: "Anchor-4" 415.51 696 basechar 0
AnchorPoint: "Anchor-3" 18.5714 0 basechar 0
LayerCount: 2
Fore
SplineSet
642.245117188 681 m 1
 642.245117188 142.92578125 l 1
 207.473632812 681 l 1
 109.571289062 681 l 1
 109.571289062 5 l 1
 207.703125 5 l 1
 207.703125 544.0546875 l 1
 642.340820312 5 l 1
 740.245117188 5 l 1
 740.245117188 681 l 1
 642.245117188 681 l 1
EndSplineSet
Substitution2: "'c2sc' Capitals to Small Capitals in Latin lookup 20 subtable" n.sc
Substitution2: "'aalt' Access All Alternates in Latin lookup 0 subtable" n.sc
EndChar

StartChar: O
Encoding: 79 79 48
Width: 879
GlyphClass: 2
Flags: HW
AnchorPoint: "Anchor-7" 9.79592 0 basechar 0
AnchorPoint: "Anchor-6" 439.388 343 basechar 0
AnchorPoint: "Anchor-5" 439.388 0 basechar 0
AnchorPoint: "Anchor-4" 439.388 696 basechar 0
AnchorPoint: "Anchor-3" 542.939 4 basechar 0
LayerCount: 2
Fore
SplineSet
449.387695312 -6 m 0
 669.496626734 -6 840.979492188 129.153320312 840.979492188 345.958007812 c 0
 840.979492188 562.840820312 669.368132928 692 449.387695312 692 c 0
 229.278763891 692 57.7958984375 556.846679688 57.7958984375 340.041992188 c 0
 57.7958984375 123.159179688 229.407257697 -6 449.387695312 -6 c 0
449.387695312 87 m 0
 287.638924713 87 156.795898438 182.131835938 156.795898438 343 c 0
 156.795898438 502.91015625 287.656185075 599 449.387695312 599 c 0
 611.11920555 599 741.979492188 502.91015625 741.979492188 343 c 0
 741.979492188 182.131835938 611.136465912 87 449.387695312 87 c 0
EndSplineSet
Substitution2: "Single Substitution lookup 30 subtable" ordmasculine
Substitution2: "'c2sc' Capitals to Small Capitals in Latin lookup 20 subtable" o.sc
AlternateSubs2: "'aalt' Access All Alternates in Latin lookup 1 subtable" ordmasculine o.sc
EndChar

StartChar: P
Encoding: 80 80 49
Width: 684
GlyphClass: 2
Flags: HW
LayerCount: 2
Fore
SplineSet
109.571289062 5 m 1
 207.571289062 5 l 1
 207.571289062 279 l 1
 407.194789114 279 l 2
 561.608398438 279 673.81640625 352.674804688 673.81640625 481.952148438 c 0
 673.81640625 611.216796875 564.28125 681 413.789261444 681 c 2
 109.571289062 681 l 1
 109.571289062 5 l 1
415.3609077 366 m 2
 207.571289062 366 l 1
 207.571289062 594 l 1
 415.3609077 594 l 2
 522.126750469 594 574.81640625 543.315429688 574.81640625 480 c 0
 574.81640625 416.684570312 522.126750469 366 415.3609077 366 c 2
EndSplineSet
Substitution2: "'c2sc' Capitals to Small Capitals in Latin lookup 20 subtable" p.sc
Substitution2: "'aalt' Access All Alternates in Latin lookup 0 subtable" p.sc
EndChar

StartChar: Q
Encoding: 81 81 50
Width: 879
GlyphClass: 2
Flags: HW
AnchorPoint: "Anchor-7" 9.79592 0 basechar 0
AnchorPoint: "Anchor-6" 439.388 343 basechar 0
AnchorPoint: "Anchor-5" 439.388 0 basechar 0
AnchorPoint: "Anchor-4" 439.388 696 basechar 0
AnchorPoint: "Anchor-3" 542.939 4 basechar 0
LayerCount: 2
Fore
SplineSet
402.433757079 -5.5244140625 m 2
 471.12328568 -96.7236328125 582.113167123 -151 720.300584613 -151 c 2
 725.848632812 -151 l 1
 719.089482543 -55 l 1
 714.171238267 -55 l 2
 639.975654172 -55 585.633322072 -41.185546875 539.15979725 -7.36328125 c 2
 529.642625396 -0.3369140625 l 1
 541.152410157 1.76171875 l 2
 716.24535844 33.6845703125 840.979492188 159.24609375 840.979492188 346.078125 c 0
 840.979492188 562.883789062 669.369091837 692 449.387695312 692 c 0
 229.278763891 692 57.7958984375 556.859375 57.7958984375 340.073242188 c 0
 57.7958984375 138.55078125 204.481377078 13.9072265625 401.114298291 -3.7470703125 c 1
 402.433757079 -5.5244140625 l 2
449.387695312 67 m 0
 287.480704728 67 156.795898438 166.018554688 156.795898438 333 c 0
 156.795898438 498.985351562 287.49796509 599 449.387695312 599 c 0
 611.277425535 599 741.979492188 498.985351562 741.979492188 333 c 0
 741.979492188 166.018554688 611.294685897 67 449.387695312 67 c 0
EndSplineSet
Substitution2: "'c2sc' Capitals to Small Capitals in Latin lookup 20 subtable" q.sc
Substitution2: "'aalt' Access All Alternates in Latin lookup 0 subtable" q.sc
EndChar

StartChar: R
Encoding: 82 82 51
Width: 703
GlyphClass: 2
Flags: HW
AnchorPoint: "Anchor-7" 18.5714 0 basechar 0
AnchorPoint: "Anchor-6" 18.5714 0 basechar 0
AnchorPoint: "Anchor-5" 367.347 0 basechar 0
AnchorPoint: "Anchor-4" 340.857 696 basechar 0
AnchorPoint: "Anchor-3" 18.5714 0 basechar 0
LayerCount: 2
Fore
SplineSet
524.737063231 289.6328125 m 2
 609.668945312 317.6015625 664.18359375 381.276367188 664.18359375 477.090820312 c 0
 664.18359375 611.444335938 553.65071585 681 403.396432922 681 c 2
 109.571289062 681 l 1
 109.571289062 5 l 1
 207.571289062 5 l 1
 207.571289062 271 l 1
 387.820322569 271 l 1
 563.647460938 5 l 1
 683.208007812 5 l 1
 518.997947333 287.711914062 l 1
 524.737063231 289.6328125 l 2
207.571289062 354 m 1
 207.571289062 594 l 1
 404.59867957 594 l 2
 512.339131712 594 565.134765625 543.356445312 565.134765625 474 c 0
 565.134765625 404.643554688 512.339131712 354 404.59867957 354 c 2
 207.571289062 354 l 1
EndSplineSet
Substitution2: "'ss03' Style Set 3 in Latin lookup 27 subtable" R.ss01
Substitution2: "'ss02' Style Set 2 in Latin lookup 26 subtable" R.ss01
Substitution2: "'ss01' Style Set 1 in Latin lookup 25 subtable" R.ss01
Substitution2: "'salt' Stylistic Alternatives in Latin lookup 24 subtable" R.ss01
Substitution2: "'c2sc' Capitals to Small Capitals in Latin lookup 20 subtable" r.sc
AlternateSubs2: "'aalt' Access All Alternates in Latin lookup 1 subtable" r.sc R.ss01
EndChar

StartChar: S
Encoding: 83 83 52
Width: 682
GlyphClass: 2
Flags: HW
AnchorPoint: "Anchor-7" 8.57143 0 basechar 0
AnchorPoint: "Anchor-6" 8.57143 0 basechar 0
AnchorPoint: "Anchor-5" 346.612 0 basechar 0
AnchorPoint: "Anchor-4" 341.796 696 basechar 0
AnchorPoint: "Anchor-3" 8.57143 0 basechar 0
LayerCount: 2
Fore
SplineSet
167.966796875 504.375976562 m 0
 167.966796875 566.319335938 221.485957698 602.720703125 351.914314117 602.720703125 c 0
 467.515589643 602.720703125 538.428710938 566.012695312 538.428710938 486.049804688 c 2
 538.428710938 480.9765625 l 1
 635.391601562 480.9765625 l 1
 635.416015625 483.350585938 635.4375 485.711914062 635.4375 488.0703125 c 0
 635.4375 617.466796875 526.786132812 692 355.60683849 692 c 0
 183.729706036 692 68.5712890625 620.345703125 68.5712890625 505.620117188 c 0
 68.5712890625 354.750976562 212.721910651 327.9609375 341.144451362 304.310546875 c 0
 451.17370001 284.047851562 545.428710938 266.018554688 545.428710938 183.586914062 c 0
 545.438476562 182.911132812 545.443359375 182.470703125 545.443359375 181.948242188 c 0
 545.443359375 120.416015625 477.383215218 83.279296875 359.285117013 83.279296875 c 0
 218.428798243 83.279296875 147.571289062 130.2109375 147.571289062 205.0234375 c 2
 147.571289062 210.095703125 l 1
 50.5712890625 210.095703125 l 1
 50.5712890625 205.0234375 l 2
 50.5712890625 69.23828125 163.38671875 -6 350.384309805 -6 c 0
 525.793945312 -6 644.428710938 67.4873046875 644.428710938 180.379882812 c 0
 644.428710938 338.109375 495.853434872 366.087890625 365.634967312 390.291015625 c 0
 258.193714784 410.26171875 167.966796875 427.73046875 167.966796875 504.375976562 c 0
EndSplineSet
Substitution2: "'c2sc' Capitals to Small Capitals in Latin lookup 20 subtable" s.sc
Substitution2: "'aalt' Access All Alternates in Latin lookup 0 subtable" s.sc
EndChar

StartChar: T
Encoding: 84 84 53
Width: 673
GlyphClass: 2
Flags: HW
AnchorPoint: "Anchor-7" 2.44898 0 basechar 0
AnchorPoint: "Anchor-6" 263.694 362 basechar 0
AnchorPoint: "Anchor-5" 326.367 0 basechar 0
AnchorPoint: "Anchor-4" 331.367 696 basechar 0
AnchorPoint: "Anchor-3" 2.44898 0 basechar 0
LayerCount: 2
Fore
SplineSet
396.899926916 5 m 1
 389.711076686 592 l 1
 664.286132812 592 l 1
 664.286132812 681 l 1
 14.44921875 681 l 1
 14.44921875 592 l 1
 288.858400332 592 l 1
 301.192221347 5 l 1
 396.899926916 5 l 1
EndSplineSet
Substitution2: "'c2sc' Capitals to Small Capitals in Latin lookup 20 subtable" t.sc
Substitution2: "'aalt' Access All Alternates in Latin lookup 0 subtable" t.sc
EndChar

StartChar: U
Encoding: 85 85 54
Width: 796
GlyphClass: 2
Flags: HW
AnchorPoint: "Anchor-7" 16.9388 0 basechar 0
AnchorPoint: "Anchor-6" 16.9388 0 basechar 0
AnchorPoint: "Anchor-5" 404.673 0 basechar 0
AnchorPoint: "Anchor-4" 404.673 696 basechar 0
AnchorPoint: "Anchor-3" 533.51 11 basechar 0
LayerCount: 2
Fore
SplineSet
631.408203125 265.006835938 m 2
 631.408203125 136.508789062 544.546250751 82 414.673815902 82 c 0
 284.764248528 82 197.938476562 136.494140625 197.938476562 265.006835938 c 2
 197.938476562 676 l 1
 99.9384765625 676 l 1
 99.9384765625 263.079101562 l 2
 99.9384765625 170.71875 134.526367188 97.640625 199.56640625 51.12109375 c 0
 252.946435063 13.921875 325.457687616 -6 414.673815902 -6 c 0
 606.510914048 -6 729.408203125 96.1708984375 729.408203125 263.079101562 c 2
 729.408203125 676 l 1
 631.408203125 676 l 1
 631.408203125 265.006835938 l 2
EndSplineSet
Substitution2: "'c2sc' Capitals to Small Capitals in Latin lookup 20 subtable" u.sc
Substitution2: "'aalt' Access All Alternates in Latin lookup 0 subtable" u.sc
EndChar

StartChar: V
Encoding: 86 86 55
Width: 641
GlyphClass: 2
Flags: HW
AnchorPoint: "Anchor-7" 0 0 basechar 0
AnchorPoint: "Anchor-6" 0 0 basechar 0
AnchorPoint: "Anchor-5" 311 0 basechar 0
AnchorPoint: "Anchor-4" 311 686 basechar 0
AnchorPoint: "Anchor-3" 0 0 basechar 0
LayerCount: 2
Fore
SplineSet
372.854098266 5 m 1
 633.055664062 681 l 1
 533.465820312 681 l 1
 323.027892593 116.213867188 l 1
 111.583984375 681 l 1
 12 681 l 1
 272.202517386 5 l 1
 372.854098266 5 l 1
EndSplineSet
Substitution2: "'c2sc' Capitals to Small Capitals in Latin lookup 20 subtable" v.sc
Substitution2: "'aalt' Access All Alternates in Latin lookup 0 subtable" v.sc
EndChar

StartChar: W
Encoding: 87 87 56
Width: 979
GlyphClass: 2
Flags: HW
AnchorPoint: "Anchor-7" 0 0 basechar 0
AnchorPoint: "Anchor-6" 0 0 basechar 0
AnchorPoint: "Anchor-5" 0 0 basechar 0
AnchorPoint: "Anchor-4" 470 696 basechar 0
AnchorPoint: "Anchor-3" 0 0 basechar 0
LayerCount: 2
Fore
SplineSet
742.942132721 5 m 1
 965.052734375 681 l 1
 865.657226562 681 l 1
 693.432386466 108.259765625 l 1
 539.755150977 681 l 1
 442.357287064 681 l 1
 268.498286647 108.258789062 l 1
 116.456054688 681 l 1
 17 681 l 1
 219.677058471 5 l 1
 319.97825387 5 l 1
 491.9084407 563.1015625 l 1
 643.656862602 5 l 1
 742.942132721 5 l 1
EndSplineSet
Substitution2: "'c2sc' Capitals to Small Capitals in Latin lookup 20 subtable" w.sc
Substitution2: "'aalt' Access All Alternates in Latin lookup 0 subtable" w.sc
EndChar

StartChar: X
Encoding: 88 88 57
Width: 617
GlyphClass: 2
Flags: HW
LayerCount: 2
Fore
SplineSet
312.014348961 297.366210938 m 1
 503.150390625 5 l 1
 615.936523438 5 l 1
 378.925126338 352.706054688 l 1
 601.922851562 680 l 1
 491.665541853 680 l 1
 311.001024597 402.669921875 l 1
 130.335556755 680 l 1
 16.9716796875 680 l 1
 245.115929198 348.807617188 l 1
 10 5 l 1
 119.7890625 5 l 1
 312.014348961 297.366210938 l 1
EndSplineSet
Substitution2: "'c2sc' Capitals to Small Capitals in Latin lookup 20 subtable" x.sc
Substitution2: "'aalt' Access All Alternates in Latin lookup 0 subtable" x.sc
EndChar

StartChar: Y
Encoding: 89 89 58
Width: 723
GlyphClass: 2
Flags: HW
AnchorPoint: "Anchor-7" 2.44898 0 basechar 0
AnchorPoint: "Anchor-6" 2.44898 0 basechar 0
AnchorPoint: "Anchor-5" 2.44898 0 basechar 0
AnchorPoint: "Anchor-4" 353.449 696 basechar 0
AnchorPoint: "Anchor-3" 2.44898 0 basechar 0
LayerCount: 2
Fore
SplineSet
14.44921875 681 m 1
 317.500093733 278.385742188 l 1
 317.500093733 5 l 1
 418.311551961 5 l 1
 418.311551961 277.412109375 l 1
 722.602539062 681 l 1
 593.802236874 681 l 1
 368.92124233 358.143554688 l 1
 143.235178855 681 l 1
 14.44921875 681 l 1
EndSplineSet
Substitution2: "'c2sc' Capitals to Small Capitals in Latin lookup 20 subtable" y.sc
Substitution2: "'aalt' Access All Alternates in Latin lookup 0 subtable" y.sc
EndChar

StartChar: Z
Encoding: 90 90 59
Width: 604
GlyphClass: 2
Flags: HW
AnchorPoint: "Anchor-7" 0 0 basechar 0
AnchorPoint: "Anchor-6" 0 0 basechar 0
AnchorPoint: "Anchor-5" 0 0 basechar 0
AnchorPoint: "Anchor-4" 283 696 basechar 0
AnchorPoint: "Anchor-3" 0 0 basechar 0
LayerCount: 2
Fore
SplineSet
36 5 m 1
 565 5 l 1
 565 93 l 1
 157.517793687 93 l 1
 562.978515625 606.194335938 l 1
 564.068359375 681 l 1
 46 681 l 1
 46 592 l 1
 441.401847304 592 l 1
 36 79.775390625 l 1
 36 5 l 1
EndSplineSet
Substitution2: "'c2sc' Capitals to Small Capitals in Latin lookup 20 subtable" z.sc
Substitution2: "'aalt' Access All Alternates in Latin lookup 0 subtable" z.sc
EndChar

StartChar: bracketleft
Encoding: 91 91 60
Width: 343
GlyphClass: 2
Flags: HMW
LayerCount: 2
Fore
SplineSet
97.3469387755 767 m 1
 97.3469387755 -145 l 1
 339.244897959 -145 l 1
 339.244897959 -59 l 1
 192.346938776 -59 l 1
 192.346938776 681 l 1
 339.244897959 681 l 1
 339.244897959 767 l 1
 97.3469387755 767 l 1
EndSplineSet
Substitution2: "'case' Case-Sensitive Forms in Latin lookup 22 subtable" bracketleft.case
Substitution2: "'aalt' Access All Alternates in Latin lookup 0 subtable" bracketleft.case
EndChar

StartChar: backslash
Encoding: 92 92 61
Width: 421
GlyphClass: 2
Flags: HMW
LayerCount: 2
Fore
SplineSet
13.6365836479 711 m 1
 305.603525797 -25 l 1
 406.382276877 -25 l 1
 112.387786518 711 l 1
 13.6365836479 711 l 1
EndSplineSet
EndChar

StartChar: bracketright
Encoding: 93 93 62
Width: 343
GlyphClass: 2
Flags: HMW
LayerCount: 2
Fore
SplineSet
27.5102040816 -145 m 1
 269.408163265 -145 l 1
 269.408163265 767 l 1
 27.5102040816 767 l 1
 27.5102040816 681 l 1
 174.408163265 681 l 1
 174.408163265 -59 l 1
 27.5102040816 -59 l 1
 27.5102040816 -145 l 1
EndSplineSet
Substitution2: "'case' Case-Sensitive Forms in Latin lookup 22 subtable" bracketright.case
Substitution2: "'aalt' Access All Alternates in Latin lookup 0 subtable" bracketright.case
EndChar

StartChar: asciicircum
Encoding: 94 94 63
Width: 374
GlyphClass: 2
Flags: HMW
LayerCount: 2
Fore
SplineSet
239.226621264 730 m 1
 134.773378736 730 l 1
 35.2495692126 510 l 1
 121.130009427 510 l 1
 187 645.558531324 l 1
 252.869990573 510 l 1
 338.750430787 510 l 1
 239.226621264 730 l 1
EndSplineSet
EndChar

StartChar: underscore
Encoding: 95 95 64
Width: 411
GlyphClass: 2
Flags: HMW
LayerCount: 2
Fore
SplineSet
-5 -45 m 1
 -5 -121 l 1
 416 -121 l 1
 416 -45 l 1
 -5 -45 l 1
EndSplineSet
EndChar

StartChar: grave
Encoding: 96 96 65
Width: 268
GlyphClass: 2
Flags: HMW
LayerCount: 2
Fore
SplineSet
144.633456351 730 m 1
 21.4039949011 730 l 1
 118.091494901 560 l 1
 199.883456351 560 l 1
 144.633456351 730 l 1
EndSplineSet
Substitution2: "'case' Case-Sensitive Forms in Latin lookup 22 subtable" grave.case
Substitution2: "'aalt' Access All Alternates in Latin lookup 0 subtable" grave.case
EndChar

StartChar: a
Encoding: 97 97 66
Width: 553
GlyphClass: 2
Flags: HW
AnchorPoint: "Anchor-7" 0 0 basechar 0
AnchorPoint: "Anchor-6" 0 0 basechar 0
AnchorPoint: "Anchor-5" 256 0 basechar 0
AnchorPoint: "Anchor-4" 258 490 basechar 0
AnchorPoint: "Anchor-3" 465 0 basechar 0
LayerCount: 2
Fore
SplineSet
146.96875 318.912109375 m 2
 153.98828125 381.4375 199.777411882 408.265625 266.163108648 408.265625 c 0
 338.915947493 408.265625 387 379.3984375 387 305.739257812 c 0
 387 298.41796875 387 291.096679688 387 283.775390625 c 1
 286.046693314 283.775390625 l 2
 143.45703125 283.775390625 40 240.6796875 40 131.986328125 c 0
 40 88.0185546875 57.61328125 50.3017578125 93.1669921875 25.7060546875 c 0
 121.510742188 6.09765625 161.273800872 -5 213.837640807 -5 c 0
 301.110692224 -5 351.268463844 26.8056640625 378.244140625 54.5830078125 c 2
 386.430664062 62.80859375 l 1
 386.999023438 41.90625 387.567382812 21.00390625 388.13671875 0.1015625 c 1
 485 0.1015625 l 1
 485 301.00390625 l 2
 485 368.396484375 463.012695312 421.0546875 419.000976562 454.416992188 c 0
 383.951171875 480.986328125 333.532090298 495 269.30198492 495 c 0
 142.022460938 495 57.185546875 426.948242188 51.0087890625 319.793945312 c 2
 50.697265625 314.387695312 l 1
 146.467773438 314.387695312 l 1
 146.96875 318.912109375 l 2
387 181.875 m 0
 387 142.630859375 334.206236374 81 229.534815589 81 c 0
 180.534452217 81 140 93.4970703125 140 137.625 c 0
 140 164.521484375 153.092773438 183.0546875 182.330623183 194.665039062 c 0
 205.755337028 204.071289062 240.013876272 209 286.046693314 209 c 2
 387 209 l 1
 387 199.958007812 387 190.916992188 387 181.875 c 0
EndSplineSet
Substitution2: "Single Substitution lookup 30 subtable" ordfeminine
Substitution2: "'ss03' Style Set 3 in Latin lookup 27 subtable" a.ss01
Substitution2: "'ss02' Style Set 2 in Latin lookup 26 subtable" a.ss01
Substitution2: "'ss01' Style Set 1 in Latin lookup 25 subtable" a.ss01
Substitution2: "'salt' Stylistic Alternatives in Latin lookup 24 subtable" a.ss01
Substitution2: "'smcp' Lowercase to Small Capitals in Latin lookup 21 subtable" a.sc
AlternateSubs2: "'aalt' Access All Alternates in Latin lookup 1 subtable" ordfeminine a.sc a.ss01
EndChar

StartChar: b
Encoding: 98 98 67
Width: 615
GlyphClass: 2
Flags: HW
LayerCount: 2
Fore
SplineSet
179.682617188 429.924804688 m 2
 171 420.469726562 l 1
 171 710 l 1
 73 710 l 1
 73 0.0712890625 l 1
 168.869140625 0.0712890625 l 1
 170.5546875 64.193359375 l 1
 178.890625 55.091796875 l 2
 211.309847248 18.919921875 261.886616721 -5 332.373323811 -5 c 0
 477.385742188 -5 571 100.995117188 571 250.887695312 c 0
 571 398.932617188 479.190429688 495 338.596942048 495 c 0
 267.720083664 495 214.237392141 468.446289062 179.682617188 429.924804688 c 2
326.149705574 85 m 0
 219.64968371 85 171 167.096679688 171 235.606445312 c 2
 171 256.272460938 l 2
 171 322.786132812 221.636164879 405 328.223618237 405 c 0
 415.312908116 405 471 345.37890625 471 248.7578125 c 0
 471 150.142578125 413.019946653 85 326.149705574 85 c 0
EndSplineSet
Substitution2: "'smcp' Lowercase to Small Capitals in Latin lookup 21 subtable" b.sc
Substitution2: "'aalt' Access All Alternates in Latin lookup 0 subtable" b.sc
EndChar

StartChar: c
Encoding: 99 99 68
Width: 550
GlyphClass: 2
Flags: HW
AnchorPoint: "Anchor-7" 0 0 basechar 0
AnchorPoint: "Anchor-6" 0 0 basechar 0
AnchorPoint: "Anchor-5" 272 0 basechar 0
AnchorPoint: "Anchor-4" 280 490 basechar 0
AnchorPoint: "Anchor-3" 0 0 basechar 0
LayerCount: 2
Fore
SplineSet
512.965820312 302.736328125 m 2
 499.708007812 419.298828125 422.38671875 495 287.325632084 495 c 0
 139.719726562 495 43 389.150390625 43 243.038085938 c 0
 43 100.138671875 124.653320312 -5 282.119618505 -5 c 0
 419.319335938 -5 497.645507812 70.5849609375 512.953125 184.095703125 c 2
 513.735351562 189.8984375 l 1
 409.787109375 189.8984375 l 1
 409.072265625 185.666992188 l 2
 398.89453125 127.943359375 362.068711612 81.734375 286.284803767 81.734375 c 0
 195.948955413 81.734375 143 145.249023438 143 245 c 0
 143 345.551757812 201.045457379 408.265625 288.367396398 408.265625 c 0
 361.951712026 408.265625 398.850585938 362.219726562 409.060546875 301.34765625 c 2
 409.751953125 297.041015625 l 1
 513.614257812 297.041015625 l 1
 512.965820312 302.736328125 l 2
EndSplineSet
Substitution2: "'smcp' Lowercase to Small Capitals in Latin lookup 21 subtable" c.sc
Substitution2: "'aalt' Access All Alternates in Latin lookup 0 subtable" c.sc
EndChar

StartChar: d
Encoding: 100 100 69
Width: 614
GlyphClass: 2
Flags: HW
AnchorPoint: "Anchor-7" 626 746 basechar 0
AnchorPoint: "Anchor-6" 380 602 basechar 0
AnchorPoint: "Anchor-5" 298 0 basechar 0
AnchorPoint: "Anchor-4" 298 490 basechar 0
AnchorPoint: "Anchor-3" 0 0 basechar 0
LayerCount: 2
Fore
SplineSet
443 710 m 1
 443 427.431640625 l 1
 434.36328125 436.5859375 l 2
 401.895748309 471.783203125 351.558710354 495 281.626676189 495 c 0
 136.614257812 495 43 389.004882812 43 239.112304688 c 0
 43 91.0673828125 134.809570312 -5 275.403057952 -5 c 0
 346.770660856 -5 400.500604886 22.302734375 435.010742188 61.8095703125 c 2
 443.409179688 71.2080078125 l 1
 445.12109375 0.0712890625 l 1
 541 0.0712890625 l 1
 541 710 l 1
 443 710 l 1
285.776381763 85 m 0
 198.687091884 85 143 144.62109375 143 241.2421875 c 0
 143 339.857421875 200.980053347 405 287.850294426 405 c 0
 394.35031629 405 443 322.903320312 443 254.393554688 c 2
 443 233.727539062 l 2
 443 167.213867188 392.363835121 85 285.776381763 85 c 0
EndSplineSet
Substitution2: "'smcp' Lowercase to Small Capitals in Latin lookup 21 subtable" d.sc
Substitution2: "'aalt' Access All Alternates in Latin lookup 0 subtable" d.sc
EndChar

StartChar: e
Encoding: 101 101 70
Width: 563
GlyphClass: 2
Flags: HW
AnchorPoint: "Anchor-7" 0 0 basechar 0
AnchorPoint: "Anchor-6" 0 0 basechar 0
AnchorPoint: "Anchor-5" 282 0 basechar 0
AnchorPoint: "Anchor-4" 277 490 basechar 0
AnchorPoint: "Anchor-3" 394 17 basechar 0
LayerCount: 2
Fore
SplineSet
520 216.428710938 m 1
 520 242.865234375 l 2
 520 400.373046875 435.01171875 495 287.222415075 495 c 0
 141.755859375 495 43 390.1875 43 244.018554688 c 0
 43 101.012695312 127.748046875 -5 289.303548836 -5 c 0
 427.270507812 -5 497.458984375 69.4208984375 516.890625 162.298828125 c 2
 518.181640625 168.469726562 l 1
 418.999023438 168.469726562 l 1
 418.12109375 164.490234375 l 2
 409.5234375 125.499023438 377.143135596 81.734375 290.34458423 81.734375 c 2
 288.608275873 81.734375 l 1
 276.025896698 92.88671875 258.921432186 101.715820312 239.540932597 111.327148438 c 0
 199.762323665 131.053710938 152.234375 153.985351562 145.048828125 210.666992188 c 2
 144.318359375 216.428710938 l 1
 520 216.428710938 l 1
148.334960938 298.272460938 m 2
 165.868235229 365.470703125 217.682937437 405 288.263450468 405 c 0
 366.508832553 405 407.334960938 361.16796875 419.333007812 297.936523438 c 2
 420.459960938 292 l 1
 146.686523438 292 l 1
 148.334960938 298.272460938 l 2
EndSplineSet
Substitution2: "'smcp' Lowercase to Small Capitals in Latin lookup 21 subtable" e.sc
Substitution2: "'aalt' Access All Alternates in Latin lookup 0 subtable" e.sc
EndChar

StartChar: f
Encoding: 102 102 71
Width: 384
GlyphClass: 2
Flags: HW
LayerCount: 2
Fore
SplineSet
308 710 m 0
 178.846768466 710 104 641.307617188 104 519 c 0
 104 509.333007812 104 499.666992188 104 490 c 1
 35 490 l 1
 35 406 l 1
 104 406 l 1
 104 10 l 1
 197.85600142 10 l 1
 208.219992898 406 l 1
 368 406 l 1
 368 490 l 1
 208.091264205 490 l 1
 208.091264205 499.666992188 208.091264205 509.333007812 208.091264205 519 c 0
 208.091264205 549.204101562 214.549005682 573.221679688 228.057528409 590.262695312 c 0
 244.547230114 611.06640625 271.69140625 623 313 623 c 0
 324.908203125 623 353.573242188 621.27734375 375 619.530273438 c 1
 375 706.590820312 l 1
 351.775390625 708.421875 322.401367188 710 308 710 c 0
EndSplineSet
Substitution2: "'ss04' Style Set 4 in Latin lookup 28 subtable" f.ss01
Substitution2: "'ss03' Style Set 3 in Latin lookup 27 subtable" f.ss02
Substitution2: "'ss02' Style Set 2 in Latin lookup 26 subtable" f.ss01
Substitution2: "'ss01' Style Set 1 in Latin lookup 25 subtable" f.ss01
Substitution2: "'salt' Stylistic Alternatives in Latin lookup 24 subtable" f.ss01
Substitution2: "'smcp' Lowercase to Small Capitals in Latin lookup 21 subtable" f.sc
AlternateSubs2: "'aalt' Access All Alternates in Latin lookup 1 subtable" f.sc f.ss01 f.ss02
EndChar

StartChar: g
Encoding: 103 103 72
Width: 620
GlyphClass: 2
Flags: HW
AnchorPoint: "Anchor-7" 0 0 basechar 0
AnchorPoint: "Anchor-6" 0 0 basechar 0
AnchorPoint: "Anchor-5" 0 0 basechar 0
AnchorPoint: "Anchor-4" 295 490 basechar 0
AnchorPoint: "Anchor-3" 0 0 basechar 0
LayerCount: 2
Fore
SplineSet
537 15.330078125 m 2
 537 489.920898438 l 1
 444.234375 489.920898438 l 1
 440.720642768 423.658203125 l 1
 432.976475003 432.560546875 l 2
 400.399480917 470.005859375 350.390565114 495 279.476545682 495 c 0
 136.744140625 495 43 394.013671875 43 245.981445312 c 0
 43 96.013671875 136.727539062 -5 279.476545682 -5 c 2
 279.701930009 -5 l 1
 348.575231097 0.078125 397.906107856 23.255859375 430.532139537 57.3271484375 c 2
 438.788372949 65.94921875 l 1
 438.788372949 49.9658203125 438.788372949 33.9833984375 438.788372949 18 c 0
 438.788372949 -24.658203125 427.803951843 -60.517578125 394.012334269 -84.1787109375 c 0
 366.822874333 -103.217773438 323.864055731 -115 257.703853846 -115 c 0
 189.92258226 -115 139.64453125 -111.609375 88 -106.45703125 c 1
 88 -191.521484375 l 1
 140.374023438 -196.673828125 189.06348133 -200 258.74118757 -200 c 0
 349.369262911 -200 415.299365316 -182.271484375 459.559570312 -151.022460938 c 0
 514.333984375 -112.454101562 537 -53.48046875 537 15.330078125 c 2
285.697718934 85 m 0
 200.851364557 85 143 147.383789062 143 245.939453125 c 0
 143 342.583007812 200.82590273 405 285.697718934 405 c 0
 390.013884278 405 438.788372949 322.967773438 438.788372949 254.393554688 c 2
 438.788372949 235.606445312 l 2
 438.788372949 167.032226562 390.013884278 85 285.697718934 85 c 0
EndSplineSet
Substitution2: "'ss04' Style Set 4 in Latin lookup 28 subtable" g.ss01
Substitution2: "'ss03' Style Set 3 in Latin lookup 27 subtable" g.ss02
Substitution2: "'ss02' Style Set 2 in Latin lookup 26 subtable" g.ss02
Substitution2: "'ss01' Style Set 1 in Latin lookup 25 subtable" g.ss02
Substitution2: "'salt' Stylistic Alternatives in Latin lookup 24 subtable" g.ss02
Substitution2: "'smcp' Lowercase to Small Capitals in Latin lookup 21 subtable" g.sc
AlternateSubs2: "'aalt' Access All Alternates in Latin lookup 1 subtable" g.sc g.ss02 g.ss01
EndChar

StartChar: h
Encoding: 104 104 73
Width: 582
GlyphClass: 2
Flags: HW
AnchorPoint: "Anchor-7" 0 0 basechar 0
AnchorPoint: "Anchor-6" 114 602 basechar 0
AnchorPoint: "Anchor-5" 284 0 basechar 0
AnchorPoint: "Anchor-4" 115 710 basechar 0
AnchorPoint: "Anchor-3" 0 0 basechar 0
LayerCount: 2
Fore
SplineSet
178.4921875 437.67578125 m 2
 170 429.383789062 l 1
 170 710 l 1
 73 710 l 1
 73 10 l 1
 172 10 l 1
 172 285.952148438 l 2
 172 364.165039062 225.807251555 410 305.437351896 410 c 0
 344.247699756 410 372.970092195 397.478515625 391.215672208 374.861328125 c 0
 406.50390625 356.643554688 415 331.404296875 415 300.23828125 c 2
 415 10 l 1
 514 10 l 1
 514 321.223632812 l 2
 514 425.186523438 443.850585938 495 328.27479358 495 c 0
 261.848156102 495 212.693095564 472.025390625 178.4921875 437.67578125 c 2
EndSplineSet
Substitution2: "'smcp' Lowercase to Small Capitals in Latin lookup 21 subtable" h.sc
Substitution2: "'aalt' Access All Alternates in Latin lookup 0 subtable" h.sc
EndChar

StartChar: i
Encoding: 105 105 74
Width: 245
GlyphClass: 2
Flags: HW
AnchorPoint: "Anchor-7" 0 0 basechar 0
AnchorPoint: "Anchor-6" 0 0 basechar 0
AnchorPoint: "Anchor-5" 0 0 basechar 0
AnchorPoint: "Anchor-4" 0 0 basechar 0
AnchorPoint: "Anchor-3" 162 0 basechar 0
LayerCount: 2
Fore
SplineSet
191 645 m 0
 191 681.809570312 161.62109375 710 125 710 c 0
 88.37890625 710 59 681.809570312 59 645 c 0
 59 607.18359375 88.4609375 580 125 580 c 0
 161.5390625 580 191 607.18359375 191 645 c 0
73 485 m 1
 73 5 l 1
 172 5 l 1
 172 485 l 1
 73 485 l 1
EndSplineSet
Substitution2: "'smcp' Lowercase to Small Capitals in Latin lookup 21 subtable" i.sc
Substitution2: "'locl' Localized Forms in Latin lookup 9 subtable" i.loclTRK
Substitution2: "'locl' Localized Forms in Latin lookup 8 subtable" i.loclTRK
Substitution2: "'locl' Localized Forms in Latin lookup 7 subtable" i.loclTRK
Substitution2: "'locl' Localized Forms in Latin lookup 6 subtable" i.loclTRK
Substitution2: "'locl' Localized Forms in Latin lookup 5 subtable" i.loclTRK
AlternateSubs2: "'aalt' Access All Alternates in Latin lookup 1 subtable" i.loclTRK i.sc
EndChar

StartChar: j
Encoding: 106 106 75
Width: 252
GlyphClass: 2
Flags: HW
LayerCount: 2
Fore
SplineSet
198 645 m 0
 198 681.921875 167.547851562 710 131 710 c 0
 94.3046875 710 66 681.6953125 66 645 c 0
 66 607.296875 94.3876953125 580 131 580 c 0
 167.466796875 580 198 607.072265625 198 645 c 0
81 480 m 1
 81 -14 l 2
 81 -79.171875 54.619140625 -118 -10 -118 c 0
 -21.908203125 -118 -50.5732421875 -116.27734375 -72 -114.530273438 c 1
 -72 -201.590820312 l 1
 -48.775390625 -203.421875 -19.4013671875 -205 -5 -205 c 0
 110.19921875 -205 179 -133.065429688 179 -14 c 2
 179 480 l 1
 81 480 l 1
EndSplineSet
Substitution2: "'ss04' Style Set 4 in Latin lookup 28 subtable" j.ss01
Substitution2: "'ss03' Style Set 3 in Latin lookup 27 subtable" j.ss02
Substitution2: "'ss02' Style Set 2 in Latin lookup 26 subtable" j.ss01
Substitution2: "'ss01' Style Set 1 in Latin lookup 25 subtable" j.ss01
Substitution2: "'salt' Stylistic Alternatives in Latin lookup 24 subtable" j.ss01
Substitution2: "'smcp' Lowercase to Small Capitals in Latin lookup 21 subtable" j.sc
AlternateSubs2: "'aalt' Access All Alternates in Latin lookup 1 subtable" j.sc j.ss01 j.ss02
EndChar

StartChar: k
Encoding: 107 107 76
Width: 521
GlyphClass: 2
Flags: HW
AnchorPoint: "Anchor-7" 0 0 basechar 0
AnchorPoint: "Anchor-6" 0 0 basechar 0
AnchorPoint: "Anchor-5" 263 0 basechar 0
AnchorPoint: "Anchor-4" 263 490 basechar 0
AnchorPoint: "Anchor-3" 0 0 basechar 0
LayerCount: 2
Fore
SplineSet
382.28515625 490 m 1
 171 265.75390625 l 1
 171 710 l 1
 73 710 l 1
 73 10 l 1
 171 10 l 1
 171 152.1875 l 1
 241.911684937 225.806640625 l 1
 411.37890625 10 l 1
 526.544921875 10 l 1
 308.118448052 283.36328125 l 1
 508.708007812 490 l 1
 382.28515625 490 l 1
EndSplineSet
Substitution2: "'smcp' Lowercase to Small Capitals in Latin lookup 21 subtable" k.sc
Substitution2: "'aalt' Access All Alternates in Latin lookup 0 subtable" k.sc
EndChar

StartChar: l
Encoding: 108 108 77
Width: 244
GlyphClass: 2
Flags: HW
AnchorPoint: "Anchor-7" 242 730 basechar 0
AnchorPoint: "Anchor-6" 242 364 basechar 0
AnchorPoint: "Anchor-5" 117 0 basechar 0
AnchorPoint: "Anchor-4" 106 710 basechar 0
AnchorPoint: "Anchor-3" 0 0 basechar 0
LayerCount: 2
Fore
SplineSet
73 710 m 1
 73 10 l 1
 171 10 l 1
 171 710 l 1
 73 710 l 1
EndSplineSet
Substitution2: "'ss03' Style Set 3 in Latin lookup 27 subtable" l.ss01
Substitution2: "'ss02' Style Set 2 in Latin lookup 26 subtable" l.ss01
Substitution2: "'ss01' Style Set 1 in Latin lookup 25 subtable" l.ss01
Substitution2: "'salt' Stylistic Alternatives in Latin lookup 24 subtable" l.ss01
Substitution2: "'smcp' Lowercase to Small Capitals in Latin lookup 21 subtable" l.sc
AlternateSubs2: "'aalt' Access All Alternates in Latin lookup 1 subtable" l.sc l.ss01
EndChar

StartChar: m
Encoding: 109 109 78
Width: 919
GlyphClass: 2
Flags: HW
LayerCount: 2
Fore
SplineSet
509.91118354 285.952148438 m 2
 509.91118354 365.34375 561.569583477 410 638.288554292 410 c 0
 710.431255292 410 752 369.1484375 752 294.5234375 c 2
 752 10 l 1
 851 10 l 1
 851 314.495117188 l 2
 851 424.048828125 781.990234375 495 664.054421526 495 c 0
 582.686252292 495 525.135988931 458.969726562 494.963698757 409.4296875 c 2
 490.520811517 402.135742188 l 1
 486.472314483 409.663085938 l 2
 457.464003191 463.586914062 403.762642794 495 325.051569622 495 c 0
 260.1057702 495 210.464421879 471.563476562 176.850093578 437.2578125 c 2
 169.084156983 429.33203125 l 1
 167.965278684 449.5546875 166.846400385 469.77734375 165.7265625 490 c 1
 73 490 l 1
 73 10 l 1
 170.908331636 10 l 1
 170.908331636 285.952148438 l 2
 170.908331636 365.34375 222.566731572 410 299.285702388 410 c 0
 371.428403387 410 412.632104298 369.1484375 412.632104298 294.5234375 c 2
 412.632104298 10 l 1
 509.91118354 10 l 1
 509.91118354 285.952148438 l 2
EndSplineSet
Substitution2: "'smcp' Lowercase to Small Capitals in Latin lookup 21 subtable" m.sc
Substitution2: "'aalt' Access All Alternates in Latin lookup 0 subtable" m.sc
EndChar

StartChar: n
Encoding: 110 110 79
Width: 582
GlyphClass: 2
Flags: HW
AnchorPoint: "Anchor-7" 20 720 basechar 0
AnchorPoint: "Anchor-6" 0 0 basechar 0
AnchorPoint: "Anchor-5" 284 0 basechar 0
AnchorPoint: "Anchor-4" 291 490 basechar 0
AnchorPoint: "Anchor-3" 0 0 basechar 0
LayerCount: 2
Fore
SplineSet
514 10 m 1
 514 311.611328125 l 2
 514 430.466796875 443.90625 495 327.930543921 495 c 0
 260.9741616 495 210.49888972 470.618164062 176.613255121 435.174804688 c 2
 169.027603244 427.240234375 l 1
 165.734375 490 l 1
 73 490 l 1
 73 10 l 1
 170.779001902 10 l 1
 170.779001902 285.952148438 l 2
 170.779001902 363.240234375 223.943119797 410 302.884233316 410 c 0
 376.191306922 410 415 368.396484375 415 291.666992188 c 2
 415 10 l 1
 514 10 l 1
EndSplineSet
Substitution2: "'smcp' Lowercase to Small Capitals in Latin lookup 21 subtable" n.sc
Substitution2: "'aalt' Access All Alternates in Latin lookup 0 subtable" n.sc
EndChar

StartChar: o
Encoding: 111 111 80
Width: 591
GlyphClass: 2
Flags: HW
AnchorPoint: "Anchor-7" 548 490 basechar 0
AnchorPoint: "Anchor-6" 285 245 basechar 0
AnchorPoint: "Anchor-5" 285 0 basechar 0
AnchorPoint: "Anchor-4" 285 490 basechar 0
AnchorPoint: "Anchor-3" 379 13 basechar 0
LayerCount: 2
Fore
SplineSet
294.981480824 495 m 0
 141.826171875 495 43 388.243164062 43 240.094726562 c 0
 43 92.75 142.086914062 -5 294.981480824 -5 c 0
 450.069335938 -5 548 98.7548828125 548 245.981445312 c 0
 548 394.227539062 449.995117188 495 294.981480824 495 c 0
294.981480824 405 m 0
 387.228959517 405 448 339.625976562 448 243.12109375 c 0
 448 147.65234375 387.371058239 85 294.981480824 85 c 0
 204.68762429 85 143 147.659179688 143 243.12109375 c 0
 143 339.619140625 204.830664063 405 294.981480824 405 c 0
EndSplineSet
Substitution2: "Single Substitution lookup 30 subtable" ordmasculine
Substitution2: "'smcp' Lowercase to Small Capitals in Latin lookup 21 subtable" o.sc
AlternateSubs2: "'aalt' Access All Alternates in Latin lookup 1 subtable" ordmasculine o.sc
EndChar

StartChar: p
Encoding: 112 112 81
Width: 615
GlyphClass: 2
Flags: HW
LayerCount: 2
Fore
SplineSet
168.887695312 489.926757812 m 1
 73 489.926757812 l 1
 73 -200 l 1
 171.087077822 -200 l 1
 171.087077822 62.361328125 l 1
 179.389463858 53.4560546875 l 2
 212.26325321 18.1982421875 262.584974137 -5 332.459696006 -5 c 0
 477.377929688 -5 571 100.990234375 571 250.887695312 c 0
 571 398.9375 479.18359375 495 338.67964783 495 c 0
 267.371366177 495 213.657201473 467.704101562 178.71418175 428.120117188 c 2
 170.656066756 418.991210938 l 1
 168.887695312 489.926757812 l 1
326.239744182 85 m 0
 219.802645913 85 171.087077822 167.06640625 171.087077822 235.606445312 c 2
 171.087077822 256.272460938 l 2
 171.087077822 322.815429688 221.787937587 405 328.31274708 405 c 0
 415.375096248 405 471 345.365234375 471 248.7578125 c 0
 471 150.15625 413.084229989 85 326.239744182 85 c 0
EndSplineSet
Substitution2: "'smcp' Lowercase to Small Capitals in Latin lookup 21 subtable" p.sc
Substitution2: "'aalt' Access All Alternates in Latin lookup 0 subtable" p.sc
EndChar

StartChar: q
Encoding: 113 113 82
Width: 614
GlyphClass: 2
Flags: HW
LayerCount: 2
Fore
SplineSet
541 -200 m 1
 541 489.926757812 l 1
 445.122070312 489.926757812 l 1
 443.380104485 426.018554688 l 1
 435.387999221 434.836914062 l 2
 402.532090433 471.090820312 351.966981677 495 281.53950133 495 c 0
 136.622070312 495 43 389.009765625 43 239.112304688 c 0
 43 91.0625 134.81640625 -5 275.319542136 -5 c 0
 346.165773336 -5 399.630071564 21.5439453125 434.58633655 59.560546875 c 2
 442.912310738 68.615234375 l 1
 442.912310738 -200 l 1
 541 -200 l 1
285.686455171 85 m 0
 198.624945967 85 143 144.634765625 143 241.2421875 c 0
 143 339.84375 200.914871808 405 287.760403657 405 c 0
 394.195741788 405 442.912310738 322.93359375 442.912310738 254.393554688 c 2
 442.912310738 233.727539062 l 2
 442.912310738 167.184570312 392.210447761 85 285.686455171 85 c 0
EndSplineSet
Substitution2: "'smcp' Lowercase to Small Capitals in Latin lookup 21 subtable" q.sc
Substitution2: "'aalt' Access All Alternates in Latin lookup 0 subtable" q.sc
EndChar

StartChar: r
Encoding: 114 114 83
Width: 344
GlyphClass: 2
Flags: HW
AnchorPoint: "Anchor-7" 0 0 basechar 0
AnchorPoint: "Anchor-6" 0 0 basechar 0
AnchorPoint: "Anchor-5" 123 0 basechar 0
AnchorPoint: "Anchor-4" 197 490 basechar 0
AnchorPoint: "Anchor-3" 0 0 basechar 0
LayerCount: 2
Fore
SplineSet
323.907226562 391.955078125 m 1
 325.048828125 491.267578125 l 1
 314.2890625 493.25 307.770507812 495 292 495 c 0
 239.405273438 495 201.799804688 471.2734375 176.149414062 436.981445312 c 2
 167.509765625 425.430664062 l 1
 165.875 490 l 1
 73 490 l 1
 73 10 l 1
 171 10 l 1
 171 259.89453125 l 2
 171 352.3984375 227.428710938 399 286 399 c 0
 305.873046875 399 313.913085938 396.954101562 316.771484375 395.5234375 c 2
 323.907226562 391.955078125 l 1
EndSplineSet
Substitution2: "'smcp' Lowercase to Small Capitals in Latin lookup 21 subtable" r.sc
Substitution2: "'aalt' Access All Alternates in Latin lookup 0 subtable" r.sc
EndChar

StartChar: s
Encoding: 115 115 84
Width: 492
GlyphClass: 2
Flags: HW
AnchorPoint: "Anchor-7" 0 0 basechar 0
AnchorPoint: "Anchor-6" 0 0 basechar 0
AnchorPoint: "Anchor-5" 241 0 basechar 0
AnchorPoint: "Anchor-4" 240 491 basechar 0
AnchorPoint: "Anchor-3" 0 0 basechar 0
LayerCount: 2
Fore
SplineSet
149.1328125 351.626953125 m 0
 149.1328125 386.34765625 179.136641212 408.265625 248.309809668 408.265625 c 0
 311.898231767 408.265625 347.379882812 384.305664062 351.125 338.44921875 c 2
 351.501953125 333.83203125 l 1
 443.325195312 332.689453125 l 1
 443.102539062 338.07421875 l 2
 440.833007812 393.094726562 420.360351562 435.854492188 381.455078125 462.641601562 c 0
 350.53125 483.93359375 306.612421114 495 250.41988978 495 c 0
 124.3203125 495 52.1083984375 438.026367188 52.1083984375 356.188476562 c 0
 52.1083984375 247.744140625 149.114257812 226.172851562 233.516182855 208.381835938 c 0
 300.672457947 194.225585938 353.108398438 182.580078125 353.108398438 138.373046875 c 0
 353.108398438 105.869140625 324.091856062 81.734375 245.144228179 81.734375 c 0
 208.186917738 81.734375 182.176743516 86.9521484375 164.519238842 96.28125 c 0
 140.807617188 108.788085938 132.568359375 127.80078125 129.610351562 156.16796875 c 1
 39 157.309570312 l 1
 39.1083984375 152.034179688 l 2
 40.2431640625 97.05078125 59.29296875 54.1142578125 100.196289062 27.294921875 c 0
 132.684570312 5.9931640625 180.044520018 -5 244.089649443 -5 c 0
 376.723632812 -5 450.108398438 51.8564453125 450.108398438 133.811523438 c 0
 450.108398438 246.673828125 351.104492188 267.741210938 266.659295139 284.862304688 c 0
 200.628642146 298.1484375 149.1328125 308.899414062 149.1328125 351.626953125 c 0
EndSplineSet
Substitution2: "'smcp' Lowercase to Small Capitals in Latin lookup 21 subtable" s.sc
Substitution2: "'aalt' Access All Alternates in Latin lookup 0 subtable" s.sc
EndChar

StartChar: t
Encoding: 116 116 85
Width: 391
GlyphClass: 2
Flags: HW
AnchorPoint: "Anchor-7" 296 746 basechar 0
AnchorPoint: "Anchor-6" 134 276 basechar 0
AnchorPoint: "Anchor-5" 235 0 basechar 0
AnchorPoint: "Anchor-4" 206 490 basechar 0
AnchorPoint: "Anchor-3" 0 0 basechar 0
LayerCount: 2
Fore
SplineSet
217.825736935 126.474609375 m 0
 205.102391347 142.19140625 200.050264246 165.012695312 200.050264246 194.79296875 c 2
 200.050264246 406 l 1
 363 406 l 1
 363 490 l 1
 200.050264246 490 l 1
 200.050264246 636 l 1
 101 636 l 1
 101 490 l 1
 22 490 l 1
 22 404 l 1
 96 404 l 1
 96 191.53125 l 2
 96 122.060546875 117.856445312 73.5556640625 161.095752363 44.2001953125 c 0
 197.288053112 20.6669921875 246.324456736 10 302 10 c 0
 318.618164062 10 347.37109375 11.5400390625 371 13.4091796875 c 1
 371 100.466796875 l 1
 349.248046875 98.6748046875 322.138671875 97 308 97 c 0
 260.912109375 97 233.273724724 107.392578125 217.825736935 126.474609375 c 0
EndSplineSet
Substitution2: "'ss04' Style Set 4 in Latin lookup 28 subtable" t.ss01
Substitution2: "'ss03' Style Set 3 in Latin lookup 27 subtable" t.ss02
Substitution2: "'ss02' Style Set 2 in Latin lookup 26 subtable" t.ss02
Substitution2: "'ss01' Style Set 1 in Latin lookup 25 subtable" t.ss01
Substitution2: "'salt' Stylistic Alternatives in Latin lookup 24 subtable" t.ss01
Substitution2: "'smcp' Lowercase to Small Capitals in Latin lookup 21 subtable" t.sc
AlternateSubs2: "'aalt' Access All Alternates in Latin lookup 1 subtable" t.sc t.ss01 t.ss02
EndChar

StartChar: u
Encoding: 117 117 86
Width: 572
GlyphClass: 2
Flags: HW
AnchorPoint: "Anchor-7" 0 0 basechar 0
AnchorPoint: "Anchor-6" 0 0 basechar 0
AnchorPoint: "Anchor-5" 278 0 basechar 0
AnchorPoint: "Anchor-4" 273 490 basechar 0
AnchorPoint: "Anchor-3" 479 0 basechar 0
LayerCount: 2
Fore
SplineSet
401 480 m 1
 401 204.047851562 l 2
 401 124.71875 346.780628109 80 276.701638293 80 c 0
 237.078863495 80 208.416428599 91.48828125 190.430372551 112.5234375 c 0
 175.305664062 129.473632812 167 153.200195312 167 183.095703125 c 2
 167 480 l 1
 68 480 l 1
 68 167.815429688 l 2
 68 62.9609375 136.12109375 -5 249.686363106 -5 c 0
 312.547545476 -5 361.357295553 18.435546875 394.93359375 53.3896484375 c 2
 402.857421875 61.4189453125 l 1
 406.270507812 0 l 1
 499 0 l 1
 499 480 l 1
 401 480 l 1
EndSplineSet
Substitution2: "'ss03' Style Set 3 in Latin lookup 27 subtable" u.ss01
Substitution2: "'ss02' Style Set 2 in Latin lookup 26 subtable" u.ss01
Substitution2: "'smcp' Lowercase to Small Capitals in Latin lookup 21 subtable" u.sc
AlternateSubs2: "'aalt' Access All Alternates in Latin lookup 1 subtable" u.sc u.ss01
EndChar

StartChar: v
Encoding: 118 118 87
Width: 527
GlyphClass: 2
Flags: HW
LayerCount: 2
Fore
SplineSet
319.354545906 5 m 1
 514.20703125 485 l 1
 413.55078125 485 l 1
 279.128128608 133.328125 l 2
 274.910941502 122.235351562 272.027081333 111.243164062 268.576228116 99.7900390625 c 1
 264.582829311 111.756835938 261.364226978 121.774414062 256.577225962 133.701171875 c 2
 124.721679688 485 l 1
 15 485 l 1
 212.38185732 5 l 1
 319.354545906 5 l 1
EndSplineSet
Substitution2: "'smcp' Lowercase to Small Capitals in Latin lookup 21 subtable" v.sc
Substitution2: "'aalt' Access All Alternates in Latin lookup 0 subtable" v.sc
EndChar

StartChar: w
Encoding: 119 119 88
Width: 800
GlyphClass: 2
Flags: HW
AnchorPoint: "Anchor-7" 0 0 basechar 0
AnchorPoint: "Anchor-6" 0 0 basechar 0
AnchorPoint: "Anchor-5" 379 0 basechar 0
AnchorPoint: "Anchor-4" 379 490 basechar 0
AnchorPoint: "Anchor-3" 0 0 basechar 0
LayerCount: 2
Fore
SplineSet
612.543196346 5 m 1
 784.08984375 485 l 1
 674.614257812 485 l 1
 564.696591806 133.125 l 2
 560.844177324 118.552734375 557.701872079 107.927734375 553.828374732 94.4560546875 c 1
 550.057416775 107.517578125 546.436913812 119.778320312 542.813535912 133.31640625 c 2
 449.594688572 485 l 1
 353.563195335 485 l 1
 240.876238492 133.17578125 l 2
 237.27969333 119.744140625 233.688898041 107.580078125 229.947647758 94.61328125 c 1
 226.199689291 107.60546875 222.597394256 119.80859375 218.99414091 133.266601562 c 2
 128.541015625 485 l 1
 19 485 l 1
 171.320032541 5 l 1
 280.944224039 5 l 1
 402.104576118 362.201171875 l 1
 502.982253443 5 l 1
 612.543196346 5 l 1
EndSplineSet
Substitution2: "'smcp' Lowercase to Small Capitals in Latin lookup 21 subtable" w.sc
Substitution2: "'aalt' Access All Alternates in Latin lookup 0 subtable" w.sc
EndChar

StartChar: x
Encoding: 120 120 89
Width: 493
GlyphClass: 2
Flags: HW
LayerCount: 2
Fore
SplineSet
250.298635485 189.14453125 m 1
 372.431640625 5 l 1
 487.359375 5 l 1
 312.315492444 251.684570312 l 1
 483.51953125 485 l 1
 371.498046875 485 l 1
 250.298635485 310.53125 l 1
 129.109375 485 l 1
 13 485 l 1
 189.315783058 248.771484375 l 1
 17.283203125 5 l 1
 128.176757812 5 l 1
 250.298635485 189.14453125 l 1
EndSplineSet
Substitution2: "'smcp' Lowercase to Small Capitals in Latin lookup 21 subtable" x.sc
Substitution2: "'aalt' Access All Alternates in Latin lookup 0 subtable" x.sc
EndChar

StartChar: y
Encoding: 121 121 90
Width: 572
GlyphClass: 2
Flags: HW
AnchorPoint: "Anchor-7" 0 0 basechar 0
AnchorPoint: "Anchor-6" 0 0 basechar 0
AnchorPoint: "Anchor-5" 276 0 basechar 0
AnchorPoint: "Anchor-4" 276 490 basechar 0
AnchorPoint: "Anchor-3" 0 0 basechar 0
LayerCount: 2
Fore
SplineSet
401 480 m 1
 401 204.047851562 l 2
 401 124.71875 346.780628109 80 276.701638293 80 c 0
 237.078863495 80 208.416428599 91.48828125 190.430372551 112.5234375 c 0
 175.305664062 129.473632812 167 153.200195312 167 183.095703125 c 2
 167 480 l 1
 68 480 l 1
 68 167.815429688 l 2
 68 62.9609375 136.12109375 -5 249.686363106 -5 c 0
 312.488154928 -5 360.899802744 18.4375 394.477539062 52.7314453125 c 2
 403 61.197265625 l 1
 403 46.7978515625 403 32.3994140625 403 18 c 0
 403 -16.083984375 395.703125 -46.171875 377.649793027 -68.8740234375 c 0
 356.301675218 -97.0146484375 318.788192825 -115 255.920514614 -115 c 0
 187.999023438 -115 137.580078125 -111.608398438 86 -106.45703125 c 1
 86 -191.522460938 l 1
 138.329101562 -196.673828125 187.079101562 -200 256.959849192 -200 c 0
 351.149545243 -200 416.612304688 -172.009765625 454.567382812 -124.989257812 c 0
 484.9375 -88.552734375 499 -40.7265625 499 13.3837890625 c 2
 499 480 l 1
 401 480 l 1
EndSplineSet
Substitution2: "'ss04' Style Set 4 in Latin lookup 28 subtable" y.ss01
Substitution2: "'ss03' Style Set 3 in Latin lookup 27 subtable" y.ss02
Substitution2: "'ss02' Style Set 2 in Latin lookup 26 subtable" y.ss01
Substitution2: "'ss01' Style Set 1 in Latin lookup 25 subtable" y.ss01
Substitution2: "'salt' Stylistic Alternatives in Latin lookup 24 subtable" y.ss01
Substitution2: "'smcp' Lowercase to Small Capitals in Latin lookup 21 subtable" y.sc
AlternateSubs2: "'aalt' Access All Alternates in Latin lookup 1 subtable" y.sc y.ss01 y.ss02
EndChar

StartChar: z
Encoding: 122 122 91
Width: 480
GlyphClass: 2
Flags: HW
AnchorPoint: "Anchor-7" 0 0 basechar 0
AnchorPoint: "Anchor-6" 0 0 basechar 0
AnchorPoint: "Anchor-5" 0 0 basechar 0
AnchorPoint: "Anchor-4" 239 490 basechar 0
AnchorPoint: "Anchor-3" 0 0 basechar 0
LayerCount: 2
Fore
SplineSet
45 401 m 1
 311.107477679 401 l 1
 38 79.4619140625 l 1
 38 5 l 1
 443 5 l 1
 443 89 l 1
 162.42608817 89 l 1
 435 411.501953125 l 1
 435 485 l 1
 45 485 l 1
 45 401 l 1
EndSplineSet
Substitution2: "'smcp' Lowercase to Small Capitals in Latin lookup 21 subtable" z.sc
Substitution2: "'aalt' Access All Alternates in Latin lookup 0 subtable" z.sc
EndChar

StartChar: braceleft
Encoding: 123 123 92
Width: 321
GlyphClass: 2
Flags: HMW
LayerCount: 2
Fore
SplineSet
198 611 m 2
 198 655.301750706 215.661173788 681 259 681 c 2
 294 681 l 1
 294 769 l 1
 259 769 l 2
 161.110882684 769 102 708.355446781 102 611 c 2
 102 421 l 2
 102 373.983318179 70.7233598813 357 44 357 c 2
 29 357 l 1
 29 265 l 1
 44 265 l 2
 70.7233598813 265 102 248.016681821 102 201 c 2
 102 11 l 2
 102 -86.3596748622 161.098404196 -147 259 -147 c 2
 294 -147 l 1
 294 -59 l 1
 259 -59 l 2
 215.659942373 -59 198 -33.2875821472 198 11 c 2
 198 214 l 2
 198 258.267492137 182.528225624 291.450235821 160.944523855 306.934697364 c 2
 155.277921922 311 l 1
 160.944523855 315.065302636 l 2
 182.528225624 330.549764179 198 363.732507863 198 408 c 2
 198 611 l 2
EndSplineSet
Substitution2: "'case' Case-Sensitive Forms in Latin lookup 22 subtable" braceleft.case
Substitution2: "'aalt' Access All Alternates in Latin lookup 0 subtable" braceleft.case
EndChar

StartChar: bar
Encoding: 124 124 93
Width: 256
GlyphClass: 2
Flags: HMW
LayerCount: 2
Fore
SplineSet
80 715 m 1
 80 -175 l 1
 176 -175 l 1
 176 715 l 1
 80 715 l 1
EndSplineSet
EndChar

StartChar: braceright
Encoding: 125 125 94
Width: 321
GlyphClass: 2
Flags: HMW
LayerCount: 2
Fore
SplineSet
62 -147 m 2
 159.889117316 -147 219 -86.355446781 219 11 c 2
 219 201 l 2
 219 248.016681821 250.276640119 265 277 265 c 2
 292 265 l 1
 292 357 l 1
 277 357 l 2
 250.276640119 357 219 373.983318179 219 421 c 2
 219 611 l 2
 219 708.359674862 159.901595804 769 62 769 c 2
 27 769 l 1
 27 681 l 1
 62 681 l 2
 105.340057627 681 123 655.287582147 123 611 c 2
 123 408 l 2
 123 363.661193296 139.063557036 330.531616017 160.465983747 315.054199046 c 2
 166.072196859 311 l 1
 160.465983747 306.945800954 l 2
 139.063557036 291.468383983 123 258.338806704 123 214 c 2
 123 11 l 2
 123 -33.3017507061 105.338826212 -59 62 -59 c 2
 27 -59 l 1
 27 -147 l 1
 62 -147 l 2
EndSplineSet
Substitution2: "'case' Case-Sensitive Forms in Latin lookup 22 subtable" braceright.case
Substitution2: "'aalt' Access All Alternates in Latin lookup 0 subtable" braceright.case
EndChar

StartChar: asciitilde
Encoding: 126 126 95
Width: 602
GlyphClass: 2
Flags: HMW
LayerCount: 2
Fore
SplineSet
414.934364524 282 m 0
 497.994193731 282 559.836734694 320.136338055 559.836734694 399 c 2
 559.836734694 404 l 1
 484.836734694 404 l 1
 484.836734694 399 l 2
 484.836734694 377.678876931 461.53652109 362 417.583391977 362 c 0
 394.738380895 362 372.326501021 370.565346916 346.523418099 380.535286544 c 0
 313.665033373 393.231326288 275.384294902 408 224.130893737 408 c 0
 181.568980665 408 148.296831325 400.034879321 124.222884439 384.177175102 c 0
 93.9782448579 364.254785518 79.2857142857 332.179001737 79.2857142857 291 c 2
 79.2857142857 286 l 1
 155.285714286 286 l 1
 155.285714286 291 l 2
 155.285714286 311.544286459 176.551474845 329 222.56860554 329 c 0
 245.699143636 329 268.951236767 319.98522932 295.331846993 309.657243827 c 0
 328.210216565 296.78529152 366.069944038 282 414.934364524 282 c 0
EndSplineSet
EndChar

StartChar: exclamdown
Encoding: 161 161 96
Width: 246
GlyphClass: 2
Flags: HMW
LayerCount: 2
Fore
SplineSet
121 472 m 0
 160.413454769 472 188 498.3024238 188 537 c 0
 188 575.6975762 160.413454769 602 121 602 c 0
 81.5865452309 602 54 575.6975762 54 537 c 0
 54 498.3024238 81.5865452309 472 121 472 c 0
81.0885032868 365.8125 m 1
 70.9098720486 -204 l 1
 176.090127951 -204 l 1
 165.911496713 365.8125 l 1
 81.0885032868 365.8125 l 1
EndSplineSet
Substitution2: "'case' Case-Sensitive Forms in Latin lookup 22 subtable" exclamdown.case
Substitution2: "'aalt' Access All Alternates in Latin lookup 0 subtable" exclamdown.case
EndChar

StartChar: cent
Encoding: 162 162 97
Width: 587
GlyphClass: 2
Flags: HMW
LayerCount: 2
Fore
SplineSet
308.540739604 160 m 0
 211.667669836 160 149.183673469 227.316877455 149.183673469 330 c 0
 149.183673469 433.675569431 211.642327285 500 308.540739604 500 c 0
 390.010742052 500 429.811189156 454.101377037 440.778066881 395.082293918 c 2
 441.536635396 391 l 1
 564.599276971 391 l 1
 563.832316384 396.67479929 l 2
 550.577306057 494.749621464 478.093454207 562.39343589 363.42992674 579.761291966 c 2
 359.183673469 580.40446349 l 1
 359.183673469 675 l 1
 257.183673469 675 l 1
 257.183673469 580.268966693 l 1
 253.109900563 579.504632741 l 2
 129.373374228 556.28880054 49.1836734694 459.456539678 49.1836734694 330 c 0
 49.1836734694 203.440513752 129.37098947 104.775889067 253.14788796 80.554081072 c 2
 257.183673469 79.7643212467 l 1
 257.183673469 -15 l 1
 359.183673469 -15 l 1
 359.183673469 78.6146940883 l 1
 363.414388148 79.2691673118 l 2
 481.369814929 97.5163605775 548.161238056 165.202985105 563.810906275 260.182392611 c 2
 564.769468008 266 l 1
 441.575653824 266 l 1
 440.78670061 261.962998922 l 2
 429.829804972 205.897571081 392.302786195 160 308.540739604 160 c 0
EndSplineSet
Substitution2: "'smcp' Lowercase to Small Capitals in Latin lookup 21 subtable" cent.sc
Substitution2: "'c2sc' Capitals to Small Capitals in Latin lookup 20 subtable" cent.sc
Substitution2: "'aalt' Access All Alternates in Latin lookup 0 subtable" cent.sc
EndChar

StartChar: sterling
Encoding: 163 163 98
Width: 650
GlyphClass: 2
Flags: HMW
LayerCount: 2
Fore
SplineSet
379.182677949 611 m 0
 467.950175537 611 521.014688657 570.339340591 522.204575341 484.929084352 c 2
 522.273244516 480 l 1
 619.167678657 480 l 1
 619.192630003 482.445168106 619.214096391 484.878738129 619.214096391 487.311061303 c 0
 619.214096391 617.000544196 525.670349889 699 380.551020408 699 c 0
 314.761847676 699 260.255518195 682.598741588 219.928720959 651.751361672 c 0
 169.448077264 613.136948893 141.897959184 552.300975979 141.897959184 475 c 0
 141.897959184 437.621634937 144.769672602 399.025529567 148.357966228 362 c 1
 52.7959183673 362 l 1
 52.7959183673 275 l 1
 158.512808849 275 l 1
 162.859134154 240.307467106 165.897959184 206.235261062 165.897959184 178 c 0
 165.897959184 134.545637583 157.411657553 109.571286111 136.861644814 95.4880605974 c 0
 120.133443988 84.0239789122 94.102751373 79 55.387755102 79 c 2
 50.387755102 79 l 1
 50.387755102 -5 l 1
 619.204081633 -5 l 1
 619.204081633 83 l 1
 238.916949605 83 l 1
 242.565915857 90.2443652693 l 2
 256.891342923 118.68492052 264.897959184 153.238347042 264.897959184 192 c 0
 264.897959184 216.610385098 261.961960777 246.387211422 258.564008564 275 c 1
 529.795918367 275 l 1
 529.795918367 362 l 1
 247.386540948 362 l 1
 243.735462713 397.755661821 240.897959184 435.850437131 240.897959184 475 c 0
 240.897959184 526.342183481 255.20878777 562.270754199 283.050953976 584.219558176 c 0
 305.415396676 601.850110527 337.243623481 611 379.182677949 611 c 0
EndSplineSet
Substitution2: "'smcp' Lowercase to Small Capitals in Latin lookup 21 subtable" sterling.sc
Substitution2: "'c2sc' Capitals to Small Capitals in Latin lookup 20 subtable" sterling.sc
Substitution2: "'aalt' Access All Alternates in Latin lookup 0 subtable" sterling.sc
EndChar

StartChar: currency
Encoding: 164 164 99
Width: 653
GlyphClass: 2
Flags: HMW
LayerCount: 2
Fore
SplineSet
566.734693878 375.989247312 m 0
 566.734693878 433.880203678 555.703091658 485.967419789 537.714179578 530.912260032 c 1
 617.310616711 604.020727566 l 1
 542.594283257 671.880685237 l 1
 470.770736256 601.089085751 l 1
 432.990387421 618.981375972 388.213117394 630 336.857142857 630 c 0
 284.346279336 630 240.624276215 618.927598279 202.910422121 600.158505059 c 1
 131.201937584 671.84638371 l 1
 55.1268927183 605.082015977 l 1
 135.999048361 530.909759297 l 1
 118.01091554 485.964870692 106.979591837 433.881572436 106.979591837 375.989247312 c 0
 106.979591837 318.090191388 118.064098124 266.006514299 136.938473365 221.040632153 c 1
 56.7256245724 148.296664122 l 1
 132.167353542 66.4187564852 l 1
 203.231221322 151.648717219 l 1
 206.757428059 149.906594149 l 2
 243.378526485 131.813933915 286.475160798 121.978494624 336.857142857 121.978494624 c 0
 386.043468378 121.978494624 430.040777302 131.753445813 465.833011175 149.846929937 c 2
 469.34573766 151.622663217 l 1
 541.579528779 66.4541340145 l 1
 616.988661142 148.296664122 l 1
 536.775812349 221.040632153 l 1
 555.650280448 266.006735522 566.734693878 318.087608845 566.734693878 375.989247312 c 0
336.697653357 217.977245862 m 2
 335.950116081 217.977245862 335.185422052 217.959230399 334.404385099 217.959230399 c 0
 252.573917585 217.959230399 200.979591837 284.960802608 200.979591837 375.989247312 c 0
 200.979591837 465.698861356 252.626467767 534.018909254 334.449308752 534.018909254 c 0
 335.222375415 534.018909254 335.918665723 534.013454868 336.697653357 534.001248761 c 2
 336.936887607 534.001248761 l 2
 337.715882093 534.013454975 338.49181322 534.018909254 339.264668079 534.018909254 c 2
 341.594399831 534.018909254 l 1
 354.138332115 519.076729183 371.095924872 507.058025524 390.28583079 493.983322451 c 0
 428.449692725 467.981049953 471.884736662 438.551205702 472.733350504 375.919939043 c 1
 471.515244087 284.85078017 421.038962448 217.959230399 339.309580113 217.959230399 c 0
 338.52187256 217.959230399 337.810715153 217.964803227 337.016632357 217.977245862 c 2
 336.697653357 217.977245862 l 2
EndSplineSet
EndChar

StartChar: yen
Encoding: 165 165 100
Width: 724
GlyphClass: 2
Flags: HMW
AnchorPoint: "Anchor-2" 4.4898 0 basechar 0
AnchorPoint: "Anchor-1" 365.49 696 basechar 0
AnchorPoint: "Anchor-0" 4.4898 0 basechar 0
LayerCount: 2
Fore
SplineSet
584.265306122 363 m 1
 478.275538242 363 l 1
 715.479619874 691 l 1
 586.252246478 691 l 1
 366.48241045 367.879052791 l 1
 145.926097673 691 l 1
 16.7040535952 691 l 1
 253.908135228 363 l 1
 147.918367347 363 l 1
 147.918367347 276 l 1
 316.489795918 276 l 1
 316.489795918 214 l 1
 147.918367347 214 l 1
 147.918367347 127 l 1
 316.489795918 127 l 1
 316.489795918 -5 l 1
 414.489795918 -5 l 1
 414.489795918 127 l 1
 584.265306122 127 l 1
 584.265306122 214 l 1
 414.489795918 214 l 1
 414.489795918 276 l 1
 584.265306122 276 l 1
 584.265306122 363 l 1
EndSplineSet
Substitution2: "'smcp' Lowercase to Small Capitals in Latin lookup 21 subtable" yen.sc
Substitution2: "'c2sc' Capitals to Small Capitals in Latin lookup 20 subtable" yen.sc
Substitution2: "'aalt' Access All Alternates in Latin lookup 0 subtable" yen.sc
EndChar

StartChar: brokenbar
Encoding: 166 166 101
Width: 262
GlyphClass: 2
Flags: HMW
LayerCount: 2
Fore
SplineSet
83 715 m 1
 83 345 l 1
 179 345 l 1
 179 715 l 1
 83 715 l 1
83 195 m 1
 83 -175 l 1
 179 -175 l 1
 179 195 l 1
 83 195 l 1
EndSplineSet
EndChar

StartChar: section
Encoding: 167 167 102
Width: 578
GlyphClass: 2
Flags: HMW
LayerCount: 2
Fore
SplineSet
82.7755102041 530 m 0
 82.7755102041 468.797840641 105.978438256 429.752917993 139.428354932 403.722432737 c 2
 145.003747942 399.383701883 l 1
 139.058725117 395.564537848 l 2
 89.9997266043 364.048365717 62.7755102041 314.692213088 62.7755102041 256 c 0
 62.7755102041 129.377395812 176.344507251 103.809202671 274.111587679 81.546294554 c 0
 356.441453528 62.7965493649 425.040816327 46.2988188252 425.040816327 -17 c 0
 425.040816327 -65.6392950152 377.88872847 -100 286.089506669 -100 c 0
 188.701483644 -100 137.775510204 -60.8747078583 137.775510204 -5 c 2
 137.775510204 -0.0613402108959 l 1
 46.7755102041 1.06211657923 l 1
 46.7755102041 -4 l 2
 46.7755102041 -117.539406311 135.285937711 -185 284.408163265 -185 c 0
 433.349925454 -185 522.040816327 -117.832000468 522.040816327 -17 c 0
 522.040816325 47.4680583115 498.244426529 87.6582906136 464.117584861 113.927851817 c 2
 458.255845333 118.439998789 l 1
 464.627121895 122.201071555 l 2
 514.904837925 151.880861254 542.040816327 199.381116698 542.040816327 257 c 0
 542.040816327 389.556238628 425.722125735 414.666866635 326.982641659 436.170421386 c 0
 246.070971484 453.792668068 179.772749592 469.118445614 179.772749592 530 c 2
 179.772749592 530.178911733 l 2
 179.761630658 530.675124209 179.756093268 531.169314256 179.756093268 531.661466275 c 0
 179.756093268 577.307291981 228.679080243 611 310.313697531 611 c 0
 390.153216161 611 442.040816327 577.967537936 442.040816327 518 c 2
 442.040816327 513 l 1
 532.998032326 513 l 1
 533.026788792 515.359420671 533.051354485 517.705076086 533.051354485 520.048328445 c 0
 533.051354485 630.399371254 443.23467912 696 307.353672955 696 c 0
 171.848022829 696 82.7755102041 630.778687719 82.7755102041 530 c 0
159.772390914 256.251977095 m 2
 159.772390914 256.762049571 159.752501428 257.292884573 159.752501428 257.858460033 c 0
 159.752502025 297.814588579 201.534027923 346.876823083 275.607491025 354.942865511 c 1
 281.867949205 353.564483582 288.128406665 352.186100932 294.388864574 350.807718732 c 0
 377.64970219 332.591349612 445.040816327 316.892957862 445.040816327 257 c 0
 445.040816327 211.645060253 404.119017058 171.295016048 317.189575836 165.034009307 c 1
 233.157725439 181.912384797 159.772390914 196.113484676 159.772390914 256 c 2
 159.772390914 256.251977095 l 2
EndSplineSet
EndChar

StartChar: dieresis
Encoding: 168 168 103
Width: 368
GlyphClass: 2
Flags: HMW
LayerCount: 2
Fore
SplineSet
91.1224489796 709 m 0
 55.6159422279 709 31.1224489796 684.615002859 31.1224489796 650 c 0
 31.1224489796 616.312497884 55.6545401597 592 91.1224489796 592 c 0
 126.5903578 592 151.12244898 616.312497884 151.12244898 650 c 0
 151.12244898 684.615002859 126.628955731 709 91.1224489796 709 c 0
290.224489796 709 m 0
 254.717983044 709 230.224489796 684.615002859 230.224489796 650 c 0
 230.224489796 616.312497884 254.756580976 592 290.224489796 592 c 0
 325.692398616 592 350.224489796 616.312497884 350.224489796 650 c 0
 350.224489796 684.615002859 325.730996548 709 290.224489796 709 c 0
EndSplineSet
Substitution2: "'case' Case-Sensitive Forms in Latin lookup 22 subtable" dieresis.case
Substitution2: "'aalt' Access All Alternates in Latin lookup 0 subtable" dieresis.case
EndChar

StartChar: copyright
Encoding: 169 169 104
Width: 881
GlyphClass: 2
Flags: HMW
LayerCount: 2
Fore
SplineSet
763.273026751 345.092527965 m 0
 763.273026751 344.406990574 763.270373227 343.687131842 763.265306122 343 c 0
 763.265306122 186.206143277 633.645855565 70 450.514826925 70 c 0
 266.199619141 70 136.59169826 186.175527532 136.59169826 342.962433395 c 0
 137.253486547 432.705163519 179.835768419 509.955556505 251.517826042 559.101354888 c 2
 270.88839414 572.381973021 l 1
 258.6050391 552.364857841 l 2
 233.35349036 511.214605491 219.306122449 460.070133548 219.306122449 402.381512605 c 0
 219.306122449 253.584313673 314.091998053 143.571428571 460.85528757 143.571428571 c 0
 581.403608331 143.571428571 662.671012502 216.249771213 675.701929635 329.853605577 c 2
 676.341405568 335.428571429 l 1
 565.272122413 335.428571429 l 1
 564.645099242 331.160297176 l 2
 555.261485008 267.28412655 517.342530705 223.571428571 451.591836735 223.571428571 c 2
 449.125588463 223.571428571 l 1
 436.565373179 239.955075916 419.424203355 252.416993067 399.667598936 266.15416222 c 0
 359.788122751 293.883173665 314.155598814 325.743649134 313.307028311 402.48539806 c 1
 314.529257247 514.064223601 368.499250839 580 450.387755102 580 c 0
 521.928114131 580 555.222797959 531.463381467 564.649433527 469.810788249 c 2
 565.297628463 465.571428571 l 1
 676.23641828 465.571428571 l 1
 673.551234504 493.625712267 667.996396942 518.137352522 657.824291816 541.201949628 c 2
 649.657167942 559.720380115 l 1
 665.507429541 547.133136543 l 2
 727.025223778 498.279718245 763.273026751 426.921408181 763.273026751 345.092527965 c 0
450.496156904 -11 m 0
 686.525692605 -11 848.265306122 137.926525266 848.265306122 343 c 2
 848.271325909 345.137692597 l 2
 848.271325909 548.163059936 685.684451721 697 450.496156904 697 c 0
 214.448578356 697 52.7442870622 547.073978452 51.5919179758 343.02877622 c 0
 51.5919179758 137.94825268 213.343186657 -11 450.496156904 -11 c 0
EndSplineSet
EndChar

StartChar: ordfeminine
Encoding: 170 170 105
Width: 495
GlyphClass: 2
Flags: HW
AnchorPoint: "Anchor-7" 9.59184 0 basechar 0
AnchorPoint: "Anchor-6" 9.59184 0 basechar 0
AnchorPoint: "Anchor-5" 264 0 basechar 0
AnchorPoint: "Anchor-4" 9.59184 0 basechar 0
AnchorPoint: "Anchor-3" 462.245 1 basechar 0
LayerCount: 2
Fore
SplineSet
86.5302734375 368.204101562 m 0
 111.431640625 335.670898438 151.358398438 317 206.596258407 317 c 0
 276.028523352 317 316.755782948 337.5390625 339.534179688 356.68359375 c 2
 347.512695312 363.279296875 l 1
 347.7890625 349.186523438 348.065429688 335.092773438 348.342773438 321 c 1
 442.245117188 321 l 1
 442.245117188 548.918945312 l 2
 442.245117188 635.521484375 374.322265625 692 254.154344279 692 c 0
 181.645237585 692 127.702148438 681.315429688 96.31640625 660.827148438 c 0
 80.5947265625 650.565429688 70.0126953125 637.467773438 66.708984375 621.772460938 c 2
 65.369140625 615.408203125 l 1
 181.915729167 615.408203125 l 1
 155.071289062 605.2421875 l 2
 94.552734375 582.6328125 56.591796875 539.205078125 56.591796875 468.51171875 c 0
 56.591796875 428.609375 66.6328125 394.19921875 86.5302734375 368.204101562 c 0
167.190429688 419.931640625 m 0
 158.299804688 433.013671875 153.591796875 451.297851562 153.591796875 474.6171875 c 0
 153.591796875 506.432617188 168.484375 528.791015625 198.58568675 542.321289062 c 0
 222.398998045 553.213867188 256.431590979 559 301.207999903 559 c 0
 315.706714244 564 330.750976562 564 346.245117188 559 c 1
 346.245117188 545.670898438 346.245117188 532.340820312 346.245117188 519.01171875 c 0
 346.245117188 462.484375 301.839451536 395 225.603775002 395 c 0
 197.941441596 395 179.397233219 403.819335938 167.190429688 419.931640625 c 0
EndSplineSet
EndChar

StartChar: guillemotleft
Encoding: 171 171 106
Width: 500
GlyphClass: 2
Flags: HMW
LayerCount: 2
Fore
SplineSet
27 248.893614328 m 1
 27 233.115924448 l 1
 160.739504045 81 l 1
 268.824362773 81 l 1
 132.564737414 241.001832808 l 1
 267.81642509 400 l 1
 160.749571101 400 l 1
 27 248.893614328 l 1
214 248.893614328 m 1
 214 243.634384368 214 238.375154408 214 233.115924448 c 1
 347.739504045 81 l 1
 455.824362773 81 l 1
 319.564737414 241.001832808 l 1
 454.81642509 400 l 1
 347.749571101 400 l 1
 214 248.893614328 l 1
EndSplineSet
Substitution2: "'case' Case-Sensitive Forms in Latin lookup 22 subtable" guillemotleft.case
Substitution2: "'aalt' Access All Alternates in Latin lookup 0 subtable" guillemotleft.case
EndChar

StartChar: registered
Encoding: 174 174 107
Width: 566
GlyphClass: 2
Flags: HMW
LayerCount: 2
Fore
SplineSet
291.325724211 636 m 0
 398.022004095 636 471.795918367 564.986737457 471.795918367 472 c 0
 471.795918367 426.703603998 453.97609072 386.606466355 423.273319239 357.544016025 c 2
 419.033384906 353.530603718 l 1
 417.586112921 355.631079396 416.138840937 357.731555074 414.691568953 359.832030752 c 0
 402.437462196 377.616837944 395.723605045 394.841719262 389.118352756 411.500676347 c 0
 384.274873156 423.716306467 379.335718436 434.838128213 373.133861757 445.369765507 c 1
 376.938829402 448.021077339 l 2
 397.3425469 462.238443335 410.755102041 484.19237281 410.755102041 514 c 0
 410.755102041 544.247575421 398.594017487 567.129270626 375.420516121 580.894558568 c 0
 357.008093038 591.831719139 332.225045323 597 301.601131542 597 c 2
 183.857142857 597 l 1
 183.857142857 352 l 1
 257.857142857 352 l 1
 257.857142857 429 l 1
 268.523102748 429 279.189062638 429 289.855022528 429 c 0
 295.760235583 429 300.870897775 425.965362274 305.787738235 420.010629577 c 0
 312.04803617 412.428849954 317.553445846 400.572356122 323.543633467 387.459513305 c 0
 328.836786631 375.872516398 335.107698297 363.255488808 342.027939972 352 c 1
 418.254105472 352 l 1
 405.41936844 342.916050622 l 2
 375.061752737 321.430059628 335.939927617 309 291.325724211 309 c 0
 249.729348829 309 213.056965452 319.970918343 183.857142857 338.994945018 c 1
 183.857142857 338.643364184 l 1
 176.984189396 343.714048002 l 1
 165.358519825 352 l 1
 166.496692285 352 l 1
 132.089794994 381.538528354 111.979591837 424.028932468 111.979591837 472 c 0
 111.979591837 522.786664943 134.381217625 567.256635627 171.928078312 597 c 1
 170.564949077 597 l 1
 180.196706756 603.24693778 l 1
 183.857142857 605.971014363 l 1
 183.857142857 605.621012932 l 1
 184.746774817 606.198007878 l 2
 213.927009781 625.123641009 250.354414801 636 291.325724211 636 c 0
291.3410545 697 m 0
 147.929578442 697 47.9795918367 600.926010793 47.9795918367 472 c 0
 47.9795918367 343.096035691 146.831682876 247 291.3410545 247 c 0
 435.80855433 247 535.795918367 342.060854986 535.795918367 472 c 0
 535.795918367 601.917163342 436.90650004 697 291.3410545 697 c 0
335.755102041 512 m 0
 335.755102041 491.925112047 320.927900169 487 302.224489796 487 c 0
 287.43537415 487 272.646258503 487 257.857142857 487 c 1
 257.857142857 537 l 1
 272.646258503 537 287.43537415 537 302.224489796 537 c 0
 319.603581552 537 335.755102041 530.599194033 335.755102041 512 c 0
183.857142857 597 m 1
 171.928078312 597 l 1
 173.226162429 598.028298722 174.542348874 599.038995483 175.876337793 600.031742761 c 2
 180.196706756 603.24693778 l 1
 183.857142857 605.621012932 l 1
 183.857142857 597 l 1
183.857142857 352 m 1
 183.857142857 338.994945018 l 1
 181.901095409 340.269332857 179.978580605 341.579858511 178.09036456 342.925644869 c 2
 176.984189396 343.714048002 l 1
 175.893066906 344.519049401 l 2
 172.653203248 346.90933537 169.519763979 349.40467476 166.496692285 352 c 1
 183.857142857 352 l 1
EndSplineSet
EndChar

StartChar: macron
Encoding: 175 175 108
Width: 379
GlyphClass: 2
Flags: HMW
LayerCount: 2
Fore
SplineSet
47 687 m 1
 47 611 l 1
 332 611 l 1
 332 687 l 1
 47 687 l 1
EndSplineSet
Substitution2: "'case' Case-Sensitive Forms in Latin lookup 22 subtable" macron.case
Substitution2: "'aalt' Access All Alternates in Latin lookup 0 subtable" macron.case
EndChar

StartChar: degree
Encoding: 176 176 109
Width: 371
GlyphClass: 2
Flags: HMW
LayerCount: 2
Fore
SplineSet
343.530612245 585 m 0
 343.530612245 668.197939063 277.395392802 720 193.395026976 720 c 0
 110.474371152 720 44.3673469388 668.182304701 44.3673469388 585 c 0
 44.3673469388 501.817695299 110.474371152 450 193.395026976 450 c 0
 277.395392802 450 343.530612245 501.802060937 343.530612245 585 c 0
272.530612245 585 m 0
 272.530612245 544.604488191 238.545792052 520 193.244897959 520 c 0
 149.274769506 520 116.367346939 544.483174679 116.367346939 585 c 0
 116.367346939 624.533252176 149.332227142 650 193.244897959 650 c 0
 238.488891365 650 272.530612245 624.410982941 272.530612245 585 c 0
EndSplineSet
EndChar

StartChar: plusminus
Encoding: 177 177 110
Width: 583
GlyphClass: 2
Flags: HMW
LayerCount: 2
Fore
SplineSet
257.489795918 438 m 1
 69.6530612245 438 l 1
 69.6530612245 355 l 1
 257.489795918 355 l 1
 257.489795918 190 l 1
 351.489795918 190 l 1
 351.489795918 355 l 1
 539.326530612 355 l 1
 539.326530612 438 l 1
 351.489795918 438 l 1
 351.489795918 603 l 1
 257.489795918 603 l 1
 257.489795918 438 l 1
539.326530612 65 m 1
 539.326530612 148 l 1
 69.6530612245 148 l 1
 69.6530612245 65 l 1
 539.326530612 65 l 1
EndSplineSet
EndChar

StartChar: acute
Encoding: 180 180 111
Width: 268
GlyphClass: 2
Flags: HMW
LayerCount: 2
Fore
SplineSet
38.1165436492 560 m 1
 119.908505099 560 l 1
 216.596005099 730 l 1
 93.3665436492 730 l 1
 38.1165436492 560 l 1
EndSplineSet
Substitution2: "'case' Case-Sensitive Forms in Latin lookup 22 subtable" acute.case
Substitution2: "'aalt' Access All Alternates in Latin lookup 0 subtable" acute.case
EndChar

StartChar: paragraph
Encoding: 182 182 112
Width: 679
GlyphClass: 2
Flags: HMW
LayerCount: 2
Fore
SplineSet
281.755102041 292 m 0
 295.741496599 292 309.727891156 292 323.714285714 292 c 1
 323.714285714 -155 l 1
 418.714285714 -155 l 1
 418.714285714 603 l 1
 496.612244898 603 l 1
 496.612244898 -155 l 1
 592.612244898 -155 l 1
 592.612244898 691 l 1
 266.971445197 691 l 2
 123.420818103 691 26.306122449 606.312673097 26.306122449 490 c 0
 26.306122449 374.374257014 129.64815292 292 281.755102041 292 c 0
EndSplineSet
EndChar

StartChar: periodcentered
Encoding: 183 183 113
Width: 231
GlyphClass: 2
Flags: HMW
LayerCount: 2
Fore
SplineSet
115 437 m 0
 75.4710005739 437 48 409.625505159 48 371 c 0
 48 332.3024238 75.5865452309 306 115 306 c 0
 154.413454769 306 182 332.3024238 182 371 c 0
 182 409.625505159 154.528999426 437 115 437 c 0
EndSplineSet
EndChar

StartChar: cedilla
Encoding: 184 184 114
Width: 291
GlyphClass: 2
Flags: HMW
LayerCount: 2
Fore
SplineSet
145.693877551 -140 m 0
 125.703993608 -140 103.240112821 -137.040268378 84.5683447454 -131.225120269 c 2
 79.6797895665 -129.70262533 l 1
 60.1047331956 -198.215322629 l 1
 64.6290370737 -199.739633487 l 2
 88.9244550562 -207.925151179 112.180276802 -211 137.458839716 -211 c 0
 223.418531633 -211 272.489795918 -173.773815928 272.489795918 -116 c 0
 272.489795918 -61.9235956733 233.74877319 -41.2189688586 196.211339742 -36.0979819855 c 2
 190.620599465 -35.3352738048 l 1
 205.157658409 20 l 1
 128.580655986 20 l 1
 99.4938212522 -92 l 1
 105.959183673 -92 l 2
 187.589636524 -92 198.489795918 -107.424328782 198.489795918 -118 c 0
 198.489795918 -128.948871991 184.52187701 -140 145.693877551 -140 c 0
EndSplineSet
EndChar

StartChar: ordmasculine
Encoding: 186 186 115
Width: 513
GlyphClass: 2
Flags: HW
LayerCount: 2
Fore
SplineSet
265.061499192 692 m 0
 134.669921875 692 49.3671875 614.665039062 49.3671875 503.037109375 c 0
 49.3671875 393.299804688 134.73046875 317 265.061499192 317 c 0
 396.502929688 317 480.754882812 393.32421875 480.754882812 503.037109375 c 0
 480.754882812 614.640625 396.563476562 692 265.061499192 692 c 0
264.953842975 599 m 0
 335.786065114 599 381.754882812 559.172851562 381.754882812 498.143554688 c 0
 381.754882812 439.010742188 335.902073968 400 264.953842975 400 c 0
 195.319760282 400 149.3671875 438.982421875 149.3671875 498.143554688 c 0
 149.3671875 559.202148438 195.434841066 599 264.953842975 599 c 0
EndSplineSet
EndChar

StartChar: guillemotright
Encoding: 187 187 116
Width: 500
GlyphClass: 2
Flags: HMW
LayerCount: 2
Fore
SplineSet
286 233.115924448 m 1
 286 238.375154408 286 243.634384368 286 248.893614328 c 1
 152.250428899 400 l 1
 45.1835749099 400 l 1
 180.435262586 241.001832808 l 1
 44.1756372273 81 l 1
 152.260495955 81 l 1
 286 233.115924448 l 1
473 233.115924448 m 1
 473 238.375154408 473 243.634384368 473 248.893614328 c 1
 339.250428899 400 l 1
 232.18357491 400 l 1
 367.435262586 241.001832808 l 1
 231.175637227 81 l 1
 339.260495955 81 l 1
 473 233.115924448 l 1
EndSplineSet
Substitution2: "'case' Case-Sensitive Forms in Latin lookup 22 subtable" guillemotright.case
Substitution2: "'aalt' Access All Alternates in Latin lookup 0 subtable" guillemotright.case
EndChar

StartChar: onequarter
Encoding: 188 188 117
Width: 836
GlyphClass: 2
Flags: HMW
LayerCount: 2
Fore
SplineSet
309.889895493 -5 m 1
 654.906705685 697 l 1
 542.616921131 697 l 1
 198.448937175 -5 l 1
 309.889895493 -5 l 1
303.346938776 303 m 1
 303.346938776 376 l 1
 221.469387755 376 l 1
 221.469387755 690 l 1
 164.17325394 690 l 1
 154.492705694 667.440538262 144.060554959 654.151133352 123.305302777 646.814436815 c 0
 107.470511831 641.217055735 85.5232735086 639 54.1836734694 639 c 2
 49.1836734694 639 l 1
 49.1836734694 576 l 1
 133.469387755 576 l 1
 133.469387755 376 l 1
 46.7755102041 376 l 1
 46.7755102041 303 l 1
 303.346938776 303 l 1
820.979591837 71 m 1
 820.979591837 145 l 1
 763.183673469 145 l 1
 763.183673469 382 l 1
 638.374252066 382 l 1
 460.714285714 147.680125946 l 1
 460.714285714 71 l 1
 673.183673469 71 l 1
 673.183673469 -5 l 1
 763.183673469 -5 l 1
 763.183673469 71 l 1
 820.979591837 71 l 1
673.183673469 145 m 1
 549.565149691 145 l 1
 673.183673469 293.093767725 l 1
 673.183673469 145 l 1
EndSplineSet
EndChar

StartChar: onehalf
Encoding: 189 189 118
Width: 832
GlyphClass: 2
Flags: HMW
LayerCount: 2
Fore
SplineSet
646.651193694 697 m 1
 542.355054094 697 l 1
 192.18317725 -5 l 1
 302.669537448 -5 l 1
 646.651193694 697 l 1
302.142857143 303 m 1
 302.142857143 376 l 1
 220.265306122 376 l 1
 220.265306122 690 l 1
 162.969172307 690 l 1
 153.288624062 667.440538262 142.856473326 654.151133352 122.101221144 646.814436815 c 0
 106.266430198 641.217055735 84.319191876 639 52.9795918367 639 c 2
 47.9795918367 639 l 1
 47.9795918367 576 l 1
 132.265306122 576 l 1
 132.265306122 376 l 1
 45.5714285714 376 l 1
 45.5714285714 303 l 1
 302.142857143 303 l 1
709.489795918 262 m 0
 709.489795918 235.585985181 689.933545937 213.768672343 665.328502628 191.776272299 c 2
 502.448979592 50.2784323691 l 1
 502.448979592 -5 l 1
 815.142857143 -5 l 1
 815.142857143 69 l 1
 654.308700211 69 l 1
 718.341779766 125.242412422 l 2
 772.862446169 173.336035618 799.489795918 206.979233871 799.489795918 262 c 0
 799.489795918 338.152147381 741.226239594 387 655.923412061 387 c 0
 568.564203535 387 500.448979592 338.224465381 500.448979592 248 c 2
 500.448979592 242.936300783 l 1
 589.448979592 244.062883061 l 1
 589.448979592 249 l 2
 589.448979592 283.41242531 611.175993511 310 654.285714286 310 c 0
 690.576720571 310 709.489795918 289.998813582 709.489795918 262 c 0
EndSplineSet
EndChar

StartChar: threequarters
Encoding: 190 190 119
Width: 867
GlyphClass: 2
Flags: HMW
LayerCount: 2
Fore
SplineSet
262.591746118 507.158393386 m 0
 262.538919192 466.071761542 239.253117775 444.595419847 197.61915734 444.595419847 c 0
 177.784839722 444.595419847 161.452185362 449.083469809 149.490887158 458.322800512 c 0
 134.668498993 469.772138514 125.530612245 489.253720139 125.530612245 519.732824427 c 2
 125.530612245 524.732824427 l 1
 33.5306122449 524.732824427 l 1
 33.5306122449 519.732824427 l 2
 33.5306122449 421.768278012 101.058922179 365.595419847 193.903270897 365.595419847 c 0
 284.694562631 365.595419847 358.603937349 419.928108506 358.603937349 512.206014061 c 0
 358.603937349 553.08406771 346.747059009 581.873917051 326.278827337 601.650132928 c 2
 321.336331707 606.425526432 l 1
 327.404789745 609.660878229 l 2
 341.329114698 617.084525139 350.591836735 627.312069194 350.591836735 641.752688172 c 0
 350.591836735 655.139582461 341.652706528 666.006139748 328.153882427 674.1700663 c 0
 301.055750756 690.558690598 252.564111226 699 195.019597731 699 c 0
 133.84855559 699 86.6832121989 688.616150877 60.9893266799 668.516341782 c 0
 48.0997163127 658.433059224 40.5306122449 645.439850162 40.5306122449 630.444444444 c 2
 40.5306122449 625.444444444 l 1
 124.81104387 625.444444444 l 1
 129.631288075 622.576884308 137.533758173 621.459965821 146.612244898 620.46956872 c 1
 146.612244898 603.646379147 146.612244898 586.823189573 146.612244898 570 c 1
 194.656217126 570 l 2
 215.267887902 570 230.640124404 565.745762814 241.38087206 557.76289479 c 0
 254.626713289 547.918161828 261.926132504 531.641505275 262.591746118 507.158393386 c 0
683.629989175 697 m 1
 571.304862309 697 l 1
 243.699341488 -5 l 1
 341.718640821 -5 l 1
 683.629989175 697 l 1
849.734693878 71 m 1
 849.734693878 145 l 1
 791.93877551 145 l 1
 791.93877551 444.595419847 l 1
 666.784329197 444.595419847 l 1
 489.469387755 149.677369696 l 1
 489.469387755 71 l 1
 701.93877551 71 l 1
 701.93877551 -5 l 1
 791.93877551 -5 l 1
 791.93877551 71 l 1
 849.734693878 71 l 1
701.93877551 145 m 1
 576.496948192 145 l 1
 701.93877551 352.636108274 l 1
 701.93877551 145 l 1
EndSplineSet
EndChar

StartChar: questiondown
Encoding: 191 191 120
Width: 470
GlyphClass: 2
Flags: HMW
LayerCount: 2
Fore
SplineSet
265.387755102 474 m 0
 302.817473344 474 332.387755102 500.20781248 332.387755102 540 c 0
 332.387755102 578.582218532 305.872568016 605 266.387755102 605 c 0
 225.954373219 605 198.387755102 577.722981041 198.387755102 540 c 0
 198.387755102 502.302533945 226.787912102 474 265.387755102 474 c 0
219.387755102 366.784313725 m 1
 219.387755102 321.014005602 l 2
 219.387755102 264.754324427 178.658564679 224.807064398 134.057964958 181.189632505 c 0
 84.3189132877 132.548008978 29.9183673469 79.1022121259 29.9183673469 -7.47819127651 c 0
 29.9183673469 -123.861446455 100.33978722 -214 234.39248445 -214 c 0
 367.142083289 -214 456.714285714 -127.559836356 456.714285714 13.7254901961 c 2
 456.714285714 18.7947116637 l 1
 359.76624698 17.4618673178 l 1
 359.714571281 12.583352599 l 2
 358.814309079 -72.4071268435 318.488235032 -126 239.41324222 -126 c 0
 209.748869853 -126 184.680830614 -118.417442257 166.049712122 -104.06670708 c 0
 142.852662709 -86.1990351422 128.918367347 -57.3731566921 128.918367347 -17.3725490196 c 0
 128.918367347 43.5054958484 169.514402436 85.8191205774 213.108189358 131.22755092 c 0
 260.030650492 180.102317428 310.387755102 232.784673801 310.387755102 316.333333333 c 2
 310.387755102 366.784313725 l 1
 219.387755102 366.784313725 l 1
EndSplineSet
Substitution2: "'case' Case-Sensitive Forms in Latin lookup 22 subtable" questiondown.case
Substitution2: "'aalt' Access All Alternates in Latin lookup 0 subtable" questiondown.case
EndChar

StartChar: Agrave
Encoding: 192 192 121
Width: 653
GlyphClass: 2
Flags: HW
AnchorPoint: "Anchor-7" 0 0 basechar 0
AnchorPoint: "Anchor-6" 0 0 basechar 0
AnchorPoint: "Anchor-5" 0 0 basechar 0
AnchorPoint: "Anchor-4" 317 696 basechar 0
AnchorPoint: "Anchor-3" 620 0 basechar 0
LayerCount: 2
Fore
SplineSet
278.129630471 718 m 1
 373.200474595 718 l 1
 324.74331041 857 l 1
 180.114543944 857 l 1
 278.129630471 718 l 1
112.668945312 5 m 1
 177.565469909 169 l 1
 479.494100403 169 l 1
 544.391601562 5 l 1
 644.059570312 5 l 1
 383.937627681 681 l 1
 273.121942632 681 l 1
 13 5 l 1
 112.668945312 5 l 1
446.219019296 257 m 1
 210.861499701 257 l 1
 329.019698713 572.80859375 l 1
 446.219019296 257 l 1
EndSplineSet
Substitution2: "'c2sc' Capitals to Small Capitals in Latin lookup 20 subtable" agrave.sc
Substitution2: "'aalt' Access All Alternates in Latin lookup 0 subtable" agrave.sc
EndChar

StartChar: Aacute
Encoding: 193 193 122
Width: 653
GlyphClass: 2
Flags: HW
AnchorPoint: "Anchor-7" 0 0 basechar 0
AnchorPoint: "Anchor-6" 0 0 basechar 0
AnchorPoint: "Anchor-5" 0 0 basechar 0
AnchorPoint: "Anchor-4" 317 696 basechar 0
AnchorPoint: "Anchor-3" 620 0 basechar 0
LayerCount: 2
Fore
SplineSet
288.050737069 718 m 1
 382.982558104 718 l 1
 483.201065369 857 l 1
 334.30543273 857 l 1
 288.050737069 718 l 1
112.668945312 5 m 1
 177.565469909 169 l 1
 479.494100403 169 l 1
 544.391601562 5 l 1
 644.059570312 5 l 1
 383.937627681 681 l 1
 273.121942632 681 l 1
 13 5 l 1
 112.668945312 5 l 1
446.219019296 257 m 1
 210.861499701 257 l 1
 329.019698713 572.80859375 l 1
 446.219019296 257 l 1
EndSplineSet
Substitution2: "'c2sc' Capitals to Small Capitals in Latin lookup 20 subtable" aacute.sc
Substitution2: "'aalt' Access All Alternates in Latin lookup 0 subtable" aacute.sc
EndChar

StartChar: Acircumflex
Encoding: 194 194 123
Width: 653
GlyphClass: 2
Flags: HW
AnchorPoint: "Anchor-7" 0 0 basechar 0
AnchorPoint: "Anchor-6" 0 0 basechar 0
AnchorPoint: "Anchor-5" 0 0 basechar 0
AnchorPoint: "Anchor-4" 317 696 basechar 0
AnchorPoint: "Anchor-3" 620 0 basechar 0
LayerCount: 2
Fore
SplineSet
260.8431568 718 m 1
 329.04159961 786.659179688 l 1
 397.238137994 718 l 1
 483.795246243 718 l 1
 391.286807134 857 l 1
 267.836208615 857 l 1
 174.22701135 718 l 1
 260.8431568 718 l 1
112.668945312 5 m 1
 177.565469909 169 l 1
 479.494100403 169 l 1
 544.391601562 5 l 1
 644.059570312 5 l 1
 383.937627681 681 l 1
 273.121942632 681 l 1
 13 5 l 1
 112.668945312 5 l 1
446.219019296 257 m 1
 210.861499701 257 l 1
 329.019698713 572.80859375 l 1
 446.219019296 257 l 1
EndSplineSet
Substitution2: "'c2sc' Capitals to Small Capitals in Latin lookup 20 subtable" acircumflex.sc
Substitution2: "'aalt' Access All Alternates in Latin lookup 0 subtable" acircumflex.sc
EndChar

StartChar: Atilde
Encoding: 195 195 124
Width: 750
GlyphClass: 2
Flags: HW
AnchorPoint: "Anchor-7" 2.65306 0 basechar 0
AnchorPoint: "Anchor-6" 2.65306 0 basechar 0
AnchorPoint: "Anchor-5" 2.65306 0 basechar 0
AnchorPoint: "Anchor-4" 368.224 696 basechar 0
AnchorPoint: "Anchor-3" 719.796 0 basechar 0
LayerCount: 2
Fore
SplineSet
406.393317881 827.817382812 m 0
 384.562472432 840.971679688 357.667238321 857 308.154513357 857 c 0
 230.807747541 857 191.129047118 816.611328125 191.129047118 739 c 2
 191.129047118 734 l 1
 269.141877656 734 l 1
 269.141877656 739 l 2
 269.141877656 749.348632812 271.752545129 757.989257812 276.603525121 764.291992188 c 0
 282.541645234 772.006835938 292.372798807 777 307.364039995 777 c 0
 327.392874135 777 341.568760233 768.71484375 358.865389229 758.469726562 c 0
 380.774707821 745.4921875 407.144554673 730 453.257095791 730 c 0
 525.538515958 730 570.339981403 772.786132812 570.339981403 848 c 2
 570.339981403 853 l 1
 493.348258707 853 l 1
 493.348258707 848 l 2
 493.348258707 823.362304688 479.397265152 810 455.148107128 810 c 0
 436.145165777 810 422.927226212 817.854492188 406.393317881 827.817382812 c 0
133.65234375 5 m 1
 209.27261186 169 l 1
 551.171480861 169 l 1
 626.583984375 5 l 1
 744.587890625 5 l 1
 445.686351519 681 l 1
 314.34336473 681 l 1
 15.6533203125 5 l 1
 133.65234375 5 l 1
517.325631702 257 m 1
 243.138557799 257 l 1
 380.615847557 574.715820312 l 1
 517.325631702 257 l 1
EndSplineSet
Substitution2: "'c2sc' Capitals to Small Capitals in Latin lookup 20 subtable" atilde.sc
Substitution2: "'aalt' Access All Alternates in Latin lookup 0 subtable" atilde.sc
EndChar

StartChar: Adieresis
Encoding: 196 196 125
Width: 731
GlyphClass: 2
Flags: HW
AnchorPoint: "Anchor-7" 2.65306 0 basechar 0
AnchorPoint: "Anchor-6" 2.65306 0 basechar 0
AnchorPoint: "Anchor-5" 2.65306 0 basechar 0
AnchorPoint: "Anchor-4" 359.245 696 basechar 0
AnchorPoint: "Anchor-3" 701.633 0 basechar 0
LayerCount: 2
Fore
SplineSet
269.862291354 732 m 0
 306.390846351 732 331.389956646 756.490234375 331.389956646 790 c 0
 331.389956646 824.4375 306.431008636 849 269.862291354 849 c 0
 233.293574072 849 208.334626062 824.4375 208.334626062 790 c 0
 208.334626062 756.490234375 233.334692602 732 269.862291354 732 c 0
473.324430196 732 m 0
 509.852985193 732 534.853051733 756.490234375 534.853051733 790 c 0
 534.853051733 824.4375 509.895059968 849 473.324430196 849 c 0
 436.755712914 849 411.796764904 824.4375 411.796764904 790 c 0
 411.796764904 756.490234375 436.796831444 732 473.324430196 732 c 0
133.563476562 5 m 1
 211.125904911 169 l 1
 530.831085704 169 l 1
 608.393554688 5 l 1
 726.301757812 5 l 1
 434.026589983 681 l 1
 308.139818264 681 l 1
 15.6533203125 5 l 1
 133.563476562 5 l 1
371.574235877 573.642578125 m 1
 496.335507354 257 l 1
 245.849069546 257 l 1
 371.574235877 573.642578125 l 1
EndSplineSet
Substitution2: "'c2sc' Capitals to Small Capitals in Latin lookup 20 subtable" adieresis.sc
Substitution2: "'aalt' Access All Alternates in Latin lookup 0 subtable" adieresis.sc
EndChar

StartChar: Aring
Encoding: 197 197 126
Width: 753
GlyphClass: 2
Flags: HW
AnchorPoint: "Anchor-7" 2.65306 0 basechar 0
AnchorPoint: "Anchor-6" 2.65306 0 basechar 0
AnchorPoint: "Anchor-5" 2.65306 0 basechar 0
AnchorPoint: "Anchor-4" 369.653 696 basechar 0
AnchorPoint: "Anchor-3" 722.653 0 basechar 0
LayerCount: 2
Fore
SplineSet
382.202351387 702 m 0
 441.718905987 702 493.336481346 738.782226562 493.336481346 798 c 0
 493.336481346 859.1328125 441.773460915 896 382.202351387 896 c 0
 322.633156068 896 271.070135637 859.1328125 271.070135637 798 c 0
 271.070135637 738.782226562 322.685796788 702 382.202351387 702 c 0
382.098984156 829 m 0
 408.405944463 829 423.503302823 815.537109375 423.503302823 798 c 0
 423.503302823 781.4140625 408.301620128 767 382.098984156 767 c 0
 356.059055863 767 341.924544118 781.25390625 341.924544118 798 c 0
 341.924544118 815.694335938 355.953774424 829 382.098984156 829 c 0
133.661132812 5 m 1
 211.14681184 169 l 1
 552.029926514 169 l 1
 629.516601562 5 l 1
 747.522460938 5 l 1
 444.627545017 681 l 1
 318.758799111 681 l 1
 15.6533203125 5 l 1
 133.661132812 5 l 1
512.2450278 257 m 1
 250.951809738 257 l 1
 382.080799181 574.17578125 l 1
 512.2450278 257 l 1
EndSplineSet
Substitution2: "'c2sc' Capitals to Small Capitals in Latin lookup 20 subtable" aring.sc
Substitution2: "'aalt' Access All Alternates in Latin lookup 0 subtable" aring.sc
EndChar

StartChar: AE
Encoding: 198 198 127
Width: 1191
GlyphClass: 2
Flags: HW
AnchorPoint: "Anchor-7" -3.73035e-14 0 basechar 0
AnchorPoint: "Anchor-6" -3.73035e-14 0 basechar 0
AnchorPoint: "Anchor-5" -3.73035e-14 0 basechar 0
AnchorPoint: "Anchor-4" 591.571 696 basechar 0
AnchorPoint: "Anchor-3" -3.73035e-14 0 basechar 0
LayerCount: 2
Fore
SplineSet
1144.77148438 5 m 1
 1144.77148438 93 l 1
 690.918700795 93 l 1
 690.918700795 312 l 1
 1099.01660156 312 l 1
 1099.01660156 401 l 1
 690.918700795 401 l 1
 690.918700795 592 l 1
 1137.54785156 592 l 1
 1137.54785156 681 l 1
 529.715447139 681 l 1
 -10.8369140625 5 l 1
 116.315438837 5 l 1
 255.047321187 169 l 1
 591.657103035 169 l 1
 591.657103035 5 l 1
 1144.77148438 5 l 1
325.024264956 257 m 1
 591.657103035 589.920898438 l 1
 591.657103035 257 l 1
 325.024264956 257 l 1
EndSplineSet
Substitution2: "'c2sc' Capitals to Small Capitals in Latin lookup 20 subtable" ae.sc
Substitution2: "'aalt' Access All Alternates in Latin lookup 0 subtable" ae.sc
EndChar

StartChar: Ccedilla
Encoding: 199 199 128
Width: 799
GlyphClass: 2
Flags: HW
AnchorPoint: "Anchor-7" 10 0 basechar 0
AnchorPoint: "Anchor-6" 10 0 basechar 0
AnchorPoint: "Anchor-5" 414.102 0 basechar 0
AnchorPoint: "Anchor-4" 411.694 686 basechar 0
AnchorPoint: "Anchor-3" 10 0 basechar 0
LayerCount: 2
Fore
SplineSet
416.077762648 83.275390625 m 0
 269.501214531 83.275390625 158 177.274414062 158 342.998046875 c 0
 158 504.802734375 271.962596647 602.720703125 416.077762648 602.720703125 c 0
 551.350504243 602.720703125 634.355691421 542.88671875 650.2890625 431.587890625 c 2
 650.9296875 427.205078125 l 1
 769.633789062 427.205078125 l 1
 768.986328125 432.866210938 l 2
 751.396484375 586.758789062 635.317676817 692 423.983064106 692 c 0
 213.027125567 692 59 554.770507812 59 343.573242188 c 0
 59 144.78125 182.0399121 19.482421875 364.033970243 -1.6455078125 c 2
 369.709301578 -2.3046875 l 1
 347.423944077 -87 l 1
 354.233385431 -87 l 2
 437.469984603 -87 448.475441779 -102.298828125 448.475441779 -113 c 0
 448.475441779 -124.091796875 434.288547813 -135 394.792640459 -135 c 0
 374.428385005 -135 351.530072595 -132.043945312 332.51508294 -126.2421875 c 2
 327.230856999 -124.629882812 l 1
 307.240494477 -193.174804688 l 1
 311.923240484 -194.720703125 l 2
 336.7617799 -202.918945312 360.549402865 -206 386.386265098 -206 c 0
 474.338122705 -206 524.425431891 -168.61328125 524.425431891 -111 c 0
 524.425431891 -56.9990234375 484.79564983 -36.1865234375 446.252165393 -31.080078125 c 2
 440.75852116 -30.3525390625 l 1
 446.957876349 -5.8544921875 l 1
 450.565799707 -5.6845703125 l 2
 649.447195909 3.79296875 750.389648438 106.293945312 768.977539062 250.008789062 c 2
 769.719726562 255.747070312 l 1
 650.94921875 255.747070312 l 1
 650.291015625 251.384765625 l 2
 634.107066965 141.754882812 550.749980556 83.275390625 416.077762648 83.275390625 c 0
EndSplineSet
Substitution2: "'c2sc' Capitals to Small Capitals in Latin lookup 20 subtable" ccedilla.sc
Substitution2: "'aalt' Access All Alternates in Latin lookup 0 subtable" ccedilla.sc
EndChar

StartChar: Egrave
Encoding: 200 200 129
Width: 698
GlyphClass: 2
Flags: HW
AnchorPoint: "Anchor-7" 18.5714 0 basechar 0
AnchorPoint: "Anchor-6" 18.5714 0 basechar 0
AnchorPoint: "Anchor-5" 375.776 0 basechar 0
AnchorPoint: "Anchor-4" 367.347 696 basechar 0
AnchorPoint: "Anchor-3" 646.694 0 basechar 0
LayerCount: 2
Fore
SplineSet
198.240234375 857 m 1
 316.072130301 718 l 1
 429.658328525 718 l 1
 370.826963996 857 l 1
 198.240234375 857 l 1
666.694335938 5 m 1
 666.694335938 93 l 1
 207.571289062 93 l 1
 207.571289062 312 l 1
 622.142578125 312 l 1
 622.142578125 401 l 1
 207.571289062 401 l 1
 207.571289062 592 l 1
 660.673828125 592 l 1
 660.673828125 681 l 1
 109.571289062 681 l 1
 109.571289062 5 l 1
 666.694335938 5 l 1
EndSplineSet
Substitution2: "'c2sc' Capitals to Small Capitals in Latin lookup 20 subtable" egrave.sc
Substitution2: "'aalt' Access All Alternates in Latin lookup 0 subtable" egrave.sc
EndChar

StartChar: Eacute
Encoding: 201 201 130
Width: 698
GlyphClass: 2
Flags: HW
AnchorPoint: "Anchor-7" 18.5714 0 basechar 0
AnchorPoint: "Anchor-6" 18.5714 0 basechar 0
AnchorPoint: "Anchor-5" 375.776 0 basechar 0
AnchorPoint: "Anchor-4" 367.347 696 basechar 0
AnchorPoint: "Anchor-3" 646.694 0 basechar 0
LayerCount: 2
Fore
SplineSet
328.228826178 718 m 1
 441.659764055 718 l 1
 562.561523438 857 l 1
 384.386683259 857 l 1
 328.228826178 718 l 1
666.694335938 5 m 1
 666.694335938 93 l 1
 207.571289062 93 l 1
 207.571289062 312 l 1
 622.142578125 312 l 1
 622.142578125 401 l 1
 207.571289062 401 l 1
 207.571289062 592 l 1
 660.673828125 592 l 1
 660.673828125 681 l 1
 109.571289062 681 l 1
 109.571289062 5 l 1
 666.694335938 5 l 1
EndSplineSet
Substitution2: "'c2sc' Capitals to Small Capitals in Latin lookup 20 subtable" eacute.sc
Substitution2: "'aalt' Access All Alternates in Latin lookup 0 subtable" eacute.sc
EndChar

StartChar: Ecircumflex
Encoding: 202 202 131
Width: 698
GlyphClass: 2
Flags: HW
AnchorPoint: "Anchor-7" 18.5714 0 basechar 0
AnchorPoint: "Anchor-6" 18.5714 0 basechar 0
AnchorPoint: "Anchor-5" 375.776 0 basechar 0
AnchorPoint: "Anchor-4" 367.347 696 basechar 0
AnchorPoint: "Anchor-3" 646.694 0 basechar 0
LayerCount: 2
Fore
SplineSet
293.491216815 718 m 1
 377.016550293 787.262695312 l 1
 460.542830481 718 l 1
 563.2734375 718 l 1
 451.717605112 857 l 1
 303.590713086 857 l 1
 191.4921875 718 l 1
 293.491216815 718 l 1
666.694335938 5 m 1
 666.694335938 93 l 1
 207.571289062 93 l 1
 207.571289062 312 l 1
 622.142578125 312 l 1
 622.142578125 401 l 1
 207.571289062 401 l 1
 207.571289062 592 l 1
 660.673828125 592 l 1
 660.673828125 681 l 1
 109.571289062 681 l 1
 109.571289062 5 l 1
 666.694335938 5 l 1
EndSplineSet
Substitution2: "'c2sc' Capitals to Small Capitals in Latin lookup 20 subtable" ecircumflex.sc
Substitution2: "'aalt' Access All Alternates in Latin lookup 0 subtable" ecircumflex.sc
EndChar

StartChar: Edieresis
Encoding: 203 203 132
Width: 654
GlyphClass: 2
Flags: HW
AnchorPoint: "Anchor-7" 18.5714 0 basechar 0
AnchorPoint: "Anchor-6" 18.5714 0 basechar 0
AnchorPoint: "Anchor-5" 354.551 0 basechar 0
AnchorPoint: "Anchor-4" 346.122 696 basechar 0
AnchorPoint: "Anchor-3" 603.02 0 basechar 0
LayerCount: 2
Fore
SplineSet
252.700081699 732 m 0
 289.883266537 732 315.16949034 756.606445312 315.16949034 790 c 0
 315.16949034 824.321289062 289.925661473 849 252.700081699 849 c 0
 215.953125 849 191.571289062 824.546875 191.571289062 790 c 0
 191.571289062 756.379882812 215.991210938 732 252.700081699 732 c 0
458.827084848 732 m 0
 495.923595595 732 520.673828125 756.477539062 520.673828125 790 c 0
 520.673828125 824.450195312 495.965990531 849 458.827084848 849 c 0
 421.600562964 849 396.357676207 824.321289062 396.357676207 790 c 0
 396.357676207 756.606445312 421.64390001 732 458.827084848 732 c 0
623.020507812 5 m 1
 623.020507812 93 l 1
 207.571289062 93 l 1
 207.571289062 312 l 1
 578.469726562 312 l 1
 578.469726562 401 l 1
 207.571289062 401 l 1
 207.571289062 592 l 1
 617 592 l 1
 617 681 l 1
 109.571289062 681 l 1
 109.571289062 5 l 1
 623.020507812 5 l 1
EndSplineSet
Substitution2: "'c2sc' Capitals to Small Capitals in Latin lookup 20 subtable" edieresis.sc
Substitution2: "'aalt' Access All Alternates in Latin lookup 0 subtable" edieresis.sc
EndChar

StartChar: Igrave
Encoding: 204 204 133
Width: 298
GlyphClass: 2
Flags: HW
AnchorPoint: "Anchor-7" 3.77476e-15 0 basechar 0
AnchorPoint: "Anchor-6" 3.77476e-15 0 basechar 0
AnchorPoint: "Anchor-5" 153.571 0 basechar 0
AnchorPoint: "Anchor-4" 154.571 696 basechar 0
AnchorPoint: "Anchor-3" 197.571 0 basechar 0
LayerCount: 2
Fore
SplineSet
159.802734375 857 m 1
 -1.2041015625 857 l 1
 114.265625 718 l 1
 207.213867188 718 l 1
 159.802734375 857 l 1
115.224609375 681 m 1
 115.224609375 5 l 1
 213.224609375 5 l 1
 213.224609375 681 l 1
 115.224609375 681 l 1
EndSplineSet
Substitution2: "'c2sc' Capitals to Small Capitals in Latin lookup 20 subtable" igrave.sc
Substitution2: "'aalt' Access All Alternates in Latin lookup 0 subtable" igrave.sc
EndChar

StartChar: Iacute
Encoding: 205 205 134
Width: 300
GlyphClass: 2
Flags: HW
AnchorPoint: "Anchor-7" 18.5714 0 basechar 0
AnchorPoint: "Anchor-6" 18.5714 0 basechar 0
AnchorPoint: "Anchor-5" 153.571 0 basechar 0
AnchorPoint: "Anchor-4" 154.571 696 basechar 0
AnchorPoint: "Anchor-3" 197.571 0 basechar 0
LayerCount: 2
Fore
SplineSet
119.684570312 718 m 1
 213.311523438 718 l 1
 331.377929688 857 l 1
 164.940429688 857 l 1
 119.684570312 718 l 1
109.571289062 681 m 1
 109.571289062 5 l 1
 207.571289062 5 l 1
 207.571289062 681 l 1
 109.571289062 681 l 1
EndSplineSet
Substitution2: "'c2sc' Capitals to Small Capitals in Latin lookup 20 subtable" iacute.sc
Substitution2: "'aalt' Access All Alternates in Latin lookup 0 subtable" iacute.sc
EndChar

StartChar: Icircumflex
Encoding: 206 206 135
Width: 350
GlyphClass: 2
Flags: HW
AnchorPoint: "Anchor-7" -1.77636e-15 0 basechar 0
AnchorPoint: "Anchor-6" -1.77636e-15 0 basechar 0
AnchorPoint: "Anchor-5" 153.571 0 basechar 0
AnchorPoint: "Anchor-4" 154.571 696 basechar 0
AnchorPoint: "Anchor-3" 197.571 0 basechar 0
LayerCount: 2
Fore
SplineSet
178.917322157 786.388671875 m 1
 265.6640625 718 l 1
 366.193359375 718 l 1
 257.208984375 857 l 1
 101.852539062 857 l 1
 -8.4287109375 718 l 1
 92.1748046875 718 l 1
 178.917322157 786.388671875 l 1
133.305463393 681 m 1
 133.305463393 5 l 1
 224.529180922 5 l 1
 224.529180922 681 l 1
 133.305463393 681 l 1
EndSplineSet
Substitution2: "'c2sc' Capitals to Small Capitals in Latin lookup 20 subtable" icircumflex.sc
Substitution2: "'aalt' Access All Alternates in Latin lookup 0 subtable" icircumflex.sc
EndChar

StartChar: Idieresis
Encoding: 207 207 136
Width: 280
GlyphClass: 2
Flags: HW
AnchorPoint: "Anchor-7" 0 0 basechar 0
AnchorPoint: "Anchor-6" 0 0 basechar 0
AnchorPoint: "Anchor-5" 135 0 basechar 0
AnchorPoint: "Anchor-4" 136 696 basechar 0
AnchorPoint: "Anchor-3" 179 0 basechar 0
LayerCount: 2
Fore
SplineSet
49 849 m 0
 13.494140625 849 -11 824.615234375 -11 790 c 0
 -11 756.3125 13.5322265625 732 49 732 c 0
 84.4677734375 732 109 756.3125 109 790 c 0
 109 824.615234375 84.505859375 849 49 849 c 0
233 849 m 0
 197.494140625 849 173 824.615234375 173 790 c 0
 173 756.3125 197.532226562 732 233 732 c 0
 268.467773438 732 293 756.3125 293 790 c 0
 293 824.615234375 268.505859375 849 233 849 c 0
91 681 m 1
 91 5 l 1
 189 5 l 1
 189 681 l 1
 91 681 l 1
EndSplineSet
Substitution2: "'c2sc' Capitals to Small Capitals in Latin lookup 20 subtable" idieresis.sc
Substitution2: "'aalt' Access All Alternates in Latin lookup 0 subtable" idieresis.sc
EndChar

StartChar: Eth
Encoding: 208 208 137
Width: 846
GlyphClass: 2
Flags: HW
AnchorPoint: "Anchor-7" 3.46939 0 basechar 0
AnchorPoint: "Anchor-6" 154.837 343 basechar 0
AnchorPoint: "Anchor-5" 408.286 0 basechar 0
AnchorPoint: "Anchor-4" 403.469 695 basechar 0
AnchorPoint: "Anchor-3" 3.46939 0 basechar 0
LayerCount: 2
Fore
SplineSet
128.836914062 298 m 1
 128.836914062 5 l 1
 424.306982366 5 l 2
 647.496751609 5 801.44921875 130.5390625 801.44921875 343 c 0
 801.44921875 555.4609375 647.496751609 681 424.306982366 681 c 2
 128.836914062 681 l 1
 128.836914062 382 l 1
 20.4697265625 382 l 1
 20.4697265625 298 l 1
 128.836914062 298 l 1
422.096859894 92 m 2
 228.767235574 92 l 1
 228.767235574 298 l 1
 444.531760378 298 l 1
 444.531760378 382 l 1
 228.767235574 382 l 1
 228.767235574 593 l 1
 422.096859894 593 l 2
 588.654757723 593 702.44921875 502.0234375 702.44921875 342.98046875 c 0
 702.44921875 183.919921875 588.62695141 92 422.096859894 92 c 2
EndSplineSet
Substitution2: "'c2sc' Capitals to Small Capitals in Latin lookup 20 subtable" eth.sc
Substitution2: "'aalt' Access All Alternates in Latin lookup 0 subtable" eth.sc
EndChar

StartChar: Ntilde
Encoding: 209 209 138
Width: 785
GlyphClass: 2
Flags: HW
AnchorPoint: "Anchor-7" 18.5714 0 basechar 0
AnchorPoint: "Anchor-6" 18.5714 0 basechar 0
AnchorPoint: "Anchor-5" 402.041 0 basechar 0
AnchorPoint: "Anchor-4" 402.041 696 basechar 0
AnchorPoint: "Anchor-3" 18.5714 0 basechar 0
LayerCount: 2
Fore
SplineSet
437.968178821 827.807617188 m 0
 416.092692806 840.961914062 389.128514049 857 339.497127004 857 c 0
 262.222942111 857 221.993164062 816.900390625 221.993164062 739 c 2
 221.993164062 734 l 1
 300.449916717 734 l 1
 300.449916717 739 l 2
 300.449916717 749.35546875 303.068397947 758.006835938 307.929933877 764.309570312 c 0
 313.877830622 772.021484375 323.705451642 777 338.704454284 777 c 0
 358.746528215 777 372.937650986 768.725585938 390.270000785 758.479492188 c 0
 412.223423447 745.501953125 438.662005063 730 484.886990393 730 c 0
 557.087689696 730 602.485351562 772.512695312 602.485351562 848 c 2
 602.485351562 853 l 1
 525.013908366 853 l 1
 525.013908366 848 l 2
 525.013908366 823.284179688 510.985312017 810 486.782181526 810 c 0
 467.767540701 810 454.537319753 817.84375 437.968178821 827.807617188 c 0
615.509765625 681 m 1
 615.509765625 143.752929688 l 1
 207.57421875 681 l 1
 109.571289062 681 l 1
 109.571289062 5 l 1
 207.702148438 5 l 1
 207.702148438 543.227539062 l 1
 615.504882812 5 l 1
 713.509765625 5 l 1
 713.509765625 681 l 1
 615.509765625 681 l 1
EndSplineSet
Substitution2: "'c2sc' Capitals to Small Capitals in Latin lookup 20 subtable" ntilde.sc
Substitution2: "'aalt' Access All Alternates in Latin lookup 0 subtable" ntilde.sc
EndChar

StartChar: Ograve
Encoding: 210 210 139
Width: 879
GlyphClass: 2
Flags: HW
AnchorPoint: "Anchor-7" 9.79592 0 basechar 0
AnchorPoint: "Anchor-6" 439.388 343 basechar 0
AnchorPoint: "Anchor-5" 439.388 0 basechar 0
AnchorPoint: "Anchor-4" 439.388 696 basechar 0
AnchorPoint: "Anchor-3" 542.939 4 basechar 0
LayerCount: 2
Fore
SplineSet
443.160540248 857 m 1
 271.689391269 857 l 1
 389.246840472 718 l 1
 501.28001491 718 l 1
 443.160540248 857 l 1
449.387695312 -6 m 0
 669.496626734 -6 840.979492188 129.153320312 840.979492188 345.958007812 c 0
 840.979492188 562.840820312 669.368132928 692 449.387695312 692 c 0
 229.278763891 692 57.7958984375 556.846679688 57.7958984375 340.041992188 c 0
 57.7958984375 123.159179688 229.407257697 -6 449.387695312 -6 c 0
449.387695312 87 m 0
 287.638924713 87 156.795898438 182.131835938 156.795898438 343 c 0
 156.795898438 502.91015625 287.656185075 599 449.387695312 599 c 0
 611.11920555 599 741.979492188 502.91015625 741.979492188 343 c 0
 741.979492188 182.131835938 611.136465912 87 449.387695312 87 c 0
EndSplineSet
Substitution2: "'c2sc' Capitals to Small Capitals in Latin lookup 20 subtable" ograve.sc
Substitution2: "'aalt' Access All Alternates in Latin lookup 0 subtable" ograve.sc
EndChar

StartChar: Oacute
Encoding: 211 211 140
Width: 879
GlyphClass: 2
Flags: HW
AnchorPoint: "Anchor-7" 9.79592 0 basechar 0
AnchorPoint: "Anchor-6" 439.388 343 basechar 0
AnchorPoint: "Anchor-5" 439.388 0 basechar 0
AnchorPoint: "Anchor-4" 439.388 696 basechar 0
AnchorPoint: "Anchor-3" 542.939 4 basechar 0
LayerCount: 2
Fore
SplineSet
401.303203365 718 m 1
 513.170486546 718 l 1
 633.370688961 857 l 1
 456.779924815 857 l 1
 401.303203365 718 l 1
449.387695312 -6 m 0
 669.496626734 -6 840.979492188 129.153320312 840.979492188 345.958007812 c 0
 840.979492188 562.840820312 669.368132928 692 449.387695312 692 c 0
 229.278763891 692 57.7958984375 556.846679688 57.7958984375 340.041992188 c 0
 57.7958984375 123.159179688 229.407257697 -6 449.387695312 -6 c 0
449.387695312 87 m 0
 287.638924713 87 156.795898438 182.131835938 156.795898438 343 c 0
 156.795898438 502.91015625 287.656185075 599 449.387695312 599 c 0
 611.11920555 599 741.979492188 502.91015625 741.979492188 343 c 0
 741.979492188 182.131835938 611.136465912 87 449.387695312 87 c 0
EndSplineSet
Substitution2: "'c2sc' Capitals to Small Capitals in Latin lookup 20 subtable" oacute.sc
Substitution2: "'aalt' Access All Alternates in Latin lookup 0 subtable" oacute.sc
EndChar

StartChar: Ocircumflex
Encoding: 212 212 141
Width: 879
GlyphClass: 2
Flags: HW
AnchorPoint: "Anchor-7" 9.79592 0 basechar 0
AnchorPoint: "Anchor-6" 439.388 343 basechar 0
AnchorPoint: "Anchor-5" 439.388 0 basechar 0
AnchorPoint: "Anchor-4" 439.388 696 basechar 0
AnchorPoint: "Anchor-3" 542.939 4 basechar 0
LayerCount: 2
Fore
SplineSet
531.977568818 718 m 1
 634.058226716 718 l 1
 523.104783815 857 l 1
 376.915270696 857 l 1
 264.640451189 718 l 1
 366.797821807 718 l 1
 449.387695312 787.327148438 l 1
 531.977568818 718 l 1
449.387695312 -6 m 0
 669.496626734 -6 840.979492188 129.153320312 840.979492188 345.958007812 c 0
 840.979492188 562.840820312 669.368132928 692 449.387695312 692 c 0
 229.278763891 692 57.7958984375 556.846679688 57.7958984375 340.041992188 c 0
 57.7958984375 123.159179688 229.407257697 -6 449.387695312 -6 c 0
449.387695312 87 m 0
 287.638924713 87 156.795898438 182.131835938 156.795898438 343 c 0
 156.795898438 502.91015625 287.656185075 599 449.387695312 599 c 0
 611.11920555 599 741.979492188 502.91015625 741.979492188 343 c 0
 741.979492188 182.131835938 611.136465912 87 449.387695312 87 c 0
EndSplineSet
Substitution2: "'c2sc' Capitals to Small Capitals in Latin lookup 20 subtable" ocircumflex.sc
Substitution2: "'aalt' Access All Alternates in Latin lookup 0 subtable" ocircumflex.sc
EndChar

StartChar: Otilde
Encoding: 213 213 142
Width: 852
GlyphClass: 2
Flags: HW
AnchorPoint: "Anchor-7" 9.79592 0 basechar 0
AnchorPoint: "Anchor-6" 425.918 343 basechar 0
AnchorPoint: "Anchor-5" 425.918 0 basechar 0
AnchorPoint: "Anchor-4" 425.918 696 basechar 0
AnchorPoint: "Anchor-3" 529.469 4 basechar 0
LayerCount: 2
Fore
SplineSet
461.612854144 827.821289062 m 0
 439.827649548 840.974609375 412.991802972 857 363.589013587 857 c 0
 286.321472186 857 246.816868108 816.510742188 246.816868108 739 c 2
 246.816868108 734 l 1
 324.640056769 734 l 1
 324.640056769 739 l 2
 324.640056769 749.345703125 327.243934785 757.983398438 332.085730037 764.287109375 c 0
 338.013911481 772.002929688 347.831623737 777 362.799611275 777 c 0
 382.797164517 777 396.949883405 768.7109375 414.208478866 758.466796875 c 0
 436.073198501 745.489257812 462.385012231 730 508.394521287 730 c 0
 580.606630646 730 625.223189504 772.8828125 625.223189504 848 c 2
 625.223189504 853 l 1
 548.418368147 853 l 1
 548.418368147 848 l 2
 548.418368147 823.390625 534.514732514 810 510.282763954 810 c 0
 491.30932609 810 478.112703693 817.858398438 461.612854144 827.821289062 c 0
436.020507812 -6 m 0
 648.860232292 -6 814.245117188 129.295898438 814.245117188 345.958007812 c 0
 814.245117188 562.69921875 648.730900602 692 436.020507812 692 c 0
 223.180783333 692 57.7958984375 556.704101562 57.7958984375 340.041992188 c 0
 57.7958984375 123.30078125 223.310115023 -6 436.020507812 -6 c 0
436.020507812 87 m 0
 281.854259827 87 156.795898438 181.9453125 156.795898438 343 c 0
 156.795898438 503.096679688 281.872462065 599 436.020507812 599 c 0
 590.167595547 599 715.245117188 503.096679688 715.245117188 343 c 0
 715.245117188 181.9453125 590.185797785 87 436.020507812 87 c 0
EndSplineSet
Substitution2: "'c2sc' Capitals to Small Capitals in Latin lookup 20 subtable" otilde.sc
Substitution2: "'aalt' Access All Alternates in Latin lookup 0 subtable" otilde.sc
EndChar

StartChar: Odieresis
Encoding: 214 214 143
Width: 834
GlyphClass: 2
Flags: HW
AnchorPoint: "Anchor-7" 9.79592 0 basechar 0
AnchorPoint: "Anchor-6" 416.939 343 basechar 0
AnchorPoint: "Anchor-5" 416.939 0 basechar 0
AnchorPoint: "Anchor-4" 416.939 696 basechar 0
AnchorPoint: "Anchor-3" 510.49 4 basechar 0
LayerCount: 2
Fore
SplineSet
325.428788033 849 m 0
 288.961425148 849 264.052144593 824.451171875 264.052144593 790 c 0
 264.052144593 756.4765625 289.001633833 732 325.428788033 732 c 0
 361.855942232 732 386.806388822 756.4765625 386.806388822 790 c 0
 386.806388822 824.451171875 361.897108267 849 325.428788033 849 c 0
528.449141655 849 m 0
 491.979864071 849 467.071540865 824.451171875 467.071540865 790 c 0
 467.071540865 756.4765625 492.021030106 732 528.449141655 732 c 0
 564.876295854 732 589.825785094 756.4765625 589.825785094 790 c 0
 589.825785094 824.451171875 564.916504539 849 528.449141655 849 c 0
426.938486169 -6 m 0
 634.847067106 -6 796.08203125 129.396484375 796.08203125 345.958007812 c 0
 796.08203125 562.599609375 634.717824903 692 426.938486169 692 c 0
 219.029905232 692 57.7958984375 556.603515625 57.7958984375 340.041992188 c 0
 57.7958984375 123.400390625 219.160104784 -6 426.938486169 -6 c 0
426.938486169 87 m 0
 277.931799825 87 156.795898438 181.813476562 156.795898438 343 c 0
 156.795898438 503.229492188 277.949989469 599 426.938486169 599 c 0
 575.926982869 599 697.08203125 503.229492188 697.08203125 343 c 0
 697.08203125 181.813476562 575.946129862 87 426.938486169 87 c 0
EndSplineSet
Substitution2: "'c2sc' Capitals to Small Capitals in Latin lookup 20 subtable" odieresis.sc
Substitution2: "'aalt' Access All Alternates in Latin lookup 0 subtable" odieresis.sc
EndChar

StartChar: multiply
Encoding: 215 215 144
Width: 461
GlyphClass: 2
Flags: HMW
LayerCount: 2
Fore
SplineSet
230.986272721 405.055953971 m 1
 101.986272721 533.055953971 l 1
 43.916537542 474.986218792 l 1
 172.916537542 346.986218792 l 1
 43.93031875 218 l 1
 102 159.93031875 l 1
 230.986218792 288.916537542 l 1
 358.986218792 159.916537542 l 1
 417.055953971 217.986272721 l 1
 289.055953971 346.986272721 l 1
 417.06968125 475 l 1
 359 533.06968125 l 1
 230.986272721 405.055953971 l 1
EndSplineSet
EndChar

StartChar: Oslash
Encoding: 216 216 145
Width: 879
GlyphClass: 2
Flags: HW
AnchorPoint: "Anchor-7" 9.79592 0 basechar 0
AnchorPoint: "Anchor-6" 439.388 343 basechar 0
AnchorPoint: "Anchor-5" 439.388 0 basechar 0
AnchorPoint: "Anchor-4" 402.061 684 basechar 0
AnchorPoint: "Anchor-3" 542.939 4 basechar 0
LayerCount: 2
Fore
SplineSet
635.139876071 660.115234375 m 1
 581.859056237 679.9921875 521.045047277 692 455.220738777 692 c 0
 231.91480474 692 57.7958984375 556.811523438 57.7958984375 339.779296875 c 0
 57.7958984375 223.865234375 102.618164062 131.784179688 175.202148438 72.294921875 c 2
 178.808506345 69.32421875 l 1
 99.501953125 -46 l 1
 214.256495453 -46 l 1
 268.538416285 24.8515625 l 1
 320.639778046 5.0888671875 380.234054755 -6 443.660131839 -6 c 0
 666.910449153 -6 840.979492188 129.153320312 840.979492188 346.119140625 c 0
 840.979492188 461.072265625 797.280273438 551.23046875 726.978515625 611.456054688 c 2
 723.497070312 614.438476562 l 1
 793.260742188 716 l 1
 678.406809188 716 l 1
 635.139876071 660.115234375 l 1
237.442915141 141.931640625 m 2
 187.106904855 187.60546875 156.795898438 251.69140625 156.795898438 333 c 0
 156.795898438 498.985351562 287.49796509 599 449.387695312 599 c 0
 491.698596154 599 533.02373854 591.83203125 569.782556255 578.280273438 c 2
 576.141081853 575.935546875 l 1
 241.356222782 138.380859375 l 1
 237.442915141 141.931640625 l 2
741.979492188 353 m 0
 741.979492188 186.018554688 611.294685897 87 449.387695312 87 c 0
 408.358855808 87 369.337971755 93.296875 334.037654634 105.828125 c 2
 327.576525772 108.122070312 l 1
 661.022747876 544.516601562 l 1
 664.947562424 540.788085938 l 2
 712.901642748 495.227539062 741.979492188 432.220703125 741.979492188 353 c 0
EndSplineSet
Substitution2: "'c2sc' Capitals to Small Capitals in Latin lookup 20 subtable" oslash.sc
Substitution2: "'aalt' Access All Alternates in Latin lookup 0 subtable" oslash.sc
EndChar

StartChar: Ugrave
Encoding: 217 217 146
Width: 796
GlyphClass: 2
Flags: HW
AnchorPoint: "Anchor-7" 16.9388 0 basechar 0
AnchorPoint: "Anchor-6" 16.9388 0 basechar 0
AnchorPoint: "Anchor-5" 404.673 0 basechar 0
AnchorPoint: "Anchor-4" 404.673 696 basechar 0
AnchorPoint: "Anchor-3" 533.51 11 basechar 0
LayerCount: 2
Fore
SplineSet
466.821210822 718 m 1
 408.471732087 857 l 1
 236.22727759 857 l 1
 354.252532688 718 l 1
 466.821210822 718 l 1
631.408203125 265.006835938 m 2
 631.408203125 136.508789062 544.546250751 82 414.673815902 82 c 0
 284.764248528 82 197.938476562 136.494140625 197.938476562 265.006835938 c 2
 197.938476562 676 l 1
 99.9384765625 676 l 1
 99.9384765625 263.079101562 l 2
 99.9384765625 170.71875 134.526367188 97.640625 199.56640625 51.12109375 c 0
 252.946435063 13.921875 325.457687616 -6 414.673815902 -6 c 0
 606.510914048 -6 729.408203125 96.1708984375 729.408203125 263.079101562 c 2
 729.408203125 676 l 1
 631.408203125 676 l 1
 631.408203125 265.006835938 l 2
EndSplineSet
Substitution2: "'c2sc' Capitals to Small Capitals in Latin lookup 20 subtable" ugrave.sc
Substitution2: "'aalt' Access All Alternates in Latin lookup 0 subtable" ugrave.sc
EndChar

StartChar: Uacute
Encoding: 218 218 147
Width: 796
GlyphClass: 2
Flags: HW
AnchorPoint: "Anchor-7" 16.9388 0 basechar 0
AnchorPoint: "Anchor-6" 16.9388 0 basechar 0
AnchorPoint: "Anchor-5" 404.673 0 basechar 0
AnchorPoint: "Anchor-4" 404.673 696 basechar 0
AnchorPoint: "Anchor-3" 533.51 11 basechar 0
LayerCount: 2
Fore
SplineSet
366.346310491 718 m 1
 478.751224668 718 l 1
 599.429075023 857 l 1
 422.044146084 857 l 1
 366.346310491 718 l 1
631.408203125 265.006835938 m 2
 631.408203125 136.508789062 544.546250751 82 414.673815902 82 c 0
 284.764248528 82 197.938476562 136.494140625 197.938476562 265.006835938 c 2
 197.938476562 676 l 1
 99.9384765625 676 l 1
 99.9384765625 263.079101562 l 2
 99.9384765625 170.71875 134.526367188 97.640625 199.56640625 51.12109375 c 0
 252.946435063 13.921875 325.457687616 -6 414.673815902 -6 c 0
 606.510914048 -6 729.408203125 96.1708984375 729.408203125 263.079101562 c 2
 729.408203125 676 l 1
 631.408203125 676 l 1
 631.408203125 265.006835938 l 2
EndSplineSet
Substitution2: "'c2sc' Capitals to Small Capitals in Latin lookup 20 subtable" uacute.sc
Substitution2: "'aalt' Access All Alternates in Latin lookup 0 subtable" uacute.sc
EndChar

StartChar: Ucircumflex
Encoding: 219 219 148
Width: 796
GlyphClass: 2
Flags: HW
AnchorPoint: "Anchor-7" 16.9388 0 basechar 0
AnchorPoint: "Anchor-6" 16.9388 0 basechar 0
AnchorPoint: "Anchor-5" 404.673 0 basechar 0
AnchorPoint: "Anchor-4" 404.673 696 basechar 0
AnchorPoint: "Anchor-3" 533.51 11 basechar 0
LayerCount: 2
Fore
SplineSet
497.558372593 718 m 1
 600.121263376 718 l 1
 488.72559219 857 l 1
 341.871215844 857 l 1
 229.150199145 718 l 1
 331.789259211 718 l 1
 414.673815902 787.298828125 l 1
 497.558372593 718 l 1
631.408203125 265.006835938 m 2
 631.408203125 136.508789062 544.546250751 82 414.673815902 82 c 0
 284.764248528 82 197.938476562 136.494140625 197.938476562 265.006835938 c 2
 197.938476562 676 l 1
 99.9384765625 676 l 1
 99.9384765625 263.079101562 l 2
 99.9384765625 170.71875 134.526367188 97.640625 199.56640625 51.12109375 c 0
 252.946435063 13.921875 325.457687616 -6 414.673815902 -6 c 0
 606.510914048 -6 729.408203125 96.1708984375 729.408203125 263.079101562 c 2
 729.408203125 676 l 1
 631.408203125 676 l 1
 631.408203125 265.006835938 l 2
EndSplineSet
Substitution2: "'c2sc' Capitals to Small Capitals in Latin lookup 20 subtable" ucircumflex.sc
Substitution2: "'aalt' Access All Alternates in Latin lookup 0 subtable" ucircumflex.sc
EndChar

StartChar: Udieresis
Encoding: 220 220 149
Width: 751
GlyphClass: 2
Flags: HW
AnchorPoint: "Anchor-7" 16.9388 0 basechar 0
AnchorPoint: "Anchor-6" 16.9388 0 basechar 0
AnchorPoint: "Anchor-5" 382.224 0 basechar 0
AnchorPoint: "Anchor-4" 382.224 696 basechar 0
AnchorPoint: "Anchor-3" 496.776 11 basechar 0
LayerCount: 2
Fore
SplineSet
290.231471265 849 m 0
 253.502482336 849 228.496742858 824.395507812 228.496742858 790 c 0
 228.496742858 756.532226562 253.545188256 732 290.231471265 732 c 0
 326.918703295 732 351.967148693 756.532226562 351.967148693 790 c 0
 351.967148693 824.395507812 326.959511173 849 290.231471265 849 c 0
494.217719943 849 m 0
 457.489680034 849 432.482042515 824.395507812 432.482042515 790 c 0
 432.482042515 756.532226562 457.530487913 732 494.217719943 732 c 0
 530.904002952 732 555.95244835 756.532226562 555.95244835 790 c 0
 555.95244835 824.395507812 530.945759851 849 494.217719943 849 c 0
586.509765625 265.006835938 m 2
 586.509765625 140.96484375 513.965886204 82 392.224595604 82 c 0
 270.470967739 82 197.938476562 140.965820312 197.938476562 265.006835938 c 2
 197.938476562 676 l 1
 99.9384765625 676 l 1
 99.9384765625 263.079101562 l 2
 99.9384765625 170.821289062 131.901367188 97.80859375 192.225585938 51.23046875 c 0
 241.719444598 13.984375 309.233707463 -6 392.224595604 -6 c 0
 571.061523438 -6 684.509765625 96.4658203125 684.509765625 263.079101562 c 2
 684.509765625 676 l 1
 586.509765625 676 l 1
 586.509765625 265.006835938 l 2
EndSplineSet
Substitution2: "'c2sc' Capitals to Small Capitals in Latin lookup 20 subtable" udieresis.sc
Substitution2: "'aalt' Access All Alternates in Latin lookup 0 subtable" udieresis.sc
EndChar

StartChar: Yacute
Encoding: 221 221 150
Width: 723
GlyphClass: 2
Flags: HW
AnchorPoint: "Anchor-7" 2.44898 0 basechar 0
AnchorPoint: "Anchor-6" 2.44898 0 basechar 0
AnchorPoint: "Anchor-5" 2.44898 0 basechar 0
AnchorPoint: "Anchor-4" 353.449 696 basechar 0
AnchorPoint: "Anchor-3" 2.44898 0 basechar 0
LayerCount: 2
Fore
SplineSet
326.843482802 718 m 1
 422.901974691 718 l 1
 543.81242817 857 l 1
 373.18944626 857 l 1
 326.843482802 718 l 1
14.44921875 681 m 1
 317.500093733 278.385742188 l 1
 317.500093733 5 l 1
 418.311551961 5 l 1
 418.311551961 277.412109375 l 1
 722.602539062 681 l 1
 593.802236874 681 l 1
 368.92124233 358.143554688 l 1
 143.235178855 681 l 1
 14.44921875 681 l 1
EndSplineSet
Substitution2: "'c2sc' Capitals to Small Capitals in Latin lookup 20 subtable" yacute.sc
Substitution2: "'aalt' Access All Alternates in Latin lookup 0 subtable" yacute.sc
EndChar

StartChar: Thorn
Encoding: 222 222 151
Width: 697
GlyphClass: 2
Flags: HW
LayerCount: 2
Fore
SplineSet
407.508360489 643.728515625 m 2
 207.571289062 643.728515625 l 1
 207.571289062 656.15234375 207.571289062 668.576171875 207.571289062 681 c 1
 109.571289062 681 l 1
 109.571289062 5 l 1
 207.571289062 5 l 1
 207.571289062 179.309570312 l 1
 407.508360489 179.309570312 l 2
 562.073242188 179.309570312 673.81640625 261.7578125 673.81640625 410.952148438 c 0
 673.81640625 560.124023438 562.108398438 643.728515625 407.508360489 643.728515625 c 2
415.658374201 266.309570312 m 2
 207.571289062 266.309570312 l 1
 207.571289062 566 l 1
 415.658374201 566 l 2
 521.373610762 566 574.81640625 499.84375 574.81640625 415.528320312 c 0
 574.81640625 332.495117188 521.393505019 266.309570312 415.658374201 266.309570312 c 2
EndSplineSet
Substitution2: "'c2sc' Capitals to Small Capitals in Latin lookup 20 subtable" thorn.sc
Substitution2: "'aalt' Access All Alternates in Latin lookup 0 subtable" thorn.sc
EndChar

StartChar: germandbls
Encoding: 223 223 152
Width: 615
GlyphClass: 2
Flags: HW
LayerCount: 2
Fore
SplineSet
430.885686593 594.5859375 m 0
 445.233217646 575.385742188 451.460356493 550.854492188 451.460356493 525 c 0
 451.460356493 497.685546875 444.514665452 470.102539062 427.135859893 448.000976562 c 0
 405.506874535 420.49609375 367.2025876 400.618164062 303.204416637 400.618164062 c 2
 301.260375556 400.618164062 l 1
 300.016076403 401.866210938 297.56792017 403.904296875 296.649038634 403.904296875 c 0
 296.292584077 403.904296875 295.723573504 403.798828125 294.910029462 403.260742188 c 2
 294.910029462 329.596679688 l 1
 301.050641081 329.772460938 307.1912527 329.859375 313.331864318 329.859375 c 0
 321.106147615 329.859375 328.879490398 329.71875 336.653773694 329.438476562 c 0
 436.24096957 329.41015625 488.795898438 279.62109375 488.795898438 208.875976562 c 0
 488.795898438 127.728515625 421.328189998 95 335.859039919 95 c 2
 268.238011557 95 l 1
 268.238011557 10 l 1
 333.066655802 10 l 2
 404.721545894 10 462.267795321 24.9619140625 505.619140625 52.361328125 c 0
 560.223632812 86.6767578125 588.795898438 140.307617188 588.795898438 206.330078125 c 0
 588.795898438 286.859375 550.150390625 343.143554688 478.592773438 370.11328125 c 2
 469.807617188 373.423828125 l 1
 477.458984375 378.870117188 l 2
 527.369140625 414.397460938 550.795898438 468.89453125 550.795898438 530 c 0
 550.795898438 631.734375 481.293945312 720 331.822356649 720 c 0
 176.4140625 720 87.8984375 642.063476562 87.8984375 529 c 2
 87.8984375 10 l 1
 185.8984375 10 l 1
 185.8984375 529 l 2
 185.8984375 599.87890625 257.308305994 635 332.194799933 635 c 0
 382.053293292 635 413.036624362 618.475585938 430.885686593 594.5859375 c 0
EndSplineSet
Substitution2: "'smcp' Lowercase to Small Capitals in Latin lookup 21 subtable" germandbls.sc
Substitution2: "'aalt' Access All Alternates in Latin lookup 0 subtable" germandbls.sc
EndChar

StartChar: agrave
Encoding: 224 224 153
Width: 603
GlyphClass: 2
Flags: HW
AnchorPoint: "Anchor-7" 8.16327 0 basechar 0
AnchorPoint: "Anchor-6" 8.16327 0 basechar 0
AnchorPoint: "Anchor-5" 289.878 0 basechar 0
AnchorPoint: "Anchor-4" 292.286 590 basechar 0
AnchorPoint: "Anchor-3" 523.571 0 basechar 0
LayerCount: 2
Fore
SplineSet
445.571289062 221.305664062 m 0
 445.571289062 166.2890625 381.542055393 81 256.297326066 81 c 0
 193.372356183 81 148.163085938 101.989257812 148.163085938 160.359375 c 0
 148.163085938 197.977539062 164.48828125 224.025390625 199.542871316 240.19921875 c 0
 227.744362119 253.26171875 268.745489856 260.034179688 323.767952619 260.034179688 c 2
 445.571289062 260.034179688 l 1
 445.571289062 247.125 445.571289062 234.21484375 445.571289062 221.305664062 c 0
446.717773438 0.09765625 m 1
 543.571289062 0.09765625 l 1
 543.571289062 361.09765625 l 2
 543.571289062 425.764648438 527.90625 478.923828125 496.419921875 518.119140625 c 0
 464.318359375 558.836914062 416.586935047 583.247070312 351.660259829 592.048828125 c 1
 297.673421141 725 l 1
 146.021484375 725 l 1
 240.996967115 589.703125 l 1
 233.716586254 588.140625 l 2
 130.895507812 566.373046875 64.88671875 494.64453125 59.1708984375 391.556640625 c 2
 58.8779296875 386.275390625 l 1
 156.112304688 386.275390625 l 1
 156.56640625 390.767578125 l 2
 161.380859375 436.129882812 180.195872376 467.65234375 209.22059974 486.82421875 c 0
 232.519322124 502.212890625 263.119100259 510 300.029418923 510 c 0
 353.551072568 510 392.022345487 494.623046875 416.034351602 465.541015625 c 0
 435.676757812 442.083007812 445.571289062 409.154296875 445.571289062 367.301757812 c 0
 445.571289062 356.750976562 445.571289062 346.19921875 445.571289062 335.6484375 c 1
 329.537186917 335.6484375 l 2
 166.59765625 335.6484375 48.1630859375 284.608398438 48.1630859375 156.551757812 c 0
 48.1630859375 104.671875 68.2744140625 60.271484375 108.922851562 31.26953125 c 0
 141.318359375 8.1572265625 187.428325081 -5 247.199434351 -5 c 0
 349.237538535 -5 406.565251621 29.4765625 436.725585938 58.548828125 c 2
 444.790039062 66.154296875 l 1
 446.717773438 0.09765625 l 1
EndSplineSet
Substitution2: "'ss03' Style Set 3 in Latin lookup 27 subtable" agrave.ss01
Substitution2: "'ss02' Style Set 2 in Latin lookup 26 subtable" agrave.ss01
Substitution2: "'ss01' Style Set 1 in Latin lookup 25 subtable" agrave.ss01
Substitution2: "'salt' Stylistic Alternatives in Latin lookup 24 subtable" agrave.ss01
Substitution2: "'smcp' Lowercase to Small Capitals in Latin lookup 21 subtable" agrave.sc
AlternateSubs2: "'aalt' Access All Alternates in Latin lookup 1 subtable" agrave.sc agrave.ss01
EndChar

StartChar: aacute
Encoding: 225 225 154
Width: 603
GlyphClass: 2
Flags: HW
AnchorPoint: "Anchor-7" 8.16327 0 basechar 0
AnchorPoint: "Anchor-6" 8.16327 0 basechar 0
AnchorPoint: "Anchor-5" 289.878 0 basechar 0
AnchorPoint: "Anchor-4" 292.286 590 basechar 0
AnchorPoint: "Anchor-3" 523.571 0 basechar 0
LayerCount: 2
Fore
SplineSet
445.571289062 221.305664062 m 0
 445.571289062 166.2890625 381.542055393 81 256.297326066 81 c 0
 193.372356183 81 148.163085938 101.989257812 148.163085938 160.359375 c 0
 148.163085938 197.977539062 164.48828125 224.025390625 199.542871316 240.19921875 c 0
 227.744362119 253.26171875 268.745489856 260.034179688 323.767952619 260.034179688 c 2
 445.571289062 260.034179688 l 1
 445.571289062 247.125 445.571289062 234.21484375 445.571289062 221.305664062 c 0
446.717773438 0.09765625 m 1
 543.571289062 0.09765625 l 1
 543.571289062 361.09765625 l 2
 543.571289062 425.764648438 527.90625 478.923828125 496.419921875 518.119140625 c 0
 467.942382812 554.240234375 426.975585938 578.211914062 371.922592569 588.809570312 c 2
 364.491848866 590.243164062 l 1
 458.609375 725 l 1
 307.383101669 725 l 1
 253.206429893 591.583007812 l 1
 250.537489446 591.169921875 l 2
 138.009765625 573.918945312 65.1865234375 500.041992188 59.1708984375 391.556640625 c 2
 58.8779296875 386.275390625 l 1
 156.112304688 386.275390625 l 1
 156.56640625 390.767578125 l 2
 161.380859375 436.129882812 180.195872376 467.65234375 209.22059974 486.82421875 c 0
 232.519322124 502.212890625 263.119100259 510 300.029418923 510 c 0
 353.551072568 510 392.022345487 494.623046875 416.034351602 465.541015625 c 0
 435.676757812 442.083007812 445.571289062 409.154296875 445.571289062 367.301757812 c 0
 445.571289062 356.750976562 445.571289062 346.19921875 445.571289062 335.6484375 c 1
 329.537186917 335.6484375 l 2
 166.59765625 335.6484375 48.1630859375 284.608398438 48.1630859375 156.551757812 c 0
 48.1630859375 104.671875 68.2744140625 60.271484375 108.922851562 31.26953125 c 0
 141.318359375 8.1572265625 187.428325081 -5 247.199434351 -5 c 0
 349.237538535 -5 406.565251621 29.4765625 436.725585938 58.548828125 c 2
 444.790039062 66.154296875 l 1
 446.717773438 0.09765625 l 1
EndSplineSet
Substitution2: "'ss03' Style Set 3 in Latin lookup 27 subtable" aacute.ss01
Substitution2: "'ss02' Style Set 2 in Latin lookup 26 subtable" aacute.ss01
Substitution2: "'ss01' Style Set 1 in Latin lookup 25 subtable" aacute.ss01
Substitution2: "'salt' Stylistic Alternatives in Latin lookup 24 subtable" aacute.ss01
Substitution2: "'smcp' Lowercase to Small Capitals in Latin lookup 21 subtable" aacute.sc
AlternateSubs2: "'aalt' Access All Alternates in Latin lookup 1 subtable" aacute.sc aacute.ss01
EndChar

StartChar: acircumflex
Encoding: 226 226 155
Width: 603
GlyphClass: 2
Flags: HW
AnchorPoint: "Anchor-7" 8.16327 0 basechar 0
AnchorPoint: "Anchor-6" 8.16327 0 basechar 0
AnchorPoint: "Anchor-5" 289.878 0 basechar 0
AnchorPoint: "Anchor-4" 292.286 590 basechar 0
AnchorPoint: "Anchor-3" 523.571 0 basechar 0
LayerCount: 2
Fore
SplineSet
445.571289062 221.305664062 m 0
 445.571289062 166.2890625 381.542055393 81 256.297326066 81 c 0
 193.372356183 81 148.163085938 101.989257812 148.163085938 160.359375 c 0
 148.163085938 197.977539062 164.48828125 224.025390625 199.542871316 240.19921875 c 0
 227.744362119 253.26171875 268.745489856 260.034179688 323.767952619 260.034179688 c 2
 445.571289062 260.034179688 l 1
 445.571289062 247.125 445.571289062 234.21484375 445.571289062 221.305664062 c 0
351.174399895 592.333007812 m 1
 335.593050383 593.715820312 319.752324967 595 302.738769384 595 c 0
 285.578610029 595 269.182481866 593.465820312 253.436672995 591.860351562 c 1
 302.528261405 644.248046875 l 1
 351.174399895 592.333007812 l 1
446.717773438 0.09765625 m 1
 543.571289062 0.09765625 l 1
 543.571289062 361.09765625 l 2
 543.571289062 425.764648438 527.90625 478.923828125 496.419921875 518.119140625 c 0
 488.276367188 528.448242188 479.064453125 537.834960938 468.911132812 546.125976562 c 2
 458.04296875 555 l 1
 466.977539062 550 475.912109375 550 484.846679688 555 c 1
 366.739773356 725 l 1
 238.332725506 725 l 1
 117.84375 555 l 1
 128.263671875 550 138.684570312 550 149.10546875 555 c 1
 137.416015625 546.03125 l 2
 91.330078125 510.670898438 62.837890625 457.682617188 59.1708984375 391.556640625 c 2
 58.8779296875 386.275390625 l 1
 156.112304688 386.275390625 l 1
 156.56640625 390.767578125 l 2
 161.380859375 436.129882812 180.195872376 467.65234375 209.22059974 486.82421875 c 0
 232.519322124 502.212890625 263.119100259 510 300.029418923 510 c 0
 353.551072568 510 392.022345487 494.623046875 416.034351602 465.541015625 c 0
 435.676757812 442.083007812 445.571289062 409.154296875 445.571289062 367.301757812 c 0
 445.571289062 356.750976562 445.571289062 346.19921875 445.571289062 335.6484375 c 1
 329.537186917 335.6484375 l 2
 166.59765625 335.6484375 48.1630859375 284.608398438 48.1630859375 156.551757812 c 0
 48.1630859375 104.671875 68.2744140625 60.271484375 108.922851562 31.26953125 c 0
 141.318359375 8.1572265625 187.428325081 -5 247.199434351 -5 c 0
 349.237538535 -5 406.565251621 29.4765625 436.725585938 58.548828125 c 2
 444.790039062 66.154296875 l 1
 446.717773438 0.09765625 l 1
EndSplineSet
Substitution2: "'ss03' Style Set 3 in Latin lookup 27 subtable" acircumflex.ss01
Substitution2: "'ss02' Style Set 2 in Latin lookup 26 subtable" acircumflex.ss01
Substitution2: "'ss01' Style Set 1 in Latin lookup 25 subtable" acircumflex.ss01
Substitution2: "'salt' Stylistic Alternatives in Latin lookup 24 subtable" acircumflex.ss01
Substitution2: "'smcp' Lowercase to Small Capitals in Latin lookup 21 subtable" acircumflex.sc
AlternateSubs2: "'aalt' Access All Alternates in Latin lookup 1 subtable" acircumflex.sc acircumflex.ss01
EndChar

StartChar: atilde
Encoding: 227 227 156
Width: 592
GlyphClass: 2
Flags: HW
AnchorPoint: "Anchor-7" 8.16327 0 basechar 0
AnchorPoint: "Anchor-6" 8.16327 0 basechar 0
AnchorPoint: "Anchor-5" 285.184 0 basechar 0
AnchorPoint: "Anchor-4" 287.592 590 basechar 0
AnchorPoint: "Anchor-3" 512.347 0 basechar 0
LayerCount: 2
Fore
SplineSet
206.054678781 486.87890625 m 0
 228.55040804 502.234375 258.072827826 510 293.723197216 510 c 0
 385.001689636 510 434.346679688 463.208007812 434.346679688 367.301757812 c 0
 434.346679688 356.750976562 434.346679688 346.19921875 434.346679688 335.6484375 c 1
 321.677042027 335.6484375 l 2
 162.94921875 335.6484375 48.1630859375 284.502929688 48.1630859375 156.551757812 c 0
 48.1630859375 104.715820312 67.6689453125 60.3369140625 107.19140625 31.3095703125 c 0
 138.6953125 8.1728515625 183.466073371 -5 241.682532739 -5 c 0
 340.38924086 -5 396.134631757 29.0478515625 425.616210938 57.9931640625 c 2
 433.740234375 65.7939453125 l 1
 435.48046875 0.09765625 l 1
 532.346679688 0.09765625 l 1
 532.346679688 361.095703125 l 2
 532.346679688 425.745117188 517.0703125 478.877929688 486.345703125 518.072265625 c 0
 467.448242188 542.635742188 442.895507812 561.573242188 412.762695312 574.505859375 c 2
 401.95205605 579.327148438 l 1
 412.918945312 583.763671875 l 2
 453.641601562 599.620117188 477.346679688 637.551757812 477.346679688 693 c 2
 477.346679688 698 l 1
 401.16683042 698 l 1
 401.16683042 693 l 2
 401.16683042 668.02734375 386.745697338 655 362.460929516 655 c 0
 342.531959306 655 328.783474703 662.946289062 311.638912703 672.993164062 c 0
 289.27358531 686.1015625 261.846038681 702 211.615051912 702 c 0
 132.671875 702 95.1630859375 662.078125 95.1630859375 584 c 2
 95.1630859375 579 l 1
 172.067636802 579 l 1
 172.067636802 584 l 2
 172.067636802 594.3828125 174.742282288 603.0625 179.680666659 609.364257812 c 0
 185.712925683 617.0625 195.624405712 622 210.796991279 622 c 0
 236.28633462 622 258.067198969 606.459960938 278.144395761 594.85546875 c 1
 262.785119751 593.307617188 l 2
 232.000897727 590.204101562 203.779682181 582.891601562 178.740647445 571.859375 c 2
 174.686931856 570.073242188 l 1
 173.54427377 569.497070312 l 2
 106.15625 536.755859375 63.650390625 474.352539062 59.169921875 391.549804688 c 2
 58.884765625 386.275390625 l 1
 154.69921875 386.275390625 l 1
 155.138671875 390.784179688 l 2
 159.681640625 436.204101562 178.012648534 467.73828125 206.054678781 486.87890625 c 0
434.346679688 221.305664062 m 0
 434.346679688 166.126953125 372.533770129 81 252.157836668 81 c 0
 190.644743053 81 148.163085938 102.658203125 148.163085938 160.359375 c 0
 148.163085938 198.043945312 163.920898438 224.107421875 197.654547007 240.240234375 c 0
 224.762186898 253.268554688 264.193272286 260.034179688 317.18521369 260.034179688 c 2
 434.346679688 260.034179688 l 1
 434.346679688 247.125 434.346679688 234.21484375 434.346679688 221.305664062 c 0
192.395317756 579 m 1
 174.686931856 570.073242188 l 1
 172.067636802 568.918945312 l 1
 172.067636802 579 l 1
 192.395317756 579 l 1
EndSplineSet
Substitution2: "'ss03' Style Set 3 in Latin lookup 27 subtable" atilde.ss01
Substitution2: "'ss02' Style Set 2 in Latin lookup 26 subtable" atilde.ss01
Substitution2: "'ss01' Style Set 1 in Latin lookup 25 subtable" atilde.ss01
Substitution2: "'salt' Stylistic Alternatives in Latin lookup 24 subtable" atilde.ss01
Substitution2: "'smcp' Lowercase to Small Capitals in Latin lookup 21 subtable" atilde.sc
AlternateSubs2: "'aalt' Access All Alternates in Latin lookup 1 subtable" atilde.sc atilde.ss01
EndChar

StartChar: adieresis
Encoding: 228 228 157
Width: 568
GlyphClass: 2
Flags: HW
AnchorPoint: "Anchor-7" 8.16327 0 basechar 0
AnchorPoint: "Anchor-6" 8.16327 0 basechar 0
AnchorPoint: "Anchor-5" 270.082 0 basechar 0
AnchorPoint: "Anchor-4" 272.49 590 basechar 0
AnchorPoint: "Anchor-3" 488.265 0 basechar 0
LayerCount: 2
Fore
SplineSet
410.265625 221.305664062 m 0
 410.265625 165.752929688 353.177193489 81 243.272114079 81 c 0
 184.923106122 81 148.163085938 104.20703125 148.163085938 160.359375 c 0
 148.163085938 198.18359375 162.690429688 224.299804688 193.619783633 240.341796875 c 0
 218.386165036 253.287109375 254.436742395 260.034179688 303.064340807 260.034179688 c 2
 410.265625 260.034179688 l 1
 410.265625 247.125 410.265625 234.21484375 410.265625 221.305664062 c 0
371.159979609 588.05078125 m 1
 378.760931801 587.666992188 386.256328187 587 394.265625 587 c 0
 429.733398438 587 454.265625 611.3125 454.265625 645 c 0
 454.265625 679.615234375 429.771484375 704 394.265625 704 c 0
 356.473710668 704 331.049707249 679.256835938 331.049707249 645 c 0
 331.049707249 624.306640625 340.765512061 607.303710938 356.852030152 597.11328125 c 2
 371.159979609 588.05078125 l 1
155.142578125 390.826171875 m 2
 162.03515625 464.540039062 202.433226417 510 281.800917585 510 c 0
 367.747631279 510 410.265625 460.041015625 410.265625 367.301757812 c 0
 410.265625 356.750976562 410.265625 346.19921875 410.265625 335.6484375 c 1
 304.801808065 335.6484375 l 2
 155.616210938 335.6484375 48.1630859375 284.25390625 48.1630859375 156.551757812 c 0
 48.1630859375 104.807617188 66.349609375 60.486328125 103.40234375 31.4072265625 c 0
 132.958007812 8.2109375 174.761725029 -5 229.599367706 -5 c 0
 321.227412508 -5 373.531715828 28.1005859375 401.487304688 56.7099609375 c 2
 409.678710938 64.896484375 l 1
 411.3984375 0.0869140625 l 1
 508.265625 0.0869140625 l 1
 508.265625 360.36328125 l 2
 508.265625 469.42578125 465.405273438 545.4140625 387.888239639 577.4765625 c 2
 374.228570976 583.279296875 l 1
 353.375227391 587.944335938 l 2
 332.509740219 592.612304688 309.699410664 595 285.034848578 595 c 0
 265.798470491 595 247.427089543 593.311523438 230.061758186 590.0546875 c 2
 208.342483339 585.979492188 l 1
 226.499016185 599.092773438 l 2
 240.817240986 609.431640625 249.378470781 625.578125 249.378470781 645 c 0
 249.378470781 679.25390625 223.959137972 704 186.336432982 704 c 0
 149.543945312 704 125.163085938 679.545898438 125.163085938 645 c 0
 125.163085938 612.133789062 148.481445312 588.159179688 183.748914539 587.040039062 c 2
 206.766619218 586.291992188 l 1
 185.362143547 577.39453125 l 2
 110.955078125 547.499023438 63.7744140625 481.403320312 59.169921875 391.53515625 c 2
 58.900390625 386.275390625 l 1
 154.737304688 386.275390625 l 1
 155.142578125 390.826171875 l 2
EndSplineSet
Substitution2: "'ss03' Style Set 3 in Latin lookup 27 subtable" adieresis.ss01
Substitution2: "'ss02' Style Set 2 in Latin lookup 26 subtable" adieresis.ss01
Substitution2: "'ss01' Style Set 1 in Latin lookup 25 subtable" adieresis.ss01
Substitution2: "'salt' Stylistic Alternatives in Latin lookup 24 subtable" adieresis.ss01
Substitution2: "'smcp' Lowercase to Small Capitals in Latin lookup 21 subtable" adieresis.sc
AlternateSubs2: "'aalt' Access All Alternates in Latin lookup 1 subtable" adieresis.sc adieresis.ss01
EndChar

StartChar: aring
Encoding: 229 229 158
Width: 579
GlyphClass: 2
Flags: HW
AnchorPoint: "Anchor-7" 8.16327 0 basechar 0
AnchorPoint: "Anchor-6" 8.16327 0 basechar 0
AnchorPoint: "Anchor-5" 277.837 0 basechar 0
AnchorPoint: "Anchor-4" 280.245 590 basechar 0
AnchorPoint: "Anchor-3" 499.694 0 basechar 0
LayerCount: 2
Fore
SplineSet
421.694335938 221.305664062 m 0
 421.694335938 166.0078125 361.309246603 81 244.11134215 81 c 0
 185.42626593 81 148.163085938 104.103515625 148.163085938 160.359375 c 0
 148.163085938 198.119140625 163.27734375 224.206054688 195.53085705 240.291992188 c 0
 221.408308628 253.27734375 259.066024672 260.034179688 309.765908909 260.034179688 c 2
 421.694335938 260.034179688 l 1
 421.694335938 247.125 421.694335938 234.21484375 421.694335938 221.305664062 c 0
205.098109343 486.962890625 m 0
 226.435328668 502.270507812 254.393798038 510 288.207762819 510 c 0
 376.397795766 510 421.694335938 461.366210938 421.694335938 367.301757812 c 0
 421.694335938 356.750976562 421.694335938 346.19921875 421.694335938 335.6484375 c 1
 312.812077105 335.6484375 l 2
 159.098632812 335.6484375 48.1630859375 284.375 48.1630859375 156.551757812 c 0
 48.1630859375 104.764648438 66.9638671875 60.4150390625 105.168945312 31.3603515625 c 0
 135.6328125 8.19140625 178.826546883 -5 235.234017934 -5 c 0
 330.225974086 -5 384.143338376 28.6416015625 412.801757812 57.4619140625 c 2
 420.932617188 65.451171875 l 1
 422.840820312 0.09765625 l 1
 519.694335938 0.09765625 l 1
 519.694335938 361.09375 l 2
 519.694335938 425.723632812 504.854492188 478.825195312 474.990234375 518.017578125 c 0
 443.87890625 559.616210938 396.495578493 585.212890625 332.002749512 592.705078125 c 2
 301.740463322 596.219726562 l 1
 331.575874067 602.573242188 l 2
 373.431198651 611.485351562 404 633.76953125 404 666.993164062 c 0
 404 711.995117188 349.968963406 737 290.612681717 737 c 0
 231.242358073 737 177.047899197 711.977539062 177.047899197 666.993164062 c 0
 177.047899197 633.537109375 208.275335789 611.133789062 250.632426247 602.366210938 c 2
 279.810673478 596.327148438 l 1
 250.291674795 592.5 l 2
 137.91015625 578.09375 65.0283203125 502.9140625 59.169921875 391.541992188 c 2
 58.892578125 386.275390625 l 1
 156.150390625 386.275390625 l 1
 156.5703125 390.809570312 l 2
 161.009765625 436.286132812 178.479242519 467.865234375 205.098109343 486.962890625 c 0
EndSplineSet
Substitution2: "'ss03' Style Set 3 in Latin lookup 27 subtable" aring.ss01
Substitution2: "'ss02' Style Set 2 in Latin lookup 26 subtable" aring.ss01
Substitution2: "'ss01' Style Set 1 in Latin lookup 25 subtable" aring.ss01
Substitution2: "'salt' Stylistic Alternatives in Latin lookup 24 subtable" aring.ss01
Substitution2: "'smcp' Lowercase to Small Capitals in Latin lookup 21 subtable" aring.sc
AlternateSubs2: "'aalt' Access All Alternates in Latin lookup 1 subtable" aring.sc aring.ss01
EndChar

StartChar: ae
Encoding: 230 230 159
Width: 1005
GlyphClass: 2
Flags: HW
AnchorPoint: "Anchor-7" 7.95918 0 basechar 0
AnchorPoint: "Anchor-6" 7.95918 0 basechar 0
AnchorPoint: "Anchor-5" 7.95918 0 basechar 0
AnchorPoint: "Anchor-4" 493.755 590 basechar 0
AnchorPoint: "Anchor-3" 7.95918 0 basechar 0
LayerCount: 2
Fore
SplineSet
970.81640625 298.8671875 m 2
 970.81640625 484.06640625 866.817382812 595 704.652962969 595 c 0
 623.396829871 595 552.876289072 568.217773438 502.762421027 523.170898438 c 2
 499.122291022 519.899414062 l 1
 495.849831473 523.552734375 l 2
 455.458055753 568.634765625 386.479420895 595 297.763042513 595 c 0
 162.244140625 595 72.677734375 516.236328125 59.984375 390.29296875 c 2
 59.4296875 384.787109375 l 1
 159.650390625 384.787109375 l 1
 160.25390625 389.1328125 l 2
 171.057258716 467.34375 221.337637203 510 294.423208797 510 c 0
 345.370591539 510 382.58038159 493.913085938 405.862006308 465.49609375 c 0
 424.567962584 442.666992188 434.556664114 411.390625 434.556664114 373.21875 c 0
 434.556664114 361.018554688 434.556664114 348.818359375 434.556664114 336.619140625 c 1
 373.330870923 336.619140625 l 2
 171.605876935 336.619140625 46.958984375 284.626953125 46.958984375 155.837890625 c 0
 46.958984375 61.55859375 115.560546875 -5 241.259215954 -5 c 0
 347.458228234 -5 422.914408024 31.1962890625 476.346935047 95.7080078125 c 2
 480.210362291 100.372070312 l 1
 483.966953356 95.6181640625 l 2
 533.533165671 32.900390625 612.308966928 -5 711.251781401 -5 c 0
 865.405273438 -5 946.681640625 80.6318359375 968.314453125 193.021484375 c 2
 969.482421875 199.086914062 l 1
 851.890625 199.086914062 l 1
 851.061523438 194.970703125 l 2
 840.389772633 141.24609375 800.745850169 81.4404296875 705.941734538 81.4404296875 c 0
 615.007783568 81.4404296875 548.995537042 151.260742188 536.290694085 262.861328125 c 2
 535.642939592 268.543945312 l 1
 970.81640625 268.543945312 l 1
 970.81640625 298.8671875 l 2
852.901367188 343.985351562 m 1
 538.456292317 343.985351562 l 1
 539.666139862 350.176757812 l 2
 559.23352299 450.3203125 622.269756303 510 702.277542331 510 c 0
 781.340165042 510 836.511908067 457.54296875 852.03515625 349.9140625 c 2
 852.901367188 343.985351562 l 1
441.643464015 218.981445312 m 1
 438.404691549 164.418945312 370.665741367 84 256.015121057 84 c 0
 193.656479369 84 146.958984375 103.755859375 146.958984375 160.31640625 c 0
 146.958984375 225.432617188 216.235487771 260.985351562 369.993924671 260.985351562 c 2
 436.117819817 260.985351562 l 1
 437.773299354 246.520507812 438.944647375 233.034179688 441.643464015 218.981445312 c 1
EndSplineSet
Substitution2: "'smcp' Lowercase to Small Capitals in Latin lookup 21 subtable" ae.sc
Substitution2: "'aalt' Access All Alternates in Latin lookup 0 subtable" ae.sc
EndChar

StartChar: ccedilla
Encoding: 231 231 160
Width: 610
GlyphClass: 2
Flags: HW
AnchorPoint: "Anchor-7" 8.77551 0 basechar 0
AnchorPoint: "Anchor-6" 8.77551 0 basechar 0
AnchorPoint: "Anchor-5" 309.143 0 basechar 0
AnchorPoint: "Anchor-4" 318.776 590 basechar 0
AnchorPoint: "Anchor-3" 8.77551 0 basechar 0
LayerCount: 2
Fore
SplineSet
316.901329766 82.0810546875 m 0
 212.998921863 82.0810546875 151.775390625 165.549804688 151.775390625 296.041015625 c 0
 151.775390625 427.62109375 218.86574327 510 319.287145295 510 c 0
 403.817901824 510 446.446297925 451.52734375 458.214873535 374.172851562 c 2
 458.871043615 369.857421875 l 1
 582.778320312 369.857421875 l 1
 582.151367188 375.420898438 l 2
 567.166015625 508.521484375 479.854492188 595 327.490687492 595 c 0
 161.0546875 595 51.775390625 468.125 51.775390625 293.03515625 c 0
 51.775390625 141.3515625 122.071289062 24.90234375 258.668359443 1.0849609375 c 2
 263.930937899 0.1552734375 l 1
 241.309592401 -87 l 1
 248.278213065 -87 l 2
 332.472859453 -87 343.537114373 -102.224609375 343.537114373 -113 c 0
 343.537114373 -124.17578125 329.223165329 -135 289.327080325 -135 c 0
 268.739390011 -135 245.583667153 -132.045898438 226.364020647 -126.250976562 c 2
 220.846527196 -124.587890625 l 1
 200.610053098 -193.151367188 l 1
 205.388293063 -194.709960938 l 2
 230.549347216 -202.916015625 254.651087945 -206 280.819528394 -206 c 0
 369.951028521 -206 420.645123895 -168.518554688 420.645123895 -111 c 0
 420.645123895 -57.224609375 380.757536057 -36.3125 341.738547463 -31.1220703125 c 2
 336.122864532 -30.375 l 1
 343.39738319 -4.3076171875 l 1
 346.756596349 -4.0693359375 l 2
 485.662109375 5.7177734375 566.181640625 90.337890625 582.141601562 215.178710938 c 2
 582.877929688 220.936523438 l 1
 458.905032281 220.936523438 l 1
 458.220538313 216.575195312 l 2
 446.475565942 141.786132812 403.935918026 82.0810546875 316.901329766 82.0810546875 c 0
EndSplineSet
Substitution2: "'smcp' Lowercase to Small Capitals in Latin lookup 21 subtable" ccedilla.sc
Substitution2: "'aalt' Access All Alternates in Latin lookup 0 subtable" ccedilla.sc
EndChar

StartChar: egrave
Encoding: 232 232 161
Width: 637
GlyphClass: 2
Flags: HW
AnchorPoint: "Anchor-7" 8.77551 0 basechar 0
AnchorPoint: "Anchor-6" 8.77551 0 basechar 0
AnchorPoint: "Anchor-5" 320.98 0 basechar 0
AnchorPoint: "Anchor-4" 314.959 590 basechar 0
AnchorPoint: "Anchor-3" 455.837 17 basechar 0
LayerCount: 2
Fore
SplineSet
485.28515625 350.333007812 m 1
 155.865234375 350.333007812 l 1
 157.125976562 356.360351562 l 2
 177.119560166 452.725585938 240.133071986 510 326.117618499 510 c 0
 411.230709604 510 468.490344834 459.594726562 484.370117188 356.119140625 c 2
 485.28515625 350.333007812 l 1
258.453505884 585.67578125 m 2
 133.09375 553.7734375 51.775390625 441.549804688 51.775390625 293.7421875 c 0
 51.775390625 122.065429688 149.984375 -5 336.554266877 -5 c 0
 495.982421875 -5 577.236328125 82.9765625 599.751953125 192.73046875 c 2
 601.012695312 198.879882812 l 1
 482.985269267 198.879882812 l 1
 482.142200028 194.724609375 l 2
 471.30057563 141.229492188 432.397330113 81.7255859375 328.600462138 81.7255859375 c 0
 229.015155536 81.7255859375 164.982421875 150.995117188 153.638671875 265.19921875 c 2
 153.081054688 270.8203125 l 1
 603.469726562 270.8203125 l 1
 603.469726562 300.6875 l 2
 603.469726562 381.797851562 583.549804688 448.469726562 546.854492188 497.651367188 c 0
 507.30859375 551.85546875 448.40050636 583.741210938 373.30678694 592.869140625 c 1
 319.993775498 725 l 1
 168.711914062 725 l 1
 265.453535321 587.444335938 l 1
 258.453505884 585.67578125 l 2
EndSplineSet
Substitution2: "'smcp' Lowercase to Small Capitals in Latin lookup 21 subtable" egrave.sc
Substitution2: "'aalt' Access All Alternates in Latin lookup 0 subtable" egrave.sc
EndChar

StartChar: eacute
Encoding: 233 233 162
Width: 637
GlyphClass: 2
Flags: HW
AnchorPoint: "Anchor-7" 8.77551 0 basechar 0
AnchorPoint: "Anchor-6" 8.77551 0 basechar 0
AnchorPoint: "Anchor-5" 320.98 0 basechar 0
AnchorPoint: "Anchor-4" 314.959 590 basechar 0
AnchorPoint: "Anchor-3" 455.837 17 basechar 0
LayerCount: 2
Fore
SplineSet
485.28515625 350.333007812 m 1
 155.865234375 350.333007812 l 1
 157.125976562 356.360351562 l 2
 177.119560166 452.725585938 240.133071986 510 326.117618499 510 c 0
 411.230709604 510 468.490344834 459.594726562 484.370117188 356.119140625 c 2
 485.28515625 350.333007812 l 1
272.503713659 588.90625 m 2
 139.104492188 561.987304688 51.775390625 446.967773438 51.775390625 293.768554688 c 0
 51.775390625 122.075195312 149.985351562 -5 336.554266877 -5 c 0
 495.982421875 -5 577.236328125 82.9765625 599.751953125 192.73046875 c 2
 601.012695312 198.879882812 l 1
 482.985269267 198.879882812 l 1
 482.142200028 194.724609375 l 2
 471.30057563 141.229492188 432.397330113 81.7255859375 328.600462138 81.7255859375 c 0
 229.015155536 81.7255859375 164.982421875 150.995117188 153.638671875 265.19921875 c 2
 153.081054688 270.8203125 l 1
 603.469726562 270.8203125 l 1
 603.469726562 300.6875 l 2
 603.469726562 381.797851562 583.549804688 448.469726562 546.854492188 497.651367188 c 0
 511.350585938 546.315429688 459.417178805 577.88671875 394.51882532 589.737304688 c 2
 386.888622916 591.130859375 l 1
 481.258443946 725 l 1
 329.758617861 725 l 1
 275.052791694 589.416015625 l 1
 272.503713659 588.90625 l 2
EndSplineSet
Substitution2: "'smcp' Lowercase to Small Capitals in Latin lookup 21 subtable" eacute.sc
Substitution2: "'aalt' Access All Alternates in Latin lookup 0 subtable" eacute.sc
EndChar

StartChar: ecircumflex
Encoding: 234 234 163
Width: 637
GlyphClass: 2
Flags: HW
AnchorPoint: "Anchor-7" 8.77551 0 basechar 0
AnchorPoint: "Anchor-6" 8.77551 0 basechar 0
AnchorPoint: "Anchor-5" 320.98 0 basechar 0
AnchorPoint: "Anchor-4" 314.959 590 basechar 0
AnchorPoint: "Anchor-3" 455.837 17 basechar 0
LayerCount: 2
Fore
SplineSet
485.28515625 350.333007812 m 1
 155.865234375 350.333007812 l 1
 157.125976562 356.360351562 l 2
 177.119560166 452.725585938 240.133071986 510 326.117618499 510 c 0
 411.230709604 510 468.490344834 459.594726562 484.370117188 356.119140625 c 2
 485.28515625 350.333007812 l 1
499.314453125 545.997070312 m 2
 487.305664062 555 l 1
 495.803710938 550 504.301757812 550 512.80078125 555 c 1
 388.588008273 725 l 1
 261.165331292 725 l 1
 137.31640625 555 l 1
 152.9375 550 168.557617188 550 183.793148653 555 c 1
 170.990234375 545.883789062 l 2
 97.166015625 493.912109375 51.775390625 403.561523438 51.775390625 293.380859375 c 0
 51.775390625 121.919921875 149.974609375 -5 336.554266877 -5 c 0
 495.982421875 -5 577.236328125 82.9765625 599.751953125 192.73046875 c 2
 601.012695312 198.879882812 l 1
 482.985269267 198.879882812 l 1
 482.142200028 194.724609375 l 2
 471.30057563 141.229492188 432.397330113 81.7255859375 328.600462138 81.7255859375 c 0
 229.015155536 81.7255859375 164.982421875 150.995117188 153.638671875 265.19921875 c 2
 153.081054688 270.8203125 l 1
 603.469726562 270.8203125 l 1
 603.469726562 300.6875 l 2
 603.469726562 381.797851562 583.549804688 448.469726562 546.854492188 497.651367188 c 0
 533.221679688 516.336914062 517.264648438 532.540039062 499.314453125 545.997070312 c 2
372.466556318 593.186523438 m 1
 360.086401524 594.078125 347.402514715 595 334.219977525 595 c 0
 313.143246554 595 292.782793263 592.349609375 273.876658065 589.524414062 c 1
 324.876196679 644.296875 l 1
 372.466556318 593.186523438 l 1
EndSplineSet
Substitution2: "'smcp' Lowercase to Small Capitals in Latin lookup 21 subtable" ecircumflex.sc
Substitution2: "'aalt' Access All Alternates in Latin lookup 0 subtable" ecircumflex.sc
EndChar

